<svg width="31" height="28" viewBox="0 0 31 28" fill="none" xmlns="http://www.w3.org/2000/svg">
<g clip-path="url(#clip0_436_56)">
<path d="M21.3118 0H7.57771C7.79671 4.28603 4.79336 6.97654 0.945312 7.60223C1.88386 17.2693 6.85816 24.4022 15.5241 28C22.3755 25.1218 27.9755 19.6156 29.6649 11.9196C31.1978 4.84916 27.7878 0 21.3118 0ZM28.6325 11.7006C27.1621 18.5207 22.2503 23.9955 15.5241 26.8737C7.64028 23.495 3.10397 16.8 2.10285 8.41564C5.63805 7.50838 8.35984 4.84916 8.61012 1.0324H21.3431C27.6001 1.00112 29.9151 5.91285 28.6325 11.7006Z" fill="white"/>
<path d="M14.7695 16.6757H16.2712L15.5829 13.2656L14.7695 16.6757Z" fill="white"/>
<path d="M21.3719 1.97673H9.45237C8.88924 5.44936 6.41773 7.98343 3.13281 9.07841C4.25907 16.8058 8.60767 22.7812 15.5529 25.8784C21.6535 23.094 26.2836 18.151 27.7228 11.4873C28.849 6.32533 27.0032 1.94544 21.3719 1.97673ZM5.16633 9.86053H12.5183L15.9909 5.9812L14.5205 5.44935C14.3641 5.38679 14.3641 5.23036 14.5205 5.23036H16.1473L16.6479 3.54098C16.6792 3.41584 16.8356 3.44712 16.8356 3.54098L16.992 5.23036H18.5563C18.6814 5.23036 18.7127 5.38679 18.4937 5.44935L16.8356 6.01248L14.239 9.86053H15.1149C15.0211 10.1734 14.9272 10.5488 14.8334 10.9868L13.4568 11.0806L13.3004 11.2996C12.925 11.7689 11.9552 12.9577 11.392 13.0829C11.1105 13.1454 10.8289 12.9265 10.7976 12.6449C10.7663 12.551 10.7976 12.4259 10.8289 12.332C10.954 11.894 11.3295 11.5186 11.5172 11.1432L5.13505 10.3298C4.8222 10.3298 4.85348 9.86053 5.16633 9.86053ZM23.5306 15.3041C23.03 15.3041 23.03 15.4918 23.03 15.9924V18.2762C23.03 18.7767 23.0613 18.9644 23.5306 18.9644V19.4024H21.5596V18.9332C21.9976 18.9332 22.0915 18.7767 22.0915 18.2449V16.4616L20.4647 18.4639V18.5577C20.4647 18.8393 20.6211 18.9332 20.9965 18.9332V19.4024H16.0535V18.9332C16.3976 18.9332 16.6479 18.9019 16.6479 18.5577C16.6166 18.0885 16.5228 17.6505 16.3976 17.1812H14.6144L14.3954 18.0885C14.239 18.6829 14.2702 18.9332 14.9272 18.9332V19.4024H10.7976V18.9332C11.2982 18.9332 11.3295 18.7767 11.3295 18.2449V16.1175L10.0781 19.2147L8.79538 16.0237V18.2762C8.79538 18.7142 8.82667 18.9019 9.32723 18.9019V19.3711H7.82555V18.9332C8.35739 18.9332 8.35739 18.6203 8.35739 18.1823V15.9611C8.35739 15.5857 8.35739 15.2728 7.85683 15.2728V14.8348H9.48365L10.3596 17.1812L11.2356 14.8348H12.7999V15.3041C12.2993 15.3041 12.2993 15.4918 12.2993 15.9924V18.2762C12.2993 18.7142 12.3619 18.8393 12.487 18.9019C12.7686 19.027 13.363 18.9957 13.5194 18.6516C13.6758 18.3387 13.801 17.9946 13.8635 17.6505L15.9596 9.32868L17.868 17.4628C18.087 18.3387 18.1809 18.5577 18.3999 18.7454C18.6188 18.9332 19.2133 19.027 19.4323 18.808C19.4948 18.7454 19.5261 18.6516 19.5261 18.2762V15.9611C19.5261 15.4292 19.4948 15.2728 18.9943 15.2728V14.8348H20.9965V15.3041C20.4959 15.3041 20.4647 15.5231 20.4647 15.9924V17.7756L22.0602 15.8047V15.7421C22.0602 15.5231 21.935 15.3354 21.5283 15.3354V14.8661H23.4993L23.5306 15.3041ZM23.3429 10.3298L17.0546 10.7991L16.8356 9.82924H23.3742C23.4993 9.79796 23.6244 9.89181 23.6557 10.017C23.687 10.1421 23.5931 10.2672 23.468 10.2985C23.4054 10.3298 23.3742 10.3298 23.3429 10.3298Z" fill="white"/>
</g>
<defs>
<clipPath id="clip0_436_56">
<rect width="31" height="28" fill="white"/>
</clipPath>
</defs>
</svg>
