<svg width="24" height="24" viewBox="0 0 24 24" fill="none" xmlns="http://www.w3.org/2000/svg">
<g clip-path="url(#clip0_585_12889)">
<path d="M9.65182 6.79578C9.70816 7.60785 10.636 8.0525 11.3066 7.59116C11.8966 7.18503 12.7019 7.60803 12.7019 8.3248V11.2737H14.911C14.5187 9.67161 15.789 8.11082 17.4787 8.22749C18.9654 8.33052 20.0679 9.76203 19.6966 11.2737H21.9281C23.7953 8.45057 21.9148 4.36607 18.2762 4.17922C18.6876 2.00652 17.0124 0.00378418 14.8169 0.00378418C14.0238 0.00378418 13.2911 0.267409 12.7019 0.711503V5.11274C12.7019 5.82899 11.8972 6.25269 11.3065 5.84638C10.5889 5.35269 9.58961 5.89803 9.65182 6.79578Z" fill="white"/>
<path d="M5.08734 11.2737C5.80373 11.2737 6.22734 12.0786 5.82089 12.6692C5.3295 13.3832 5.86903 14.3856 6.77058 14.3233C7.58451 14.2669 8.02697 13.3384 7.56618 12.669C7.15992 12.0787 7.58329 11.2737 8.29987 11.2737H11.2962V9.11069C9.78112 9.48288 8.35237 8.37621 8.24948 6.89299C8.13281 5.21041 9.68709 3.93171 11.2962 4.32569V0.711538C8.77364 -1.18952 5.15995 0.981163 5.7135 4.13271C2.05317 4.32719 0.200809 8.42055 2.0842 11.2737H5.08734Z" fill="white"/>
<path d="M21.9048 12.6795H18.9109C18.1942 12.6795 17.771 11.8744 18.1773 11.2842C18.6384 10.6145 18.1948 9.68626 17.3817 9.62987C16.4803 9.56729 15.9404 10.5697 16.432 11.284C16.8383 11.8746 16.415 12.6795 15.6984 12.6795H12.7021V14.8413C14.3066 14.4484 15.8658 15.7219 15.7488 17.4085C15.6459 18.8923 14.2168 19.9981 12.7021 19.6263V23.2886C15.2247 25.1897 18.8384 23.019 18.2848 19.8675C21.8572 19.6776 23.8428 15.6698 21.9048 12.6795Z" fill="white"/>
<path d="M14.346 17.3112C14.4083 16.4139 13.409 15.8681 12.6914 16.3619C12.1011 16.7678 11.296 16.3452 11.296 15.6283V12.6794H9.08559C9.46824 14.2366 8.28216 15.7319 6.69033 15.7319C5.0835 15.7319 3.92311 14.2177 4.30003 12.6794H2.08425C0.201891 15.5323 2.05064 19.6324 5.7217 19.8209C5.31028 21.9936 6.98555 23.9963 9.18103 23.9963C9.97411 23.9963 10.7068 23.7327 11.296 23.2886V18.8404C11.296 18.1243 12.1008 17.7004 12.6912 18.1067C13.3605 18.5674 14.2896 18.125 14.346 17.3112Z" fill="white"/>
</g>
<defs>
<clipPath id="clip0_585_12889">
<rect width="24" height="24" fill="white"/>
</clipPath>
</defs>
</svg>
