<svg width="42" height="42" viewBox="0 0 42 42" fill="none" xmlns="http://www.w3.org/2000/svg">
<g filter="url(#filter0_d_218_4)">
<path d="M35.9183 11.3029L26.2225 20.9998L35.9183 30.6962C37.3606 32.139 37.3606 34.4761 35.9183 35.9188C35.1977 36.6394 34.253 37 33.3087 37C32.3629 37 31.418 36.64 30.698 35.9188L21 26.2213L11.3029 35.9187C10.5824 36.6393 9.63751 36.9999 8.69239 36.9999C7.74755 36.9999 6.80335 36.6399 6.0822 35.9187C4.64 34.4766 4.64 32.1394 6.0822 30.6961L15.7777 20.9997L6.08165 11.3029C4.63945 9.86068 4.63945 7.52305 6.08165 6.08083C7.52358 4.63972 9.85983 4.63972 11.3023 6.08083L21 15.7777L30.6969 6.08083C32.1396 4.63972 34.4761 4.63972 35.9178 6.08083C37.3606 7.52305 37.3606 9.86068 35.9183 11.3029Z" fill="black"/>
</g>
<defs>
<filter id="filter0_d_218_4" x="0" y="0" width="42" height="42" filterUnits="userSpaceOnUse" color-interpolation-filters="sRGB">
<feFlood flood-opacity="0" result="BackgroundImageFix"/>
<feColorMatrix in="SourceAlpha" type="matrix" values="0 0 0 0 0 0 0 0 0 0 0 0 0 0 0 0 0 0 127 0" result="hardAlpha"/>
<feOffset/>
<feGaussianBlur stdDeviation="2.5"/>
<feComposite in2="hardAlpha" operator="out"/>
<feColorMatrix type="matrix" values="0 0 0 0 1 0 0 0 0 1 0 0 0 0 1 0 0 0 1 0"/>
<feBlend mode="normal" in2="BackgroundImageFix" result="effect1_dropShadow_218_4"/>
<feBlend mode="normal" in="SourceGraphic" in2="effect1_dropShadow_218_4" result="shape"/>
</filter>
</defs>
</svg>
