<svg width="342" height="243" viewBox="0 0 342 243" fill="none" xmlns="http://www.w3.org/2000/svg">
<g clip-path="url(#clip0_0_3)">
<path d="M310.22 0H229.5C212.269 0 198.3 13.9687 198.3 31.2V211.62C198.3 228.851 212.269 242.82 229.5 242.82H310.22C327.451 242.82 341.42 228.851 341.42 211.62V31.2C341.42 13.9687 327.451 0 310.22 0Z" fill="url(#paint0_linear_0_3)"/>
<path d="M117.85 0H29.71C13.3016 0 0 13.3016 0 29.71V71.15C0 87.5584 13.3016 100.86 29.71 100.86H117.85C134.258 100.86 147.56 87.5584 147.56 71.15V29.71C147.56 13.3016 134.258 0 117.85 0Z" fill="#8D57F6"/>
<path d="M117.85 141.96H29.71C13.3016 141.96 0 155.262 0 171.67V213.11C0 229.518 13.3016 242.82 29.71 242.82H117.85C134.258 242.82 147.56 229.518 147.56 213.11V171.67C147.56 155.262 134.258 141.96 117.85 141.96Z" fill="#76CDE9"/>
</g>
<defs>
<linearGradient id="paint0_linear_0_3" x1="198.3" y1="121.41" x2="341.42" y2="121.41" gradientUnits="userSpaceOnUse">
<stop stop-color="#8D57F6"/>
<stop offset="1" stop-color="#76CDE9"/>
</linearGradient>
<clipPath id="clip0_0_3">
<rect width="341.42" height="242.82" fill="white"/>
</clipPath>
</defs>
</svg>
