<svg width="24" height="20" viewBox="0 0 24 20" fill="none" xmlns="http://www.w3.org/2000/svg">
<path d="M9.36678 0C9.56748 0 9.73016 0.16269 9.73016 0.363381C9.73016 0.531829 9.6144 0.678194 9.45048 0.716992L7.04762 1.28571C6.846 1.32955 6.71808 1.52853 6.7619 1.73016L7.8976 6.5603C7.99797 6.98716 7.73314 7.41452 7.30622 7.51464L2.19048 8.71429C1.99132 8.75759 1.86919 8.96152 1.92064 9.15873L3.39683 15.4921L3.40167 15.5106C3.45205 15.7038 3.64665 15.822 3.84127 15.7778L8.75532 14.6254C9.25335 14.5086 9.73016 14.8866 9.73016 15.3981V19.0317C9.73016 19.47 9.37483 19.8254 8.93651 19.8254H0.793649C0.355329 19.8254 0 19.47 0 19.0317V0.793651C0 0.35533 0.35533 0 0.793651 0H9.36678Z" fill="white"/>
<path d="M13.004 0.261219C13.4312 0.160833 13.8587 0.426112 13.9585 0.853416L14.9941 5.29014C15.0938 5.71717 15.5209 5.98244 15.9478 5.88249L20.6392 4.78426C21.0662 4.68428 21.4935 4.94969 21.593 5.37687L22.7089 10.1643C22.8083 10.5909 22.5433 11.0174 22.1168 11.1172L17.4235 12.2159C16.9967 12.3159 16.7318 12.7428 16.8316 13.1696L17.8665 17.5913C17.9665 18.0184 17.701 18.4457 17.2735 18.5451L12.2005 19.7252C11.774 19.8245 11.3478 19.5594 11.248 19.133L10.2126 14.7093C10.1127 14.2825 9.68576 14.0175 9.25895 14.1174L4.56716 15.2158C4.14009 15.3157 3.7129 15.0503 3.61333 14.6232L2.49746 9.83569C2.39803 9.40911 2.663 8.98261 3.08949 8.88277L7.78284 7.78407C8.20962 7.68417 8.4746 7.25723 8.37471 6.83045L7.33944 2.40699C7.23962 1.98047 7.50422 1.55374 7.93063 1.45353L13.004 0.261219Z" fill="white"/>
</svg>
