<!-- icon666.com - MILLIONS vector ICONS FREE --><svg version="1.1" id="Capa_1" xmlns="http://www.w3.org/2000/svg" xmlns:xlink="http://www.w3.org/1999/xlink" x="0px" y="0px" viewBox="0 0 512 512" style="enable-background:new 0 0 512 512;" xml:space="preserve"><g><g><path d="M512,278.037v-123.48L256,0.372L0,154.557v123.48h44.002v143.588H0v90.003h512v-90.003h-46.972V278.037H512z M165.01,421.625h-61.004V278.037h61.004V421.625z M284.017,421.625h-59.004V278.037h59.004V421.625z M253.791,130.975h4.418 c19.17,0,34.767,15.597,34.767,34.767c0,14.939-9.473,27.705-22.726,32.614v20.4h-28.5v-20.4 c-13.253-4.909-22.726-17.676-22.726-32.614h28.5c0,3.455,2.812,6.267,6.267,6.267h4.418c3.455,0,6.267-2.812,6.267-6.267 s-2.812-6.267-6.267-6.267h-4.418c-19.17,0-34.767-15.597-34.767-34.767c0-14.939,9.473-27.705,22.726-32.614v-20.4h28.5v20.4 c13.253,4.909,22.726,17.675,22.726,32.614h-28.5c0-3.455-2.812-6.267-6.267-6.267h-4.418c-3.455,0-6.267,2.812-6.267,6.267 C247.524,128.163,250.336,130.975,253.791,130.975z M405.025,421.625h-61.004V278.037h61.004V421.625z" fill="#000000" style="fill: rgb(255, 255, 255);"></path></g></g></svg>