<!-- icon666.com - MILLIONS vector ICONS FREE --><svg version="1.1" id="Capa_1" xmlns="http://www.w3.org/2000/svg" xmlns:xlink="http://www.w3.org/1999/xlink" x="0px" y="0px" viewBox="0 0 311.748 311.748" style="enable-background:new 0 0 311.748 311.748;" xml:space="preserve"><g><path d="M280.377,130.339c-1.193-0.678-2.612-0.836-3.925-0.438L159.02,165.582c-0.943,0.287-1.921,0.432-2.905,0.432 c-2.672,0-5.184-1.04-7.072-2.93c-2.615-2.615-3.572-6.439-2.497-9.978l35.842-117.965c0.397-1.308,0.242-2.721-0.43-3.911 c-0.672-1.19-1.801-2.054-3.126-2.39c-11.554-2.93-23.45-4.415-35.359-4.415C64.361,24.426,0,88.787,0,167.897 c0,79.11,64.361,143.472,143.472,143.472c79.11,0,143.472-64.361,143.472-143.472c0-11.561-1.407-23.137-4.184-34.408 C282.432,132.157,281.57,131.018,280.377,130.339z" fill="#000000" style="fill: rgb(255, 255, 255);"></path><path d="M311.38,92.683c-16.896-41.531-50.405-75.041-91.939-91.936c-1.3-0.529-2.765-0.487-4.035,0.118 c-1.269,0.604-2.225,1.715-2.633,3.06l-38.925,128.115c-0.536,1.766-0.057,3.684,1.249,4.989c0.951,0.952,2.229,1.464,3.536,1.464 c0.485,0,0.975-0.071,1.452-0.216l128.115-38.927c1.345-0.409,2.456-1.364,3.061-2.633C311.866,95.45,311.909,93.985,311.38,92.683 z" fill="#000000" style="fill: rgb(255, 255, 255);"></path></g></svg>