<svg width="139" height="112" viewBox="0 0 139 112" fill="none" xmlns="http://www.w3.org/2000/svg">
<path opacity="0.5" d="M9.90971 55.7148C4.43773 55.7148 0 58.2164 0 61.3049C0 64.3935 4.43773 66.895 9.90971 66.895C15.3817 66.895 19.8194 64.3935 19.8194 61.3049C19.8194 58.2164 15.3817 55.7148 9.90971 55.7148Z" fill="#29969B"/>
<path opacity="0.5" d="M69.0516 90.1962C63.2946 90.1962 58.63 92.8299 58.63 96.0718C58.63 99.319 63.2946 101.947 69.0516 101.947C74.8085 101.947 79.4731 99.3137 79.4731 96.0718C79.4678 92.8246 74.8032 90.1962 69.0516 90.1962Z" fill="#29969B"/>
<path opacity="0.5" d="M44.8365 77.0808C41.0056 77.0808 37.9029 78.8313 37.9029 80.9944C37.9029 83.1521 41.0056 84.908 44.8365 84.908C48.6674 84.908 51.7701 83.1574 51.7701 80.9944C51.7701 78.8313 48.6674 77.0808 44.8365 77.0808Z" fill="#29969B"/>
<path opacity="0.5" d="M87.9686 67.2599C82.085 67.2599 77.3096 69.9518 77.3096 73.273C77.3096 76.5943 82.0797 79.2862 87.9686 79.2862C93.8521 79.2862 98.6276 76.5943 98.6276 73.273C98.6223 69.9518 93.8521 67.2599 87.9686 67.2599Z" fill="#29969B"/>
<path opacity="0.5" d="M131.364 83.1787L103.862 67.3076L109.049 64.309L136.546 80.1801L131.364 83.1787Z" fill="#29969B"/>
<path opacity="0.5" d="M22.2204 69.7986L32.6841 63.8647L29.6658 62.1195L19.2073 68.0533L22.2204 69.7986Z" fill="#29969B"/>
<path d="M105.957 20.593L113.497 9.99988L120.479 28.9966L116.848 26.897V63.6529L109.587 59.4485V22.6926L105.957 20.593Z" fill="#D83030"/>
<path d="M116.848 70.1316L114.052 71.6864V28.452L116.848 26.8971V70.1316Z" fill="#D83030"/>
<path d="M103.16 22.1529L110.701 11.5598L117.682 30.5513L114.051 28.4517V71.6861L106.791 67.487V24.2525L103.16 22.1529Z" fill="#E93B3B"/>
<path d="M110.701 11.56L113.497 9.99988L120.478 28.9966L117.682 30.5515L110.701 11.56Z" fill="#FF5252"/>
<path d="M18.2206 58.174H17.0017C15.5084 56.7726 12.7961 55.8312 9.68283 55.8312C6.57484 55.8312 3.85733 56.7726 2.36929 58.174H1.15036V60.6438C1.15036 61.0775 1.26118 61.4953 1.45114 61.8919V58.449H1.78357V62.4525C1.89966 62.6165 2.03158 62.7751 2.17933 62.9285V59.3851H2.51176V63.2405C2.66478 63.378 2.83364 63.505 3.00777 63.6319V60.2578H3.34021V63.8487C4.06312 64.3035 4.93378 64.679 5.90997 64.9488V61.289H6.24241V65.0387C6.4271 65.0863 6.61178 65.1233 6.80174 65.1603V61.6116H7.13418V65.2291C7.29776 65.2555 7.46661 65.2766 7.63019 65.3031V61.9448H7.96262V65.3507C8.52196 65.4142 9.09712 65.4512 9.69339 65.4512C10.2211 65.4512 10.7382 65.4194 11.2395 65.3666V61.4741H11.5719V65.3295C11.7882 65.3031 12.0046 65.2714 12.2157 65.2343V61.6116H12.5481V65.1656C12.7433 65.1286 12.9386 65.0863 13.1285 65.0387V61.416H13.461V64.9488C14.4266 64.679 15.292 64.3141 16.0096 63.8646V60.2472H16.3421V63.653C16.5215 63.5314 16.6851 63.3992 16.8381 63.267V59.3746H17.1705V62.9602C17.313 62.8122 17.4449 62.6641 17.5663 62.5107V58.4438H17.8987V61.9713C18.1151 61.5482 18.2417 61.0986 18.2417 60.6332V58.174H18.2206Z" fill="#FAB234"/>
<path d="M1.44579 58.4591V61.902C1.53549 62.0977 1.6463 62.2828 1.77822 62.4679V58.4644H1.44579V58.4591Z" fill="#F79826"/>
<path d="M2.16884 59.3901V62.9334C2.2691 63.0392 2.38519 63.1397 2.50128 63.2402V59.3848H2.16884V59.3901Z" fill="#F79826"/>
<path d="M2.99722 60.2627V63.6368C3.10275 63.7109 3.21356 63.7849 3.32964 63.8537V60.2627H2.99722Z" fill="#F79826"/>
<path d="M17.5453 58.4591V62.526C17.6773 62.3515 17.7828 62.1717 17.8778 61.9866V58.4591H17.5453Z" fill="#F79826"/>
<path d="M16.8223 59.3899V63.2823C16.9384 63.1818 17.0492 63.0814 17.1547 62.9756V59.3899H16.8223Z" fill="#F79826"/>
<path d="M15.9939 60.2627V63.8801C16.1047 63.8114 16.2208 63.7426 16.3263 63.6686V60.2627H15.9939Z" fill="#F79826"/>
<path d="M5.89959 61.3043V64.964C6.01039 64.9958 6.1212 65.0275 6.23201 65.054V61.3043H5.89959Z" fill="#F79826"/>
<path d="M6.79122 61.6276V65.1762C6.90203 65.1974 7.00757 65.2238 7.12366 65.245V61.6276H6.79122Z" fill="#F79826"/>
<path d="M7.61959 61.9548V65.3131C7.7304 65.329 7.84121 65.3501 7.95202 65.3607V61.9548H7.61959Z" fill="#F79826"/>
<path d="M11.2288 61.4895V65.3819C11.3396 65.3714 11.4504 65.3555 11.5612 65.3449V61.4895H11.2288Z" fill="#F79826"/>
<path d="M12.1999 61.6276V65.2503C12.3107 65.2291 12.4215 65.2027 12.5323 65.1815V61.6276H12.1999Z" fill="#F79826"/>
<path d="M13.1127 61.4366V65.0594C13.2235 65.0329 13.3343 65.0012 13.4451 64.9694V61.4366H13.1127Z" fill="#F79826"/>
<path d="M9.68294 53.3612C4.97081 53.3612 1.14518 55.519 1.14518 58.1791C1.14518 60.8393 4.96553 62.9971 9.68294 62.9971C14.4003 62.9971 18.2207 60.8393 18.2207 58.1791C18.2207 55.519 14.3951 53.3612 9.68294 53.3612Z" fill="#FFC943"/>
<path d="M9.68294 54.3502C5.93646 54.3502 2.89706 56.0637 2.89706 58.1792C2.89706 60.2946 5.93646 62.0081 9.68294 62.0081C13.4294 62.0081 16.4688 60.2946 16.4688 58.1792C16.4688 56.0637 13.4294 54.3502 9.68294 54.3502Z" fill="#FDDB6F"/>
<path d="M9.68277 54.9375C6.56949 54.9375 4.04722 56.3601 4.04722 58.116C4.04722 59.8718 6.56949 61.2944 9.68277 61.2944C12.796 61.2944 15.3183 59.8718 15.3183 58.116C15.3183 56.3601 12.796 54.9375 9.68277 54.9375Z" fill="#FFE499"/>
<path d="M9.68283 55.2654C6.96003 55.2654 4.74909 56.5135 4.74909 58.0472C4.74909 59.5862 6.96003 60.829 9.68283 60.829C12.4056 60.829 14.6166 59.5809 14.6166 58.0472C14.6166 56.5135 12.4056 55.2654 9.68283 55.2654Z" fill="#FDDB6F"/>
<path d="M9.68304 55.7465C7.57234 55.7465 5.86269 56.7143 5.86269 57.9042C5.86269 59.0942 7.57234 60.062 9.68304 60.062C11.7937 60.062 13.5034 59.0942 13.5034 57.9042C13.5034 56.709 11.7937 55.7465 9.68304 55.7465Z" fill="#FFE499"/>
<path d="M9.68287 62.109C5.88362 62.109 2.79145 60.3426 2.79145 58.1742C2.79145 56.0059 5.88362 54.2395 9.68287 54.2395C13.4821 54.2395 16.5743 56.0059 16.5743 58.1742C16.5743 60.3479 13.4821 62.109 9.68287 62.109ZM9.68287 54.4563C5.9997 54.4563 3.00252 56.1275 3.00252 58.1795C3.00252 60.2315 5.9997 61.9027 9.68287 61.9027C13.366 61.9027 16.3632 60.2315 16.3632 58.1795C16.3632 56.1223 13.366 54.4563 9.68287 54.4563Z" fill="#F4A300"/>
<path d="M10.2368 57.814L4.90199 60.8655L4.59066 60.6857L9.92544 57.6342L10.2368 57.814Z" fill="#F79826"/>
<path d="M10.7907 58.7188L8.8964 59.8135L8.62201 59.6178L10.4794 58.5389L10.7907 58.7188Z" fill="#F79826"/>
<path d="M9.83061 55.7886L8.28452 56.6824L8.00486 56.4867L9.57204 55.577L9.83061 55.7886Z" fill="#F79826"/>
<path d="M9.33436 62.0611L9.03359 59.6283L8.62201 59.6124L8.9175 62.0135C9.05469 62.0346 9.19717 62.0452 9.33436 62.0611Z" fill="#F79826"/>
<path d="M11.1655 61.955L10.9228 59.977L10.5112 59.9612L10.7592 61.955C10.8911 61.9497 11.0283 61.9603 11.1655 61.955Z" fill="#F79826"/>
<path d="M9.60362 55.815L15.1917 56.0477L14.8856 55.7991L9.57196 55.577L9.60362 55.815Z" fill="#F79826"/>
<path d="M8.15784 61.8759L8.04703 60.9187L7.64072 60.9346L7.74098 61.8072C7.88345 61.8283 8.02064 61.8495 8.15784 61.8759Z" fill="#F79826"/>
<path d="M7.26625 60.4008C7.0499 60.5277 7.07628 60.7498 7.32956 60.8926C7.58285 61.0407 7.96277 61.0565 8.17912 60.9296C8.39546 60.8027 8.36908 60.5806 8.1158 60.4378C7.86252 60.2897 7.48259 60.2738 7.26625 60.4008ZM7.9786 60.8133C7.85723 60.882 7.64089 60.8767 7.49841 60.7921C7.35594 60.7128 7.34011 60.5859 7.46676 60.5171C7.58812 60.4484 7.80447 60.4536 7.94694 60.5383C8.08413 60.6176 8.09996 60.7392 7.9786 60.8133Z" fill="#F79826"/>
<path d="M11.2975 55.096L13.9095 55.1965L13.4398 54.9426L11.3186 54.858L11.2975 55.096Z" fill="#F79826"/>
<path d="M10.4004 54.6412C10.6168 54.5143 10.9967 54.5302 11.25 54.6783C11.5033 54.8263 11.5297 55.0432 11.3133 55.1701C11.097 55.297 10.717 55.2812 10.4638 55.1331C10.2105 54.985 10.1841 54.7682 10.4004 54.6412ZM11.1128 55.0537C11.2342 54.985 11.2183 54.8581 11.0811 54.7787C10.9387 54.6994 10.7276 54.6888 10.601 54.7576C10.4796 54.8263 10.4954 54.9533 10.6326 55.0326C10.7751 55.1119 10.9914 55.1225 11.1128 55.0537Z" fill="#F79826"/>
<path d="M7.41916 56.4762C7.20281 56.6031 7.22919 56.8252 7.48247 56.968C7.73576 57.1161 8.11569 57.132 8.33203 57.0051C8.54838 56.8781 8.522 56.656 8.26871 56.5132C8.02071 56.3651 7.6355 56.3493 7.41916 56.4762ZM8.13152 56.8887C8.01016 56.9575 7.79381 56.9522 7.65133 56.8675C7.50886 56.7882 7.49303 56.6613 7.61439 56.5925C7.73576 56.5238 7.95211 56.5291 8.09458 56.6137C8.23705 56.693 8.25289 56.82 8.13152 56.8887Z" fill="#F79826"/>
<path d="M10.4637 58.2002C10.2474 58.3271 10.2737 58.5492 10.527 58.692C10.7803 58.8401 11.1602 58.856 11.3766 58.7291C11.5929 58.6021 11.5665 58.38 11.3133 58.2372C11.0652 58.0891 10.6853 58.0733 10.4637 58.2002ZM11.1761 58.6127C11.0547 58.6815 10.8383 58.6762 10.6959 58.5915C10.5534 58.5122 10.5376 58.3853 10.6642 58.3165C10.7856 58.2478 11.0019 58.2531 11.1444 58.3377C11.2869 58.417 11.2974 58.5387 11.1761 58.6127Z" fill="#F79826"/>
<path d="M11.4134 57.28L9.94649 58.1315L9.41354 57.8247L10.8805 56.9733L11.4134 57.28Z" fill="#F79826"/>
<path d="M8.00482 57.9939L4.07366 60.268L3.81509 60.0618L7.6935 57.8141L8.00482 57.9939Z" fill="#F79826"/>
<path d="M9.477 57.2748L8.0048 58.1263L7.47185 57.8142L8.94406 56.9628L9.477 57.2748Z" fill="#F79826"/>
<path d="M12.2419 59.3002L10.8014 60.1517L10.5112 59.9613L11.9359 59.1204L12.2419 59.3002Z" fill="#F79826"/>
<path d="M13.7143 58.5811L12.2474 59.4325L11.7144 59.1205L13.1813 58.269L13.7143 58.5811Z" fill="#F79826"/>
<path d="M9.49811 54.3502L6.84919 55.8839L7.16051 56.0637L10.1049 54.3608C9.94135 54.3291 9.66168 54.3714 9.49811 54.3502Z" fill="#F79826"/>
<path d="M5.37697 56.6032L6.84918 55.7517L7.38214 56.0637L5.90992 56.9099L5.37697 56.6032Z" fill="#F79826"/>
<path d="M20.7376 53.5094H19.5187C18.0254 52.1079 15.3131 51.1665 12.1999 51.1665C9.09186 51.1665 6.37434 52.1079 4.8863 53.5094H3.66737V55.9791C3.66737 56.4128 3.77819 56.8306 3.96815 57.2273V53.7844H4.30058V57.7879C4.41667 57.9518 4.54859 58.1105 4.69634 58.2638V54.7205H5.02877V58.5759C5.1818 58.7134 5.35066 58.8403 5.52479 58.9672V55.5931H5.85722V59.1841C6.58013 59.6389 7.4508 60.0144 8.42699 60.2841V56.6244H8.75942V60.374C8.94411 60.4216 9.1288 60.4586 9.31876 60.4956V56.947H9.65119V60.5644C9.81477 60.5908 9.98363 60.612 10.1472 60.6384V57.2801H10.4796V60.686C11.039 60.7495 11.6141 60.7865 12.2104 60.7865C12.7381 60.7865 13.2552 60.7548 13.7565 60.7019V56.8095H14.0889V60.6649C14.3053 60.6384 14.5216 60.6067 14.7327 60.5697V56.947H15.0651V60.5009C15.2604 60.4639 15.4556 60.4216 15.6456 60.374V56.7513H15.978V60.2841C16.9436 60.0144 17.809 59.6495 18.5267 59.1999V55.5825H18.8591V58.9884C19.0385 58.8667 19.2021 58.7345 19.3551 58.6023V54.7099H19.6875V58.2956C19.83 58.1475 19.9619 57.9994 20.0833 57.846V53.7791H20.4157V57.3066C20.6321 56.8835 20.7587 56.434 20.7587 55.9686V53.5094H20.7376Z" fill="#FAB234"/>
<path d="M3.96276 53.7893V57.2322C4.05247 57.4279 4.16328 57.613 4.2952 57.7981V53.7946H3.96276V53.7893Z" fill="#F79826"/>
<path d="M4.69104 54.7254V58.2688C4.79129 58.3745 4.90739 58.475 5.02348 58.5755V54.7201H4.69104V54.7254Z" fill="#F79826"/>
<path d="M5.51941 55.5981V58.9723C5.62494 59.0463 5.73575 59.1204 5.85183 59.1891V55.5981H5.51941Z" fill="#F79826"/>
<path d="M20.0623 53.7893V57.8563C20.1942 57.6817 20.2997 57.5019 20.3947 57.3168V53.7893H20.0623Z" fill="#F79826"/>
<path d="M19.3393 54.7253V58.6178C19.4553 58.5173 19.5662 58.4168 19.6717 58.311V54.7253H19.3393Z" fill="#F79826"/>
<path d="M18.5109 55.5981V59.2156C18.6217 59.1468 18.7378 59.0781 18.8433 59.004V55.5981H18.5109Z" fill="#F79826"/>
<path d="M8.41656 56.6351V60.2948C8.52737 60.3266 8.63819 60.3583 8.749 60.3848V56.6351H8.41656Z" fill="#F79826"/>
<path d="M9.30819 56.9572V60.5058C9.419 60.527 9.52454 60.5534 9.64063 60.5746V56.9572H9.30819Z" fill="#F79826"/>
<path d="M10.1366 57.2856V60.6439C10.2474 60.6598 10.3529 60.6809 10.469 60.6915V57.2856H10.1366Z" fill="#F79826"/>
<path d="M13.746 56.8202V60.7126C13.8568 60.702 13.9676 60.6862 14.0785 60.6756V56.8202H13.746Z" fill="#F79826"/>
<path d="M14.7169 56.9572V60.5799C14.8277 60.5587 14.9385 60.5323 15.0493 60.5111V56.9572H14.7169Z" fill="#F79826"/>
<path d="M15.6297 56.7668V60.3896C15.7405 60.3631 15.8513 60.3314 15.9621 60.2997V56.7668H15.6297Z" fill="#F79826"/>
<path d="M12.2 48.6915C7.48786 48.6915 3.66223 50.8493 3.66223 53.5095C3.66223 56.1696 7.48259 58.3274 12.2 58.3274C16.9174 58.3274 20.7378 56.1696 20.7378 53.5095C20.7378 50.8493 16.9174 48.6915 12.2 48.6915Z" fill="#FFC943"/>
<path d="M12.2 49.6804C8.45347 49.6804 5.41407 51.3939 5.41407 53.5094C5.41407 55.6248 8.45347 57.3383 12.2 57.3383C15.9464 57.3383 18.9858 55.6248 18.9858 53.5094C18.9858 51.3939 15.9464 49.6804 12.2 49.6804Z" fill="#FDDB6F"/>
<path d="M12.1998 50.2676C9.0865 50.2676 6.56423 51.6902 6.56423 53.446C6.56423 55.2019 9.0865 56.6245 12.1998 56.6245C15.3131 56.6245 17.8353 55.2019 17.8353 53.446C17.8353 51.6902 15.3131 50.2676 12.1998 50.2676Z" fill="#FFE499"/>
<path d="M12.1999 50.5955C9.47705 50.5955 7.2661 51.8436 7.2661 53.3773C7.2661 54.9163 9.47705 56.1591 12.1999 56.1591C14.9227 56.1591 17.1336 54.911 17.1336 53.3773C17.1336 51.8436 14.9227 50.5955 12.1999 50.5955Z" fill="#FDDB6F"/>
<path d="M12.2 51.0765C10.0894 51.0765 8.3797 52.0444 8.3797 53.2343C8.3797 54.4242 10.0894 55.3921 12.2 55.3921C14.3107 55.3921 16.0204 54.4242 16.0204 53.2343C16.0204 52.0391 14.3107 51.0765 12.2 51.0765Z" fill="#FFE499"/>
<path d="M12.1999 57.4442C8.40062 57.4442 5.30846 55.6778 5.30846 53.5094C5.30846 51.3411 8.40062 49.5747 12.1999 49.5747C15.9991 49.5747 19.0913 51.3411 19.0913 53.5094C19.0913 55.6778 15.9991 57.4442 12.1999 57.4442ZM12.1999 49.7863C8.51671 49.7863 5.51953 51.4575 5.51953 53.5094C5.51953 55.5614 8.51671 57.2326 12.1999 57.2326C15.883 57.2326 18.8802 55.5614 18.8802 53.5094C18.8802 51.4575 15.883 49.7863 12.1999 49.7863Z" fill="#F4A300"/>
<path d="M12.754 53.1439L7.41925 56.2007L7.10793 56.0209L12.4427 52.9641L12.754 53.1439Z" fill="#F79826"/>
<path d="M13.3077 54.0486L11.4186 55.1433L11.139 54.9476L12.9964 53.8688L13.3077 54.0486Z" fill="#F79826"/>
<path d="M12.3476 51.1185L10.8015 52.0176L10.5218 51.8166L12.0943 50.907L12.3476 51.1185Z" fill="#F79826"/>
<path d="M11.8513 57.3963L11.5506 54.9635L11.139 54.9476L11.4345 57.3487C11.577 57.3645 11.7142 57.3751 11.8513 57.3963Z" fill="#F79826"/>
<path d="M13.6825 57.285L13.4397 55.307L13.0281 55.2911L13.2762 57.285C13.4081 57.285 13.5453 57.2902 13.6825 57.285Z" fill="#F79826"/>
<path d="M12.1208 51.145L17.7089 51.3777L17.4028 51.1291L12.0944 50.907L12.1208 51.145Z" fill="#F79826"/>
<path d="M10.6748 57.2059L10.564 56.2487L10.1577 56.2645L10.258 57.1372C10.4004 57.1583 10.5376 57.1847 10.6748 57.2059Z" fill="#F79826"/>
<path d="M9.78321 55.7307C9.56687 55.8576 9.59326 56.0798 9.84654 56.2225C10.0998 56.3706 10.4797 56.3865 10.6961 56.2596C10.9124 56.1326 10.886 55.9105 10.6328 55.7677C10.3795 55.6197 9.99956 55.6038 9.78321 55.7307ZM10.4956 56.1432C10.3742 56.212 10.1579 56.2067 10.0154 56.1221C9.87292 56.0427 9.85709 55.9158 9.98373 55.8471C10.1051 55.7783 10.3214 55.7836 10.4639 55.8682C10.6011 55.9475 10.6169 56.0745 10.4956 56.1432Z" fill="#F79826"/>
<path d="M13.8144 50.426L16.4264 50.5265L15.9568 50.2726L13.8408 50.188L13.8144 50.426Z" fill="#F79826"/>
<path d="M12.9228 49.9712C13.1391 49.8443 13.5191 49.8601 13.7723 50.0082C14.0256 50.1563 14.052 50.3731 13.8357 50.5C13.6193 50.627 13.2394 50.6111 12.9861 50.463C12.7275 50.3202 12.7012 50.0981 12.9228 49.9712ZM13.6299 50.3837C13.7512 50.3149 13.7354 50.188 13.5929 50.1087C13.4505 50.0294 13.2394 50.0188 13.1127 50.0875C12.9914 50.1563 13.0072 50.2832 13.1497 50.3625C13.2974 50.4472 13.5085 50.4525 13.6299 50.3837Z" fill="#F79826"/>
<path d="M9.93613 51.8063C9.71978 51.9332 9.74616 52.1553 9.99945 52.2981C10.2527 52.4462 10.6327 52.462 10.849 52.3351C11.0654 52.2082 11.039 51.9861 10.7857 51.8433C10.5377 51.7005 10.1578 51.6846 9.93613 51.8063ZM10.6485 52.2188C10.5271 52.2875 10.3108 52.2822 10.1683 52.1976C10.0258 52.1183 10.01 51.9914 10.1366 51.9226C10.258 51.8539 10.4744 51.8591 10.6168 51.9438C10.754 52.0284 10.7699 52.15 10.6485 52.2188Z" fill="#F79826"/>
<path d="M12.9859 53.5302C12.7695 53.6571 12.7959 53.8792 13.0492 54.022C13.3025 54.1701 13.6824 54.1859 13.8988 54.059C14.1151 53.9321 14.0887 53.71 13.8355 53.5672C13.5822 53.4191 13.2022 53.4032 12.9859 53.5302ZM13.693 53.9427C13.5716 54.0114 13.3553 54.0061 13.2128 53.9215C13.0703 53.8422 13.0545 53.7153 13.1811 53.6465C13.3025 53.5777 13.5188 53.583 13.6613 53.6677C13.8038 53.747 13.8196 53.8739 13.693 53.9427Z" fill="#F79826"/>
<path d="M13.9304 52.6152L12.4635 53.4614L11.9305 53.1547L13.3974 52.3032L13.9304 52.6152Z" fill="#F79826"/>
<path d="M10.5218 53.3296L6.59063 55.5984L6.33207 55.3922L10.2105 53.1498L10.5218 53.3296Z" fill="#F79826"/>
<path d="M11.994 52.6047L10.5218 53.4562L9.98882 53.1442L11.461 52.298L11.994 52.6047Z" fill="#F79826"/>
<path d="M14.7642 54.6359L13.3184 55.4821L13.0281 55.2969L14.4529 54.4561L14.7642 54.6359Z" fill="#F79826"/>
<path d="M16.2365 53.911L14.7643 54.7624L14.2314 54.4504L15.7036 53.6042L16.2365 53.911Z" fill="#F79826"/>
<path d="M12.0151 49.6802L9.36616 51.2139L9.67749 51.3937L12.6219 49.6907C12.4636 49.659 12.1839 49.7013 12.0151 49.6802Z" fill="#F79826"/>
<path d="M7.89394 51.9331L9.36615 51.0817L9.8991 51.3937L8.4269 52.2452L7.89394 51.9331Z" fill="#F79826"/>
<path d="M29.6554 52.0343L29.9614 51.3468L28.199 50.2732V50.2784C27.8349 50.0722 27.4339 49.9506 27.0012 49.9188L29.6607 51.4578L29.286 51.6746L26.3047 49.9506C26.0619 49.9823 25.8192 50.0352 25.5659 50.1198L28.6423 51.8968L28.2676 52.1136L25.1227 50.2943C24.938 50.3789 24.748 50.4688 24.5581 50.5799C24.5317 50.5958 24.5053 50.6169 24.4789 50.6328L27.7927 52.5526L27.4181 52.7694L24.1254 50.8655C23.4922 51.2939 22.8906 51.8439 22.3366 52.4838L25.5343 54.3348L25.1596 54.5517L22.0991 52.78C21.9883 52.9122 21.8828 53.0497 21.7772 53.1925L24.5106 54.7738L24.1359 54.9906L21.5556 53.4992C21.4395 53.6685 21.3287 53.8377 21.2179 54.0122L23.661 55.4243L23.2864 55.6411L21.0174 54.3295C20.4475 55.2815 19.9726 56.3286 19.619 57.4075L23.0436 59.3907L22.669 59.6076L19.5082 57.7777C19.4607 57.9417 19.4132 58.1056 19.371 58.2696L22.8326 60.2739L22.4579 60.4908L19.2813 58.6503C19.2338 58.8619 19.1916 59.0787 19.1547 59.2903L22.4527 61.1994L22.078 61.4163L19.0861 59.6869C19.0069 60.2369 18.9647 60.7816 18.9647 61.3158C18.9647 61.6014 18.9806 61.8764 19.0017 62.1408L22.7693 64.3197L22.3946 64.5366L19.0597 62.6062C19.0966 62.8548 19.1441 63.0875 19.2022 63.3149L22.7693 65.3775L22.3946 65.5943L19.3658 63.8438C19.4924 64.1928 19.6454 64.5048 19.8248 64.7851L23.1175 66.689L22.7429 66.9059L20.7746 65.7635C20.7799 65.7688 20.7852 65.7741 20.7905 65.7741L20.7852 65.7847L22.9962 67.1015L23.4658 66.0438C23.8193 65.9328 24.1887 65.7741 24.5633 65.5573C27.6555 63.7697 30.162 58.9677 30.162 54.832C30.1567 53.7213 29.972 52.7905 29.6554 52.0343Z" fill="#FAB234"/>
<path d="M29.6606 51.4574L27.0011 49.9185C26.7795 49.9026 26.542 49.9185 26.3046 49.9502L29.286 51.6743L29.6606 51.4574Z" fill="#F79826"/>
<path d="M28.6369 51.8911L25.5605 50.1141C25.4128 50.1617 25.265 50.2252 25.1173 50.2887L28.2622 52.108L28.6369 51.8911Z" fill="#F79826"/>
<path d="M27.7874 52.5417L24.4736 50.6219C24.3522 50.6907 24.2361 50.77 24.12 50.8494L27.4127 52.7533L27.7874 52.5417Z" fill="#F79826"/>
<path d="M22.7639 64.3035L18.9963 62.1246C19.0121 62.2886 19.0332 62.442 19.0596 62.5953L22.3945 64.5257L22.7639 64.3035Z" fill="#F79826"/>
<path d="M22.7639 65.3611L19.1968 63.2986C19.2443 63.4837 19.3023 63.6582 19.3604 63.8274L22.3892 65.578L22.7639 65.3611Z" fill="#F79826"/>
<path d="M23.1121 66.673L19.8194 64.769C20.0833 65.1763 20.3999 65.5095 20.764 65.7474L22.7322 66.8898L23.1121 66.673Z" fill="#F79826"/>
<path d="M25.5288 54.3242L22.3311 52.4731C22.2467 52.5683 22.1728 52.6688 22.0884 52.7693L25.1489 54.541L25.5288 54.3242Z" fill="#F79826"/>
<path d="M24.5052 54.7629L21.7718 53.1816C21.6979 53.2821 21.6241 53.3826 21.5502 53.4884L24.1305 54.9798L24.5052 54.7629Z" fill="#F79826"/>
<path d="M23.6556 55.413L21.2125 54.001C21.1439 54.1067 21.0753 54.2072 21.012 54.3183L23.281 55.6299L23.6556 55.413Z" fill="#F79826"/>
<path d="M23.0383 59.3743L19.6137 57.3911C19.5715 57.5128 19.5398 57.6397 19.5029 57.7613L22.6637 59.5912L23.0383 59.3743Z" fill="#F79826"/>
<path d="M22.8272 60.2578L19.3657 58.2534C19.334 58.3803 19.3024 58.5073 19.276 58.6342L22.4526 60.4747L22.8272 60.2578Z" fill="#F79826"/>
<path d="M22.4421 61.1834L19.1441 59.2742C19.123 59.4064 19.0966 59.5386 19.0755 59.6655L22.0674 61.3949L22.4421 61.1834Z" fill="#F79826"/>
<path d="M20.7798 62.4104C20.7798 66.5408 23.2863 68.4447 26.3785 66.6518C29.4706 64.8643 31.9771 60.0622 31.9771 55.9265C31.9771 51.7908 29.4706 49.8922 26.3785 51.6851C23.2863 53.4726 20.7798 58.2747 20.7798 62.4104Z" fill="#FFC943"/>
<path d="M21.809 61.9554C21.809 65.393 23.8933 66.9743 26.4684 65.4882C29.0434 63.9968 31.1277 60.0039 31.1277 56.561C31.1277 53.1234 29.0434 51.5421 26.4684 53.0282C23.8986 54.5249 21.809 58.5178 21.809 61.9554Z" fill="#FDDB6F"/>
<path d="M22.3628 61.7387C22.3205 64.822 24.1357 66.2129 26.4258 64.8431C28.7159 63.4734 30.605 59.8613 30.6525 56.778C30.6947 53.6947 28.8795 52.3038 26.5894 53.6736C24.2993 55.0433 22.4102 58.6555 22.3628 61.7387Z" fill="#FFE499"/>
<path d="M22.8218 61.5691C22.7427 64.3509 24.331 65.5779 26.3784 64.3139C28.4257 63.0499 30.146 59.771 30.2251 56.9892C30.3043 54.2073 28.716 52.9804 26.6686 54.2444C24.6265 55.5083 22.9063 58.7873 22.8218 61.5691Z" fill="#FDDB6F"/>
<path d="M23.4498 61.3047C23.3759 63.6582 24.711 64.6895 26.4417 63.6159C28.1672 62.5423 29.6289 59.7605 29.708 57.4123C29.7819 55.0589 28.4469 54.0276 26.7161 55.1012C24.9854 56.1748 23.5237 58.9513 23.4498 61.3047Z" fill="#FFE499"/>
<path d="M27.0117 59.2162L21.7086 62.2572V61.8975L27.0117 58.8566V59.2162Z" fill="#F79826"/>
<path d="M26.5105 60.7343L24.6162 61.829L24.6478 61.4535L26.5105 60.3746V60.7343Z" fill="#F79826"/>
<path d="M28.5577 56.0643L27.0117 56.9581L27.0486 56.5826L28.6158 55.673L28.5577 56.0643Z" fill="#F79826"/>
<path d="M22.8907 65.3299L24.8378 61.5962L24.6478 61.4534L22.7218 65.1395C22.7798 65.203 22.8379 65.2665 22.8907 65.3299Z" fill="#F79826"/>
<path d="M23.7824 65.9223L25.4868 62.6645L25.2968 62.5217L23.5766 65.8165C23.6399 65.8536 23.7138 65.8906 23.7824 65.9223Z" fill="#F79826"/>
<path d="M28.4259 56.0379L31.0167 58.0053L31.0801 57.5399L28.6158 55.673L28.4259 56.0379Z" fill="#F79826"/>
<path d="M22.4633 64.7116L23.239 63.2413L23.0226 63.1461L22.3208 64.4789C22.3683 64.5529 22.4158 64.6322 22.4633 64.7116Z" fill="#F79826"/>
<path d="M23.2916 62.236C23.0753 62.363 22.8959 62.7014 22.8959 62.9923C22.8959 63.2832 23.0753 63.4154 23.2916 63.2938C23.508 63.1668 23.6874 62.8284 23.6874 62.5375C23.6874 62.2466 23.5133 62.1144 23.2916 62.236ZM23.2916 63.0611C23.1703 63.1298 23.07 63.0558 23.07 62.8918C23.07 62.7279 23.1703 62.5375 23.2916 62.4687C23.413 62.4 23.5133 62.474 23.5133 62.638C23.5133 62.8019 23.413 62.9923 23.2916 63.0611Z" fill="#F79826"/>
<path d="M29.8929 55.4457L31.1118 56.3501L31.096 55.8371L30.1092 55.1019L29.8929 55.4457Z" fill="#F79826"/>
<path d="M29.84 54.5042C30.0564 54.3773 30.2358 54.5095 30.2358 54.8056C30.2358 55.0965 30.0564 55.435 29.84 55.5619C29.6237 55.6888 29.4443 55.5566 29.4443 55.2605C29.4443 54.9696 29.6184 54.6311 29.84 54.5042ZM29.84 55.3292C29.9614 55.2605 30.0617 55.0701 30.0617 54.9061C30.0617 54.7422 29.9614 54.6681 29.84 54.7369C29.7187 54.8056 29.6184 54.996 29.6184 55.16C29.6184 55.3239 29.7187 55.398 29.84 55.3292Z" fill="#F79826"/>
<path d="M26.7584 56.3976C26.542 56.5245 26.3626 56.863 26.3626 57.1538C26.3626 57.4447 26.5367 57.5769 26.7584 57.4553C26.9747 57.3284 27.1541 56.9899 27.1541 56.699C27.1541 56.4082 26.98 56.2707 26.7584 56.3976ZM26.7584 57.2226C26.637 57.2914 26.5367 57.2173 26.5367 57.0534C26.5367 56.8894 26.637 56.699 26.7584 56.6303C26.8797 56.5615 26.98 56.6356 26.98 56.7995C26.98 56.9635 26.8797 57.1539 26.7584 57.2226Z" fill="#F79826"/>
<path d="M26.7955 59.8614C26.5791 59.9883 26.3997 60.3268 26.3997 60.6177C26.3997 60.9086 26.5739 61.0408 26.7955 60.9191C27.0118 60.7922 27.1912 60.4537 27.1912 60.1629C27.1912 59.872 27.0118 59.7398 26.7955 59.8614ZM26.7955 60.6864C26.6741 60.7552 26.5739 60.6812 26.5739 60.5172C26.5739 60.3533 26.6741 60.1629 26.7955 60.0941C26.9169 60.0254 27.0171 60.0994 27.0171 60.2633C27.0171 60.4273 26.9169 60.6177 26.7955 60.6864Z" fill="#F79826"/>
<path d="M28.0617 58.7615L26.5947 59.6129V58.9942L28.0617 58.1427V58.7615Z" fill="#F79826"/>
<path d="M25.7402 58.8464L21.809 61.1206L21.8617 60.7292L25.7402 58.4868V58.8464Z" fill="#F79826"/>
<path d="M27.1016 58.1853L25.6294 59.0367V58.4232L27.1016 57.5718V58.1853Z" fill="#F79826"/>
<path d="M26.7321 62.03L25.2757 62.8868L25.2915 62.5219L26.7321 61.6704V62.03Z" fill="#F79826"/>
<path d="M28.0933 61.374L26.6211 62.2255V61.6067L28.0933 60.7552V61.374Z" fill="#F79826"/>
<path d="M30.262 53.4464L26.9905 55.3397V55.6994L30.4415 53.7003C30.3834 53.6156 30.3254 53.531 30.262 53.4464Z" fill="#F79826"/>
<path d="M25.6294 55.9951L27.1016 55.1489V55.7624L25.6294 56.6139V55.9951Z" fill="#F79826"/>
<path d="M24.537 66.1385C24.099 66.1385 23.6927 66.0327 23.3233 65.8212C22.2838 65.2183 21.6928 63.8168 21.7086 61.9711C21.7403 58.5176 23.8563 54.4771 26.4313 52.9539C27.5816 52.277 28.6898 52.1765 29.5604 52.6842C30.5999 53.2871 31.1909 54.6886 31.1751 56.5343C31.1434 59.9878 29.0275 64.0283 26.4524 65.5514C25.7875 65.9428 25.1385 66.1385 24.537 66.1385ZM28.3468 52.6155C27.7927 52.6155 27.1859 52.8006 26.558 53.1708C24.0515 54.6516 21.9883 58.6022 21.9566 61.9763C21.9408 63.7269 22.4843 65.049 23.4447 65.6043C24.2309 66.0592 25.2546 65.964 26.3205 65.3346C28.8269 63.8538 30.8901 59.9032 30.9218 56.5291C30.9376 54.7785 30.3941 53.4564 29.4338 52.9011C29.1119 52.7107 28.7425 52.6155 28.3468 52.6155Z" fill="#F79826"/>
<path d="M133.37 79.4445L130.579 80.9994V54.8207L133.37 53.2659V79.4445Z" fill="#FFB240"/>
<path d="M119.687 48.5217L127.228 37.9286L134.209 56.9253L130.578 54.8204V80.9991L123.318 76.7999V50.6213L119.687 48.5217Z" fill="#FFC943"/>
<path d="M127.228 37.9289L130.019 36.374L137 55.3655L134.209 56.9256L127.228 37.9289Z" fill="#FFDC5A"/>
<path d="M84.4913 36.9302C85.9582 33.757 86.8553 29.9704 86.8553 29.9704L86.4701 29.3622C86.4701 29.3622 84.8659 29.1824 83.4465 32.0594C82.0323 34.9364 80.4176 37.824 81.225 39.1144C82.1854 39.638 82.8133 38.7178 84.4913 36.9302Z" fill="#442020"/>
<path d="M83.2302 67.8102C83.2302 67.8102 82.6444 68.4501 81.8635 69.2117C81.1406 69.9203 80.9137 70.1213 80.2435 70.7771C79.853 71.1632 80.1749 71.5122 80.9189 71.4858C81.5733 71.4593 83.0613 71.142 83.895 70.8406C84.486 70.629 85.5678 70.0261 86.1218 69.6771C86.6759 69.328 86.7814 68.8415 86.7814 68.8415V67.6621L83.2302 67.8102Z" fill="#602B2B"/>
<path d="M91.1084 71.5331C91.1084 71.5331 90.9712 72.7442 90.892 74.262C90.8076 75.7799 91.0239 77.1232 91.4883 77.2871C91.9526 77.4564 93.2718 77.4352 94.0211 75.325C94.7704 73.2149 94.3219 71.1735 94.3219 71.1735L91.1084 71.5331Z" fill="#602B2B"/>
<path d="M94.0264 48.5013C94.3008 44.1752 91.921 41.9011 91.921 41.9011C92.111 40.4415 85.362 42.4829 85.362 42.4829C85.362 42.4829 83.9162 50.3206 83.3094 54.4457C82.6181 59.1367 82.9189 67.5086 82.9189 67.5086C82.9189 67.5086 83.0086 68.5293 84.7499 68.524C86.0902 68.5187 87.1931 67.4293 87.1931 67.4293L87.3302 57.6559L89.1402 50.9552C89.1402 50.9552 89.1032 57.6242 89.8789 60.3372C91.0345 64.3777 90.6651 72.1097 90.6651 72.1097C90.6651 72.1097 92.9289 72.9189 94.4802 72.1414C96.0316 71.364 95.7255 70.4967 95.7255 70.4967C95.7255 70.4967 96.2321 63.8595 94.2375 59.3641C94.0687 55.953 93.8998 50.4898 94.0264 48.5013Z" fill="#441C1C"/>
<path d="M86.5598 29.7638C86.5598 29.7638 84.2328 31.6465 83.9531 34.312C83.8159 35.6341 84.2169 40.0925 84.2328 43.0118C84.238 44.6512 83.589 49.2471 83.589 49.2471C83.589 49.2471 84.4016 49.8182 85.7261 50.4264C85.7261 49.2629 86.1641 47.4383 86.1641 47.4383C86.1641 47.4383 86.296 49.4903 86.296 50.6221C86.9978 50.8336 87.7946 50.9764 88.6705 50.9711C90.8287 50.9606 94.3747 49.4586 94.3747 49.4586C94.3747 49.4586 94.3747 44.5402 93.7203 41.8218C93.0185 38.9184 94.0792 34.0423 93.9789 33.2596C93.8048 31.948 90.8393 30.5306 90.8393 30.5306C90.8393 30.5306 88.7391 28.9017 86.5598 29.7638Z" fill="#602B2B"/>
<path d="M87.578 29.5155C87.578 29.5155 86.3063 30.5256 85.404 31.7579C84.8711 32.4877 84.718 32.9954 84.718 32.9954L85.404 33.6671L84.4278 34.1378C84.4278 34.1378 83.8843 37.8186 84.6231 39.0562C85.3618 40.2937 86.2536 43.3823 86.2536 43.3823C86.2536 43.3823 87.2825 40.1879 87.7311 39.3946C88.1796 38.6014 89.884 36.396 89.884 36.396L89.0291 35.1056L90.1161 34.7512C90.1161 34.7512 92.3851 32.1863 92.1793 31.4406C91.7941 30.0497 90.4644 29.7641 90.4644 29.7641L87.578 29.5155Z" fill="#441C1C"/>
<path d="M86.3118 32.054C86.3118 32.054 85.7577 33.7305 85.4569 35.2536C85.1562 36.7714 86.2537 41.8221 86.2537 41.8221C86.2537 41.8221 86.7445 36.8825 87.7312 35.481C88.9026 33.8151 90.4223 32.2338 90.4223 32.2338C90.4223 32.2338 87.3196 31.6679 86.3118 32.054Z" fill="white"/>
<path d="M86.8868 32.3658L86.7233 33.6615C86.7233 33.6615 85.9581 34.402 85.7946 35.3063C85.631 36.2107 85.8051 39.4896 85.8051 39.4896L86.2536 41.8219L86.4489 40.267C86.4489 40.267 86.7972 38.2521 87.0979 37.0092C87.1401 36.4645 87.1876 36.015 87.2351 35.8775C87.4409 35.264 87.4831 34.0053 87.4831 34.0053L88.2905 33.0375L87.5201 32.1384L86.8868 32.3658Z" fill="#E93B3B"/>
<path d="M87.3935 29.6795L87.251 31.7315C87.251 31.7315 87.5201 32.1387 88.2114 32.7258C88.9501 32.4931 90.6703 30.8959 90.6703 30.8959L90.1005 27.7122L87.3935 29.6795Z" fill="#FFAD97"/>
<path d="M90.9817 24.8138C90.4488 23.682 88.4753 22.381 86.5968 24.1421C84.6233 25.9931 85.3989 29.711 86.8553 29.9702C87.5941 30.1024 89.0716 29.7375 90.0478 28.7326C91.1506 27.6009 91.3986 25.6917 90.9817 24.8138Z" fill="#FFC5B3"/>
<path d="M87.3408 30.4724L87.5255 32.1383L86.1746 32.6883C86.1746 32.6883 86.0163 30.9114 87.3408 30.4724Z" fill="#DDCCD3"/>
<path d="M90.5544 30.2397C90.5544 30.2397 90.1375 31.0225 89.1666 31.5672C88.6706 31.8475 87.5202 32.1384 87.5202 32.1384L88.0268 33.6668C88.0268 33.6668 89.6309 33.0163 90.4224 32.3869C90.4224 32.3869 91.4725 31.1441 90.5544 30.2397Z" fill="#DDCCD3"/>
<path d="M88.4435 42.6417C88.8551 43.3609 89.6466 43.3768 90.6703 42.6417C92.8285 41.0868 94.2374 37.5593 94.6701 35.7083C95.2083 33.3866 94.306 32.4928 93.066 31.9534C92.38 32.1279 91.7573 33.2544 90.9711 35.428C90.264 37.3742 87.7206 41.3724 88.4435 42.6417Z" fill="#441C1C"/>
<path d="M90.4327 23.4546C89.5146 21.6247 87.3722 21.8045 86.2852 23.1055C85.2404 24.3536 85.2826 24.3589 84.4859 24.8243C86.2483 26.6859 88.512 25.7551 89.3141 25.4695C88.9289 26.5907 89.4196 27.6643 89.5673 27.6431C89.8101 27.1725 90.0528 27.1037 90.248 27.3734C90.4697 27.6749 90.2217 28.5845 90.2217 28.5845C90.2217 28.5845 91.467 27.9234 91.81 26.4162C92.0263 25.4695 92.1265 23.9834 90.4327 23.4546Z" fill="#602B2B"/>
<path d="M88.5015 33.1384C88.5015 33.1384 88.5806 31.3297 88.6334 30.9595C88.6914 30.547 88.7759 30.0499 88.8656 29.7802C89.0397 29.2672 89.0503 28.9446 88.7073 29.1984C88.3643 29.4523 88.2693 29.8542 87.9422 30.0129C87.615 30.1768 87.1243 29.246 86.4647 28.9657C85.8051 28.6801 85.4621 28.3998 85.3038 28.7171C85.193 28.934 85.0927 29.6955 85.2247 30.2508C85.3513 30.7797 86.3539 30.9384 86.9079 31.5254C87.0504 31.6735 87.1718 31.8321 87.1929 31.9961C87.2667 32.5038 87.2826 33.0221 87.2826 33.0221L88.5015 33.1384Z" fill="#FFC5B3"/>
<path d="M87.0081 33.7832V32.1384C87.0081 32.1384 87.3089 32.2707 87.6994 32.2495C88.3009 32.2125 88.8339 32.0062 88.8339 32.0062C88.8339 32.0062 88.9764 33.2808 88.9658 33.6298C88.95 33.9789 87.0556 34.1904 87.0081 33.7832Z" fill="white"/>
<path d="M89.0767 32.9318C87.9791 33.2808 86.8446 33.138 86.8446 33.138C86.8446 33.138 86.681 36.1525 86.9026 38.231C87.1401 40.4416 87.214 42.3508 87.9844 42.9008C88.7548 43.4455 90.074 42.4671 90.074 42.4671C90.074 42.4671 90.438 38.892 90.074 36.8929C89.6307 34.4496 89.5779 34.439 89.0767 32.9318Z" fill="#441C1C"/>
<path d="M85.552 39.0028C85.552 39.0028 86.5546 40.124 87.916 40.7904C88.1271 40.8961 89.4991 41.187 88.9661 41.5942C88.602 41.8745 87.2564 41.1024 87.5256 41.8745C87.7736 42.5885 90.0848 42.3717 89.7048 43.1385C88.7972 43.8683 87.4781 43.4929 86.8079 42.9746C86.5071 42.7419 85.1088 40.6793 85.1088 40.6793L85.552 39.0028Z" fill="#FFC5B3"/>
<path d="M85.5044 38.6646C85.5044 38.6646 86.1429 39.003 86.8447 39.6112C86.1692 40.1242 85.726 41.2877 85.726 41.88C85.3408 41.5574 84.5598 41.1079 84.5598 41.1079L85.5044 38.6646Z" fill="white"/>
<path d="M82.3858 37.1517C82.3858 37.1517 81.093 37.2734 81.0296 37.8763C80.9188 38.9287 80.6444 39.4576 81.3621 40.034C82.1694 40.6792 84.1957 41.499 85.3144 41.8269C84.8869 40.2456 86.2853 38.897 86.2853 38.897C86.2853 38.897 84.4226 37.0354 82.3858 37.1517Z" fill="#442020"/>
<path d="M85.6996 28.6217C85.6996 28.6217 86.1323 28.6957 86.5808 29.0289C87.0293 29.3674 87.3881 29.7376 87.52 29.8434C87.3934 29.6794 87.2034 29.066 86.6124 28.7381C86.0214 28.4102 85.6996 28.6217 85.6996 28.6217Z" fill="#FFAD97"/>
<path d="M88.2114 29.7797C88.2114 29.7797 88.5069 29.2879 88.7021 29.198C88.8973 29.1081 88.9818 29.198 88.9818 29.198C88.9818 29.198 88.8762 28.8701 88.5966 29.0552C88.3169 29.2456 88.2114 29.7797 88.2114 29.7797Z" fill="#FFAD97"/>
<path d="M68.0489 52.7535C68.0489 52.7535 67.5317 53.5997 67.2785 53.9646C67.0252 54.3295 67.0252 55.0858 67.0041 55.5248C66.983 55.9637 66.7719 56.6989 66.7719 56.6989L68.4235 57.4816C68.4235 57.4816 69.558 56.4238 69.5052 55.6834C69.4367 54.7209 69.5422 53.9911 69.5791 53.843C69.6161 53.7002 68.0489 52.7535 68.0489 52.7535Z" fill="#FFC5B3"/>
<path d="M66.7507 56.1698L66.2231 57.0001C66.2231 57.0001 65.3366 57.1958 65.0727 57.5977C64.8142 57.9997 64.4501 59.2108 64.2232 59.9935C63.991 60.7762 62.8459 63.3941 62.8459 64.3301C62.8459 65.2662 62.7826 65.6311 63.1362 66.0913C63.4897 66.5514 64.2232 66.4773 64.6664 66.4297C65.1149 66.3874 67.5845 62.6378 67.6953 62.2253C67.8061 61.8128 67.9908 58.2535 67.9908 58.2535L68.7876 56.9367C68.7876 56.9367 67.347 56.2438 66.7507 56.1698Z" fill="#CCB8C1"/>
<path d="M75.415 65.3777C75.4942 65.346 75.8952 65.9277 75.8425 66.7104C75.795 67.4931 75.6314 67.7576 75.6314 67.7576C75.6314 67.7576 76.1643 67.3874 76.5337 67.4138C76.9031 67.4455 76.8134 68.1331 75.8477 68.6884C74.8821 69.2384 74.423 69.0956 74.1433 68.847C73.869 68.5985 73.4415 65.7109 73.5101 65.5787C73.9481 64.7325 75.415 65.3777 75.415 65.3777Z" fill="#FFC5B3"/>
<path d="M62.0333 96.1361C62.5083 95.8399 65.574 96.6914 65.574 96.6914L68.8825 97.802L68.6293 100.298C68.6293 100.298 67.4525 101.557 65.822 100.457C64.8511 99.8011 62.9726 98.9549 62.2655 97.9395C61.7537 97.2044 61.5584 96.4322 62.0333 96.1361Z" fill="#602B2B"/>
<path d="M70.2176 91.2969C70.6925 91.0008 73.7583 91.8522 73.7583 91.8522L77.0668 92.9629L76.8135 95.4591C76.8135 95.4591 75.6368 96.7178 74.0063 95.6177C73.0354 94.962 71.1569 94.1158 70.4498 93.1004C69.9379 92.36 69.7427 91.5931 70.2176 91.2969Z" fill="#602B2B"/>
<path d="M74.4495 68.4553C74.4495 68.4553 75.9692 69.952 76.2066 73.0882C76.3122 74.5002 75.5576 80.5292 75.5576 80.5292C75.5576 80.5292 76.7132 83.6442 77.0034 85.6539C77.3464 88.0391 77.262 92.6984 77.262 92.6984C77.0667 93.3224 76.423 93.9095 75.1354 93.8143C73.811 93.7138 72.877 92.0161 72.877 92.0161C72.877 92.0161 72.4179 88.1502 71.9852 85.5958C71.7372 84.1361 71.4628 83.1736 71.3256 81.9625C71.2729 80.5716 71.1304 77.1816 71.1304 77.1816C71.1304 77.1816 69.5421 83.5173 69.0355 85.453C70.017 88.679 69.1464 97.4634 69.0514 98.1615C67.0884 99.7111 65.8801 98.2461 65.0674 96.9769C65.1149 95.0254 64.8036 91.5825 64.7297 88.8483C64.6717 86.6958 64.7086 85.7967 64.6717 85.0722C64.6031 83.6654 65.2416 79.4398 65.5634 76.2032C65.9381 72.4324 66.0173 69.7034 66.0173 69.7034L74.4495 68.4553Z" fill="#441C1C"/>
<path d="M72.1226 54.673C72.1226 54.673 73.0935 53.3931 74.5129 54.2658C75.2464 54.7153 75.7213 55.4451 76.212 55.9898C76.8189 56.6615 77.4098 57.6135 77.6684 58.2481C77.7898 58.5548 77.5259 60.1097 77.2357 61.4689C76.9772 62.6747 76.4864 65.2978 76.0221 66.1969C75.4047 66.858 73.4417 66.1546 73.4417 66.1546L72.1226 54.673Z" fill="#DDCCD3"/>
<path d="M67.4841 57.5343C65.8958 59.0098 66.5923 64.5364 66.5501 65.7052C66.4762 67.7466 65.6003 69.9096 65.9538 71.1736C66.6504 71.8717 68.4972 72.7391 70.6079 72.5328C72.3281 72.3689 74.3069 71.4169 75.3042 69.7193C75.3148 69.3861 74.4072 67.6779 74.6077 66.6148C75.0773 64.0763 75.7844 61.0671 75.8477 58.9463C75.8899 57.4655 75.2989 56.4871 74.8979 55.6357C74.4969 54.7842 73.5998 54.2976 72.3914 54.2606C71.4891 54.3452 70.8612 55.3871 70.2016 55.7679C68.6133 56.6775 67.8535 57.1905 67.4841 57.5343Z" fill="white"/>
<path d="M69.88 56.4344C71.0303 56.2229 72.0487 55.8685 73.0882 55.3767L72.7294 53.3564L69.9169 54.0228C69.9169 54.0228 70.2599 55.4613 69.9169 56.3498C69.9064 56.3763 69.8905 56.4027 69.88 56.4344Z" fill="#FFAD97"/>
<path d="M73.7424 49.104C73.1672 47.8771 71.0249 46.4597 68.9775 48.3742C66.8352 50.3786 67.6794 54.4191 69.2572 54.6994C70.0593 54.8422 71.6581 54.4455 72.724 53.3561C73.9271 52.1291 74.1909 50.056 73.7424 49.104Z" fill="#FFC5B3"/>
<path d="M67.7691 47.8985C67.7691 47.8985 68.1491 49.5115 69.6529 50.1461C69.806 50.6697 69.7268 50.95 69.4366 51.537C69.4894 51.7063 69.7585 51.8015 69.7585 51.8015C70.112 51.2991 70.7716 51.0188 71.0143 51.5794C71.236 52.0871 70.9246 52.452 70.4867 52.9808C70.1595 54.4775 72.2596 55.3819 72.2596 55.3819C72.2596 55.3819 73.2306 53.8958 74.1223 52.9068C75.0141 51.9231 75.3254 49.7654 74.0062 48.7764C73.6685 47.2004 72.2016 46.2802 70.6661 46.8672C69.9695 47.1316 69.5632 47.4119 69.0936 47.6129C68.3285 47.9355 67.7691 47.8985 67.7691 47.8985Z" fill="#602B2B"/>
<path d="M71.009 55.2127C69.9062 55.7416 68.7084 56.593 68.7084 56.593C68.7084 56.593 70.5288 56.9104 71.6686 56.4291C72.2702 56.1752 73.2147 55.657 73.431 55.3767C73.7265 54.9959 73.0881 54.3401 73.0881 54.3401C73.0881 54.3401 72.3335 54.5834 71.009 55.2127Z" fill="#DDCCD3"/>
<path d="M67.7692 57.2326C67.1677 57.3331 66.2073 58.3009 65.6058 59.4274C65.0095 60.5538 63.5584 62.5053 63.0571 63.2616C62.5505 64.0179 62.7352 64.991 63.0307 65.9324C63.2998 66.805 65.1678 66.5829 66.1018 66.0751C67.0358 65.5674 68.8087 62.5 69.4261 60.9346C70.0329 59.3692 69.4842 56.9523 67.7692 57.2326Z" fill="#DDCCD3"/>
<path d="M68.4078 53.9644C68.4078 53.9644 68.8035 53.2451 69.0515 53.0283C69.1993 52.9014 69.5792 52.9595 69.6636 53.2345C69.7269 53.4408 69.6583 53.6523 69.6583 53.6523C69.6583 53.6523 69.6636 53.261 69.2151 53.2293C68.946 53.2134 68.7877 53.774 68.4078 53.9644Z" fill="#FFAD97"/>
<path d="M67.8748 52.9648C67.8959 53.0389 67.9856 53.3721 68.1175 53.6259C68.2547 53.8798 68.4077 53.9644 68.4077 53.9644L68.5924 53.8322C68.5924 53.8322 68.5027 53.8269 68.2969 53.6048C68.0911 53.3826 67.8748 52.9648 67.8748 52.9648Z" fill="#FFAD97"/>
<path d="M43.375 57.3331C43.1112 56.635 47.6597 56.1008 47.6597 56.1008C47.6597 56.1008 47.6703 59.5014 47.7916 60.9293C47.9763 63.0871 47.9341 64.1237 47.3115 67.0165C47.0371 68.3017 46.6888 73.1725 46.7838 74.886C46.921 77.3981 48.0766 78.5828 48.4671 79.2068C48.8575 79.8256 47.3642 80.4126 46.425 79.5083C45.4804 78.6039 45.3854 78.4294 44.8525 78.1438C44.3195 77.8582 44.499 77.1813 44.5359 75.7639C44.5676 74.6692 44.0927 71.0147 43.908 68.6719C43.6494 65.3506 44.3776 65.2766 44.3248 63.5948C44.2351 60.4322 43.5491 57.7932 43.375 57.3331Z" fill="#FFAD97"/>
<path d="M44.098 76.4884C44.098 76.4831 44.1033 76.4778 44.1033 76.4725C44.1191 76.4143 44.1297 76.3826 44.1297 76.3826C44.251 76.0494 44.5307 75.7585 44.5307 75.7585C44.5307 75.7585 44.7523 77.7682 45.9343 78.5985C47.2482 79.524 47.8392 79.6615 48.4619 79.2014C48.4619 79.2014 48.7785 79.6721 49.5067 80.4813C49.8971 80.915 49.57 81.3486 48.4197 81.264C47.8128 81.2217 46.9475 80.9097 46.4673 80.2962C45.966 79.651 45.5755 78.9529 45.1006 78.5351C45.0267 78.4716 44.9634 78.4134 44.9001 78.3553C44.8632 78.8894 44.8843 79.2279 44.8579 79.614C44.7471 79.7885 44.5782 79.7462 44.441 79.614C44.3619 79.1909 44.4621 78.7995 44.2247 78.0168C43.9819 77.1865 44.0505 76.6893 44.098 76.4884Z" fill="#4B70B2"/>
<path d="M39.8712 59.1418C39.6073 58.4437 44.1559 57.9095 44.1559 57.9095C44.1559 57.9095 44.1664 61.3101 44.2878 62.7381C44.4725 64.8958 44.4303 65.9324 43.8076 68.8253C43.5332 70.1104 43.185 74.9812 43.2799 76.6947C43.4171 79.2068 44.5727 80.3915 44.9632 81.0103C45.3537 81.629 43.8604 82.2161 42.9211 81.3117C41.9766 80.4073 41.8816 80.2328 41.3486 79.9472C40.8157 79.6616 40.9951 78.9847 41.032 77.5674C41.0637 76.4726 40.5888 72.8182 40.4041 70.4753C40.1455 67.1541 40.8737 67.08 40.821 65.3982C40.726 62.2462 40.04 59.6019 39.8712 59.1418Z" fill="#FFC5B3"/>
<path d="M40.6049 78.2442C40.6049 78.2389 40.6101 78.2337 40.6101 78.2284C40.626 78.1702 40.6365 78.1385 40.6365 78.1385C40.7579 77.8053 41.0376 77.5144 41.0376 77.5144C41.0376 77.5144 41.2592 79.5241 42.4412 80.3544C43.7551 81.2799 44.3461 81.4174 44.9687 80.9573C44.9687 80.9573 45.2853 81.428 46.0135 82.2371C46.404 82.6708 46.0768 83.1045 44.9265 83.0199C44.3197 82.9775 43.4543 82.6655 42.9741 82.052C42.4728 81.4068 42.0824 80.7087 41.6074 80.2909C41.5336 80.2275 41.4702 80.1693 41.4069 80.1111C41.37 80.6453 41.3911 80.9837 41.3647 81.3698C41.2539 81.5443 41.085 81.502 40.9479 81.3698C40.8687 80.9467 40.969 80.5554 40.7315 79.7726C40.4888 78.937 40.5574 78.4452 40.6049 78.2442Z" fill="#4B70B2"/>
<path d="M51.7439 42.6996C51.5856 42.4458 51.4273 42.1972 51.2795 41.9645C50.0975 40.1769 48.4565 36.1206 46.3141 35.3326C44.119 34.5234 43.7179 36.0677 43.7179 36.0677L48.9736 44.868C50.0923 44.5242 51.1582 43.6886 51.7439 42.6996Z" fill="#4B70B2"/>
<path d="M41.9028 32.4559C41.9028 32.4559 40.8422 33.6512 40.4886 36.4171C40.1351 39.1831 40.2354 39.9499 40.2354 39.9499C40.2354 39.9499 42.6046 40.2461 43.1323 39.0297C43.6652 37.8186 41.9028 32.4559 41.9028 32.4559Z" fill="#602B2B"/>
<path d="M48.7362 49.6222C48.7362 49.6222 49 50.9021 49.0422 53.2397C49.1003 56.1114 48.7467 61.9077 48.7467 61.9077C48.7467 61.9077 48.0502 62.8914 46.3194 63.3726C45.1691 63.69 43.2484 63.7693 41.9239 63.2563C41.6337 61.9712 41.3751 60.0355 41.3751 60.0355C41.296 60.9452 40.9055 62.225 40.8791 63.0659C40.1457 62.9125 39.6549 62.4048 39.6549 62.4048C39.6549 62.4048 39.428 60.062 39.2064 57.5287C38.9953 55.096 39.1114 52.8324 40.1615 50.1987C41.8131 46.0842 48.6412 47.3904 48.7362 49.6222Z" fill="#4B70B2"/>
<path d="M38.8053 40.3624C39.027 38.8128 42.5413 36.7185 42.5413 36.7185C42.5413 36.7185 43.1164 38.4426 43.6546 38.8657C44.1718 39.2729 45.0266 40.3095 45.1005 40.3941C45.1057 40.3941 45.111 40.3941 45.111 40.3941C45.1005 40.2249 44.9949 38.8551 44.462 37.3954C44.2931 36.9353 44.5517 35.592 44.5517 35.592C44.5517 35.592 44.768 35.5391 45.0741 35.481C45.5384 35.994 46.4513 37.3637 46.9473 37.9349C47.4275 38.4849 48.8311 40.3782 48.4037 42.1711C48.0396 43.6995 47.8444 45.7091 47.8866 46.4654C47.9341 47.3328 48.8469 50.0828 48.8469 50.0828C48.8469 50.0828 47.9446 52.3464 44.6256 51.8281C42.1666 51.4473 40.3778 49.9612 40.3778 49.9612C40.3778 49.9612 40.9741 46.1904 40.8949 44.6356C40.8844 44.6408 38.3726 43.3769 38.8053 40.3624Z" fill="white"/>
<path d="M45.111 37.1042C45.111 37.1042 45.8708 39.2726 46.5779 41.1817C47.285 43.0909 47.2744 48.3954 47.4802 49.1887C47.8179 50.4791 48.7361 50.9816 49.3534 50.5373C49.3534 50.5373 47.9393 44.3073 48.4036 42.176C48.868 40.0394 48.3614 39.5053 46.9103 37.5802C45.4592 35.6551 45.5014 36.0148 45.5014 36.0148L45.111 37.1042Z" fill="#6382C6"/>
<path d="M45.4962 36.4169C46.0555 37.1732 47.1161 38.617 47.1161 38.617L46.6993 39.204C46.6993 39.204 47.0423 39.3891 47.3378 39.7911C47.3483 40.7642 47.0423 43.4825 47.0423 43.4825C47.0423 43.4825 46.446 40.4363 44.8946 37.9242C44.3933 37.1097 44.6836 37.0992 44.6836 37.0992C44.6836 37.0992 45.2376 36.3852 45.4962 36.4169Z" fill="#4B70B2"/>
<path d="M44.7153 35.8037C44.7153 35.8037 44.8419 37.459 45.111 38.2787C45.111 38.4374 45.1163 38.7811 44.71 38.8552C44.2984 38.9292 43.4911 38.8711 43.2325 38.6701C42.0769 37.7446 41.9028 37.258 41.9028 37.258C41.9028 37.258 42.1402 36.1739 42.1666 35.7825C42.2141 35.132 42.1613 33.006 42.1613 33.006L44.7153 35.8037Z" fill="#FFAD97"/>
<path d="M45.1532 38.6116C45.1532 38.6116 45.2851 39.114 45.2324 39.4578C45.1796 39.8015 44.958 39.9179 44.6097 39.6429C44.2615 39.3679 44.1137 38.9607 44.1137 38.9607C44.1137 38.9607 44.5147 38.3049 45.1532 38.6116Z" fill="#E93B3B"/>
<path d="M45.1163 39.4786C45.1163 39.4786 45.6809 40.2508 46.1242 41.7951C46.5041 43.1172 47.169 46.1846 47.2323 46.8721C47.0159 47.6496 46.541 48.2366 46.541 48.2366L45.4277 47.2688L44.7628 39.6637L45.1163 39.4786Z" fill="#E93B3B"/>
<path d="M45.0793 36.7182C45.0793 36.7182 45.4381 36.9774 45.7072 38.2361C45.8813 39.0664 45.5436 39.5899 45.5436 39.5899L44.6044 38.5269C44.6044 38.5269 44.979 37.813 44.7416 36.7182C44.6466 36.2898 45.0793 36.7182 45.0793 36.7182Z" fill="#DDCCD3"/>
<path d="M42.6417 30.3084C43.6074 29.4887 45.9713 29.1185 46.9686 31.5354C48.0134 34.0739 45.85 37.4216 44.5783 36.9351C43.8659 36.6653 42.4254 35.999 41.9399 34.6609C41.3964 33.159 41.8924 30.9483 42.6417 30.3084Z" fill="#FFC5B3"/>
<path d="M41.8448 36.7183C41.8448 36.7183 44.098 39.1034 44.8631 42.8954C45.0689 43.9214 45.586 46.1743 45.6863 48.1364C45.7971 50.2095 45.4647 51.9759 44.6732 52.6C42.2775 54.4722 39.3648 51.6375 39.3648 51.6375C39.3648 51.6375 40.5256 47.7239 40.3251 46.5181C40.1246 45.3123 38.6102 40.0501 39.1009 39.1933C39.5864 38.3472 41.8448 36.7183 41.8448 36.7183Z" fill="#6382C6"/>
<path d="M42.0717 36.417C42.0717 36.417 41.9767 37.4483 43.2326 38.855C45.1586 41.0128 45.1111 44.3182 45.1111 44.3182L42.5941 41.1239L43.0215 40.1878L42.0347 40.1296C42.0347 40.1296 41.1588 38.8603 41.1641 37.4483C41.1641 36.7079 42.0717 36.417 42.0717 36.417Z" fill="#4B70B2"/>
<path d="M44.2509 40.2196C44.4936 39.5955 44.6044 38.5272 44.6044 38.5272C44.6044 38.5272 42.8895 37.7339 42.1138 36.8348C41.9977 37.9243 42.8473 39.7013 44.2509 40.2196Z" fill="#DDCCD3"/>
<path d="M37.9293 51.6481C37.9293 51.6481 38.5678 52.1188 39.2696 51.3995C39.9661 50.6803 40.325 50.0033 39.945 49.6384C39.5651 49.2788 38.9319 49.2153 38.209 49.85C37.4914 50.4899 37.7816 51.4789 37.9293 51.6481Z" fill="#43439B"/>
<path d="M39.9978 38.4371C39.2063 38.3525 38.114 40.14 36.7527 42.5199C35.3913 44.8998 34.9586 46.4282 34.89 47.6393C34.8741 47.8984 35.0483 48.4167 35.3754 48.9033C36.0403 49.8922 37.1801 51.2144 37.9399 51.6481C38.0191 50.8865 38.2196 50.2836 38.7631 49.8658C39.0269 49.6595 39.4965 49.6119 39.9556 49.6384L38.2723 46.8936C38.2723 46.8936 40.2669 44.593 40.9951 42.6204C41.6231 40.9069 40.9635 38.5429 39.9978 38.4371Z" fill="#4B70B2"/>
<path d="M45.1269 32.1489C45.1269 32.1489 43.4911 34.0476 41.7498 34.4759C40.9319 32.6196 40.7683 32.1119 41.1588 30.9378C41.6126 29.5734 43.0162 29.6104 43.0162 29.6104C43.0162 29.6104 44.4357 28.0238 46.4408 29.4676C49.3536 31.5672 47.1268 34.0476 47.1268 34.0476C47.1268 34.0476 47.0213 32.8259 45.1269 32.1489Z" fill="#602B2B"/>
<path d="M43.2166 34.2113C43.2166 34.2113 43.0267 33.9416 42.8103 33.7723C42.6309 33.6348 42.2879 33.5925 42.1877 34.1161C42.0505 34.8353 42.6256 35.1051 42.6256 35.1051L43.2166 34.2113Z" fill="#FFC5B3"/>
<path d="M50.0185 41.6845C50.1398 41.695 55.1897 41.0075 55.8281 40.9811C55.6276 42.0388 55.3796 42.3667 56.3189 43.3398C55.902 43.8792 53.9602 44.2336 52.6146 44.6144C51.5645 44.9105 50.6833 45.2173 50.0132 45.2543C49.5647 45.2807 49.2058 45.1802 48.9631 44.8788C47.9025 43.5513 50.0185 41.6845 50.0185 41.6845Z" fill="#4B70B2"/>
<path d="M72.6239 16.5583L58.2079 27.601L62.271 30.4092L51.4853 52.6109L42.4885 46.5554L17.2076 97.6805L27.0329 91.9899L44.1137 57.5822L53.0314 63.6588L67.4633 33.9791L71.0831 36.433L72.6239 16.5583Z" fill="#1F9390"/>
<path d="M74.9774 17.9222L60.5561 28.9702L64.6191 31.7731L53.8335 53.9801L44.8367 47.9246L19.5558 99.0444L29.3811 93.3591L46.4619 58.9461L55.3849 65.0227L69.8167 35.343L73.4313 37.7969L74.9774 17.9222Z" fill="#2CA8A8"/>
<path d="M19.5558 99.0443L17.2076 97.6799L42.4885 46.5548L44.8366 47.9246L19.5558 99.0443Z" fill="#40C1BD"/>
<path d="M55.3849 65.0231L53.0315 63.6587L46.3776 59.1211L46.462 58.9465L55.3849 65.0231Z" fill="#147C77"/>
<path d="M74.9773 17.9224L72.6239 16.558L58.2078 27.6006L60.556 28.9704L74.9773 17.9224Z" fill="#40C1BD"/>
<path d="M58.2078 27.6005L60.556 28.9702L64.6191 31.7732L62.2709 30.4087L58.2078 27.6005Z" fill="#147C77"/>
<path d="M71.0831 36.4324L73.4313 37.7968L69.8167 35.3429L69.7323 35.5121L71.0831 36.4324Z" fill="#147C77"/>
<path d="M55.7595 41.1924C55.7595 41.1924 56.2291 40.6688 56.704 40.2193C57.1789 39.7697 57.3689 39.114 57.5589 38.8865C57.7488 38.6538 58.0865 39.0188 57.8069 39.5952C57.5272 40.1717 57.2001 40.8433 57.2001 40.8433L56.0814 43.1492C56.0814 43.1439 55.1632 42.7631 55.7595 41.1924Z" fill="#FFAD97"/>
<path d="M38.0192 51.1986C38.0192 51.1986 38.3305 51.7698 38.6155 51.9126C38.9954 52.0977 39.312 52.0818 39.6603 52.2722C40.0085 52.4626 40.4518 52.7958 41.238 52.8804C42.1825 52.9809 42.6997 51.9337 42.1456 51.3149C41.4649 50.5534 41.1588 50.1144 40.7631 50.0404C40.3673 49.9663 39.713 49.8606 39.3753 49.6437C38.0192 49.5485 38.0192 51.1986 38.0192 51.1986Z" fill="#FFC5B3"/>
</svg>
