<svg width="123" height="98" viewBox="0 0 123 98" fill="none" xmlns="http://www.w3.org/2000/svg">
<path d="M75.0807 1.42914L77.5429 0L85.0714 6.2224L82.6118 7.65422L75.0807 1.42914Z" fill="#5F9CD9"/>
<path d="M82.6118 7.65409L85.0713 6.22227L92.7523 4.30872L90.2928 5.73786L82.6118 7.65409Z" fill="#90C0F0"/>
<path d="M90.2928 5.73786L92.7523 4.30872L100.257 11.334L97.7944 12.7631L90.2928 5.73786Z" fill="#5F9CD9"/>
<path d="M102.714 6.06695L105.173 4.63513L114.934 11.9628L112.471 13.3947L102.714 6.06695Z" fill="#5F9CD9"/>
<path d="M120.54 11.955L123 10.5259L122.885 51.5455L120.423 52.9773L120.54 11.955Z" fill="#5F9CD9"/>
<path d="M120.54 11.955L120.423 52.9773L75.0085 26.7576L75.0808 1.42908L82.6119 7.65415L90.2929 5.73792L97.7945 12.7632L102.714 6.0671L112.471 13.3948L120.54 11.955Z" fill="url(#paint0_linear_585_11539)"/>
<path d="M112.471 13.3949L114.934 11.9631L123 10.5259L120.54 11.955L112.471 13.3949Z" fill="#90C0F0"/>
<path d="M102.714 6.10205V42.4194" stroke="white" stroke-width="0.4948" stroke-miterlimit="10" stroke-linecap="round" stroke-linejoin="round"/>
<path d="M90.2928 5.77258V35.6053" stroke="white" stroke-width="0.4948" stroke-miterlimit="10" stroke-linecap="round" stroke-linejoin="round"/>
<path d="M112.471 13.4298V48.1869" stroke="white" stroke-width="0.4948" stroke-miterlimit="10" stroke-linecap="round" stroke-linejoin="round"/>
<path d="M82.6118 7.68896V31.1039" stroke="white" stroke-width="0.4948" stroke-miterlimit="10" stroke-linecap="round" stroke-linejoin="round"/>
<path d="M112.067 13.1941C112.067 12.9345 112.249 12.8301 112.474 12.9586C112.699 13.0871 112.881 13.4029 112.881 13.6625C112.881 13.9221 112.699 14.0264 112.474 13.898C112.247 13.7695 112.067 13.4537 112.067 13.1941Z" fill="white"/>
<path d="M102.307 5.86635C102.307 5.60675 102.489 5.50238 102.714 5.63084C102.938 5.7593 103.12 6.0751 103.12 6.3347C103.12 6.59431 102.938 6.69868 102.714 6.57022C102.489 6.44176 102.307 6.12595 102.307 5.86635Z" fill="white"/>
<path d="M89.8861 5.53994C89.8861 5.28033 90.0681 5.17596 90.2929 5.30442C90.5177 5.43288 90.6997 5.74869 90.6997 6.00829C90.6997 6.26789 90.5177 6.37227 90.2929 6.2438C90.0681 6.11534 89.8861 5.79686 89.8861 5.53994Z" fill="white"/>
<path d="M82.2051 7.45351C82.2051 7.19391 82.3871 7.08953 82.6119 7.218C82.8367 7.34646 83.0187 7.66226 83.0187 7.92186C83.0187 8.18146 82.8367 8.28584 82.6119 8.15738C82.3871 8.02892 82.2051 7.71311 82.2051 7.45351Z" fill="white"/>
<path d="M112.367 20.6561L107.555 12.1588L102.743 15.1001L105.377 16.6202V36.5667L109.734 39.0824V19.1359L112.367 20.6561Z" fill="url(#paint1_linear_585_11539)"/>
<path d="M70.8763 6.86785L73.3385 5.43604L79.9383 14.9101L77.4761 16.3393L70.8763 6.86785Z" fill="#E82A6F"/>
<path d="M77.4761 16.3392L79.9383 14.91L88.5238 16.6202L86.0643 18.0493L77.4761 16.3392Z" fill="#FF82B0"/>
<path d="M86.0642 18.0494L88.5238 16.6202L100.725 30.711L98.2628 32.1428L86.0642 18.0494Z" fill="#E82A6F"/>
<path d="M98.2628 32.143L100.725 30.7112L108.007 28.8806L105.548 30.3124L98.2628 32.143Z" fill="#FF82B0"/>
<path d="M70.8763 6.8678L77.476 16.3392L86.0643 18.0494L98.2628 32.1428L105.548 30.3122L116.111 38.0253L116.06 55.911L70.812 29.7876L70.8763 6.8678Z" fill="#FF5C98"/>
<path d="M105.548 30.3124L108.007 28.8806L118.573 36.5964L116.111 38.0255L105.548 30.3124Z" fill="#E82A6F"/>
<path d="M116.111 38.0256L118.573 36.5964L118.522 54.4821L116.06 55.9113L116.111 38.0256Z" fill="#E02066"/>
<path d="M86.0642 18.0841V38.5203" stroke="white" stroke-width="0.4948" stroke-miterlimit="10" stroke-linecap="round" stroke-linejoin="round"/>
<path d="M105.548 30.3472V50.1277" stroke="white" stroke-width="0.4948" stroke-miterlimit="10" stroke-linecap="round" stroke-linejoin="round"/>
<path d="M77.4761 16.3741V33.8183" stroke="white" stroke-width="0.4948" stroke-miterlimit="10" stroke-linecap="round" stroke-linejoin="round"/>
<path d="M98.2628 32.1777V45.4067" stroke="white" stroke-width="0.4948" stroke-miterlimit="10" stroke-linecap="round" stroke-linejoin="round"/>
<path d="M77.072 16.1413C77.072 15.8817 77.254 15.7773 77.4788 15.9057C77.7036 16.0342 77.8856 16.35 77.8856 16.6096C77.8856 16.8692 77.7036 16.9736 77.4788 16.8451C77.2513 16.714 77.072 16.3982 77.072 16.1413Z" fill="white"/>
<path d="M85.6575 17.8515C85.6575 17.5919 85.8395 17.4875 86.0643 17.6159C86.2891 17.7444 86.4711 18.0602 86.4711 18.3198C86.4711 18.5794 86.2891 18.6838 86.0643 18.5553C85.8395 18.4242 85.6575 18.1111 85.6575 17.8515Z" fill="white"/>
<path d="M97.8587 31.942C97.8587 31.6824 98.0407 31.5781 98.2655 31.7065C98.4903 31.835 98.6723 32.1508 98.6723 32.4104C98.6723 32.67 98.4903 32.7744 98.2655 32.6459C98.038 32.5148 97.8587 32.2016 97.8587 31.942Z" fill="white"/>
<path d="M105.141 30.1115C105.141 29.8519 105.323 29.7475 105.548 29.876C105.773 30.0044 105.955 30.3202 105.955 30.5798C105.955 30.8394 105.773 30.9438 105.548 30.8153C105.323 30.6869 105.141 30.3711 105.141 30.1115Z" fill="white"/>
<path d="M65.2614 24.6733L67.7235 23.2441L73.6435 23.6456L71.1813 25.0747L65.2614 24.6733Z" fill="#4264C2"/>
<path d="M71.1813 25.0749L73.6435 23.6458L81.0087 31.9021L78.5492 33.334L71.1813 25.0749Z" fill="#324B91"/>
<path d="M78.5492 33.3338L81.0087 31.902L88.6924 32.9002L86.2302 34.3294L78.5492 33.3338Z" fill="#4264C2"/>
<path d="M86.2302 34.3293L88.6924 32.9001L95.6133 38.317L93.1511 39.7488L86.2302 34.3293Z" fill="#324B91"/>
<path d="M93.1512 39.7488L95.6134 38.317L104.689 38.9834L102.229 40.4152L93.1512 39.7488Z" fill="#4264C2"/>
<path d="M110.52 47.2747L112.98 45.8456L112.948 57.8167L110.486 59.2458L110.52 47.2747Z" fill="#2D4483"/>
<path d="M102.229 40.4153L104.689 38.9835L112.98 45.8456L110.52 47.2747L102.229 40.4153Z" fill="#324B91"/>
<path d="M102.229 40.4152L110.52 47.2746L110.486 59.2457L65.2373 33.1223L65.2614 24.6732L71.1814 25.0747L78.5492 33.3337L86.2302 34.3293L93.1511 39.7488L102.229 40.4152Z" fill="#3753A1"/>
<path d="M71.1813 25.1123V36.3581" stroke="white" stroke-width="0.4948" stroke-miterlimit="10" stroke-linecap="round" stroke-linejoin="round"/>
<path d="M86.2302 34.3643V45.123" stroke="white" stroke-width="0.4948" stroke-miterlimit="10" stroke-linecap="round" stroke-linejoin="round"/>
<path d="M102.229 40.4502V54.3348" stroke="white" stroke-width="0.4948" stroke-miterlimit="10" stroke-linecap="round" stroke-linejoin="round"/>
<path d="M93.1512 39.7836V49.1105" stroke="white" stroke-width="0.4948" stroke-miterlimit="10" stroke-linecap="round" stroke-linejoin="round"/>
<path d="M78.5492 33.3685V40.8434" stroke="white" stroke-width="0.4948" stroke-miterlimit="10" stroke-linecap="round" stroke-linejoin="round"/>
<path d="M101.822 40.1049C101.822 39.8453 102.004 39.7409 102.229 39.8694C102.454 39.9978 102.636 40.3136 102.636 40.5732C102.636 40.8328 102.454 40.9372 102.229 40.8087C102.004 40.6776 101.822 40.3645 101.822 40.1049Z" fill="white"/>
<path d="M85.8261 34.1314C85.8261 33.8718 86.0081 33.7674 86.2329 33.8959C86.4577 34.0243 86.6397 34.3401 86.6397 34.5997C86.6397 34.8593 86.4577 34.9637 86.2329 34.8352C86.0081 34.7041 85.8261 34.3883 85.8261 34.1314Z" fill="white"/>
<path d="M71.4636 25.5896C71.6223 25.4979 71.6228 25.2016 71.4646 24.9277C71.3065 24.6538 71.0496 24.506 70.8909 24.5976C70.7322 24.6893 70.7317 24.9856 70.8898 25.2595C71.048 25.5335 71.3049 25.6812 71.4636 25.5896Z" fill="white"/>
<path d="M93.4338 40.3088C93.5925 40.2172 93.5929 39.9208 93.4348 39.6469C93.2766 39.373 93.0198 39.2252 92.861 39.3169C92.7023 39.4085 92.7018 39.7048 92.86 39.9788C93.0182 40.2527 93.275 40.4005 93.4338 40.3088Z" fill="white"/>
<path d="M78.1425 33.1332C78.1425 32.8736 78.3245 32.7692 78.5493 32.8977C78.7741 33.0261 78.9561 33.3419 78.9561 33.6015C78.9561 33.8611 78.7741 33.9655 78.5493 33.8371C78.3245 33.7086 78.1425 33.3928 78.1425 33.1332Z" fill="white"/>
<path d="M119.138 76.9308L119.679 70.6469L109.595 71.4203L112.207 72.9271L93.6787 85.23L98.001 87.727L116.529 75.424L119.138 76.9308Z" fill="url(#paint2_linear_585_11539)"/>
<path d="M65.0637 90.7218L65.2778 88.2409L61.2955 88.546L62.3259 89.1401L55.0089 93.9976L56.7163 94.9852L64.0333 90.125L65.0637 90.7218Z" fill="url(#paint3_linear_585_11539)"/>
<path d="M91.1333 77.1664C90.8309 74.8674 90.9968 72.531 90.0869 70.2883C88.7621 67.0232 85.0929 64.0953 80.131 62.3477C74.1548 60.2441 66.3748 59.749 61.702 56.7408C57.8722 54.276 57.0479 50.6576 53.5099 48.0482C51.797 46.785 49.458 45.8242 46.8646 45.2568L31.8854 53.904L83.6557 83.7929L91.5856 79.2137C91.3635 78.5366 91.2216 77.8488 91.1333 77.1664Z" fill="url(#paint4_linear_585_11539)"/>
<path d="M70.8363 68.5352C68.623 65.8723 67.036 62.8855 63.2062 60.9265C59.7457 59.1547 55.0033 58.5178 50.9835 57.1957C45.7246 55.4668 41.8145 52.4667 40.1873 49.1106L31.8828 53.9038L83.6531 83.7928L88.2483 81.1405C81.3247 77.4285 74.8936 73.4194 70.8363 68.5352Z" fill="#5F9CD9"/>
<path d="M64.9331 34.8245L116.703 64.7134L83.6565 83.7954L31.8862 53.9038L64.9331 34.8245Z" stroke="#5986FF" stroke-width="0.8442" stroke-miterlimit="10" stroke-linecap="round" stroke-linejoin="round"/>
<path d="M88.0582 81.2506L36.2906 51.3617" stroke="#5986FF" stroke-width="0.8442" stroke-miterlimit="10" stroke-linecap="round" stroke-linejoin="round"/>
<path d="M92.8113 78.5073L41.041 48.6184" stroke="#5986FF" stroke-width="0.8442" stroke-miterlimit="10" stroke-linecap="round" stroke-linejoin="round"/>
<path d="M97.5643 75.764L45.794 45.8724" stroke="#5986FF" stroke-width="0.8442" stroke-miterlimit="10" stroke-linecap="round" stroke-linejoin="round"/>
<path d="M102.318 73.0181L50.5472 43.1292" stroke="#5986FF" stroke-width="0.8442" stroke-miterlimit="10" stroke-linecap="round" stroke-linejoin="round"/>
<path d="M107.071 70.2749L55.3004 40.386" stroke="#5986FF" stroke-width="0.8442" stroke-miterlimit="10" stroke-linecap="round" stroke-linejoin="round"/>
<path d="M111.824 67.5316L60.0534 37.6427" stroke="#5986FF" stroke-width="0.8442" stroke-miterlimit="10" stroke-linecap="round" stroke-linejoin="round"/>
<path d="M78.5119 80.8248L111.562 61.7428" stroke="#5986FF" stroke-width="0.8442" stroke-miterlimit="10" stroke-linecap="round" stroke-linejoin="round"/>
<path d="M73.3734 77.8596L106.423 58.7776" stroke="#5986FF" stroke-width="0.8442" stroke-miterlimit="10" stroke-linecap="round" stroke-linejoin="round"/>
<path d="M68.2349 74.8915L101.284 55.8121" stroke="#5986FF" stroke-width="0.8442" stroke-miterlimit="10" stroke-linecap="round" stroke-linejoin="round"/>
<path d="M63.0963 71.9261L96.1459 52.8441" stroke="#5986FF" stroke-width="0.8442" stroke-miterlimit="10" stroke-linecap="round" stroke-linejoin="round"/>
<path d="M57.9605 68.9582L91.0075 49.8789" stroke="#5986FF" stroke-width="0.8442" stroke-miterlimit="10" stroke-linecap="round" stroke-linejoin="round"/>
<path d="M52.822 65.9929L85.869 46.9109" stroke="#5986FF" stroke-width="0.8442" stroke-miterlimit="10" stroke-linecap="round" stroke-linejoin="round"/>
<path d="M47.6835 63.0274L80.7331 43.9454" stroke="#5986FF" stroke-width="0.8442" stroke-miterlimit="10" stroke-linecap="round" stroke-linejoin="round"/>
<path d="M42.5451 60.0596L75.5947 40.9802" stroke="#5986FF" stroke-width="0.8442" stroke-miterlimit="10" stroke-linecap="round" stroke-linejoin="round"/>
<path d="M37.4066 57.0942L70.4562 38.0122" stroke="#5986FF" stroke-width="0.8442" stroke-miterlimit="10" stroke-linecap="round" stroke-linejoin="round"/>
<path d="M60.8242 43.5734L66.3454 52.2526L85.9386 52.5871L91.6498 61.3734L106.68 64.5609" stroke="#E02066" stroke-width="1.6884" stroke-miterlimit="10" stroke-linecap="round" stroke-linejoin="round"/>
<path d="M60.1175 43.1667C60.5083 42.9418 61.1399 42.9418 61.5306 43.1667C61.9213 43.3915 61.9213 43.7581 61.5306 43.9829C61.1399 44.2077 60.5083 44.2077 60.1175 43.9829C59.7268 43.7581 59.7268 43.3915 60.1175 43.1667Z" fill="#FFA742"/>
<path d="M85.141 52.1778C85.5317 51.953 86.1633 51.953 86.5541 52.1778C86.9448 52.4026 86.9448 52.7692 86.5541 52.994C86.1633 53.2188 85.5317 53.2188 85.141 52.994C84.7502 52.7692 84.7502 52.4052 85.141 52.1778Z" fill="#FFA742"/>
<path d="M91.6497 61.9488C92.2011 61.9488 92.648 61.6912 92.648 61.3734C92.648 61.0556 92.2011 60.798 91.6497 60.798C91.0984 60.798 90.6515 61.0556 90.6515 61.3734C90.6515 61.6912 91.0984 61.9488 91.6497 61.9488Z" fill="#FFA742"/>
<path d="M106.616 65.1015C107.167 65.1015 107.614 64.8439 107.614 64.5261C107.614 64.2083 107.167 63.9507 106.616 63.9507C106.064 63.9507 105.617 64.2083 105.617 64.5261C105.617 64.8439 106.064 65.1015 106.616 65.1015Z" fill="#FFA742"/>
<path d="M63.1285 42.2163L70.3224 43.5732L70.9245 49.4048L80.8831 49.7902L85.4247 58.3276" stroke="white" stroke-width="0.8442" stroke-miterlimit="10" stroke-linecap="round" stroke-linejoin="round"/>
<path d="M62.6707 41.9541C62.9223 41.8096 63.3291 41.8096 63.5807 41.9541C63.8322 42.0986 63.8322 42.3341 63.5807 42.4813C63.3291 42.6258 62.9223 42.6258 62.6707 42.4813C62.4192 42.3341 62.4192 42.0986 62.6707 41.9541Z" fill="white"/>
<path d="M69.8726 43.3109C70.1242 43.1664 70.531 43.1664 70.7826 43.3109C71.0342 43.4554 71.0342 43.6909 70.7826 43.8381C70.531 43.9827 70.1242 43.9827 69.8726 43.8381C69.6211 43.6909 69.6211 43.4554 69.8726 43.3109Z" fill="white"/>
<path d="M84.9696 58.1831C85.2212 58.0386 85.628 58.0386 85.8795 58.1831C86.1311 58.3276 86.1311 58.5631 85.8795 58.7103C85.628 58.8548 85.2212 58.8548 84.9696 58.7103C84.718 58.5631 84.718 58.3276 84.9696 58.1831Z" fill="white"/>
<path d="M80.8562 50.1783C81.2124 50.1783 81.5012 50.0118 81.5012 49.8063C81.5012 49.6009 81.2124 49.4343 80.8562 49.4343C80.5 49.4343 80.2112 49.6009 80.2112 49.8063C80.2112 50.0118 80.5 50.1783 80.8562 50.1783Z" fill="white"/>
<path d="M70.5177 49.1721C70.7693 49.0276 71.1761 49.0276 71.4276 49.1721C71.6792 49.3166 71.6792 49.5521 71.4276 49.6993C71.1761 49.8439 70.7693 49.8439 70.5177 49.6993C70.2661 49.5521 70.2661 49.3166 70.5177 49.1721Z" fill="white"/>
<path d="M92.2602 92.6917L79.4915 85.3212L97.5485 74.897L110.317 82.2675L92.2602 92.6917Z" fill="white"/>
<path d="M103.027 80.0728L97.4039 76.8264L97.0721 77.0191L102.695 80.2655L103.027 80.0728Z" fill="#BFCDF2"/>
<path d="M99.3363 80.6377L95.0703 78.1755L94.7384 78.3656L99.0044 80.8304L99.3363 80.6377Z" fill="#BFCDF2"/>
<path d="M98.6886 81.0097L94.4225 78.5475L94.0934 78.7402L98.3567 81.2024L98.6886 81.0097Z" fill="#BFCDF2"/>
<path d="M98.0436 81.3842L93.7776 78.9193L93.4457 79.112L97.7118 81.5742L98.0436 81.3842Z" fill="#BFCDF2"/>
<path d="M97.3986 81.7565L93.1325 79.2943L92.8007 79.4843L97.0667 81.9492L97.3986 81.7565Z" fill="#BFCDF2"/>
<path d="M96.751 82.1285L92.485 79.6663L92.1558 79.859L96.4191 82.3211L96.751 82.1285Z" fill="#BFCDF2"/>
<path d="M96.1059 82.5031L91.8399 80.0382L91.508 80.2309L95.774 82.6931L96.1059 82.5031Z" fill="#BFCDF2"/>
<path d="M95.461 82.875L91.195 80.4128L90.8631 80.6029L95.1291 83.065L95.461 82.875Z" fill="#BFCDF2"/>
<path d="M94.8133 83.2472L90.5472 80.785L90.218 80.9777L94.4841 83.4399L94.8133 83.2472Z" fill="#BFCDF2"/>
<path d="M94.1683 83.6219L89.9023 81.157L89.5704 81.3497L93.8364 83.8119L94.1683 83.6219Z" fill="#BFCDF2"/>
<path d="M93.5233 83.9938L89.2572 81.5316L88.9254 81.7216L93.1914 84.1838L93.5233 83.9938Z" fill="#BFCDF2"/>
<path d="M92.8757 84.3658L88.6123 81.9036L88.2805 82.0963L92.5465 84.5585L92.8757 84.3658Z" fill="#BFCDF2"/>
<path d="M92.2306 84.7403L87.9645 82.2754L87.6327 82.4681L91.8987 84.9303L92.2306 84.7403Z" fill="#BFCDF2"/>
<path d="M91.5857 85.1126L87.3197 82.6504L86.9878 82.8404L91.2538 85.3026L91.5857 85.1126Z" fill="#BFCDF2"/>
<path d="M90.9381 85.4845L86.6748 83.0223L86.3429 83.215L90.6089 85.6772L90.9381 85.4845Z" fill="#BFCDF2"/>
<path d="M90.293 85.859L86.027 83.3942L85.6951 83.5869L89.9611 86.0491L90.293 85.859Z" fill="#BFCDF2"/>
<path d="M89.6481 86.2311L85.3821 83.7689L85.0502 83.9589L89.3163 86.4211L89.6481 86.2311Z" fill="#BFCDF2"/>
<path d="M89.0031 86.6033L84.737 84.1411L84.4052 84.3338L88.6712 86.796L89.0031 86.6033Z" fill="#BFCDF2"/>
<path d="M88.3554 86.9779L84.0894 84.5131L83.7575 84.7058L88.0236 87.168L88.3554 86.9779Z" fill="#BFCDF2"/>
<path d="M87.7104 87.3499L83.4443 84.8877L83.1125 85.0777L87.3785 87.5399L87.7104 87.3499Z" fill="#BFCDF2"/>
<path d="M104.574 83.6617L100.308 81.1995L99.9784 81.3922L104.242 83.8544L104.574 83.6617Z" fill="#BFCDF2"/>
<path d="M103.929 84.0363L99.6626 81.5714L99.3308 81.7641L103.597 84.2263L103.929 84.0363Z" fill="#BFCDF2"/>
<path d="M103.284 84.4082L99.0176 81.946L98.6857 82.1361L102.952 84.5983L103.284 84.4082Z" fill="#BFCDF2"/>
<path d="M102.636 84.7804L98.37 82.3182L98.0409 82.5109L102.304 84.9731L102.636 84.7804Z" fill="#BFCDF2"/>
<path d="M101.991 85.1551L97.7251 82.6902L97.3932 82.8829L101.659 85.3451L101.991 85.1551Z" fill="#BFCDF2"/>
<path d="M101.346 85.527L97.08 83.0648L96.7482 83.2548L101.014 85.717L101.346 85.527Z" fill="#BFCDF2"/>
<path d="M100.698 85.899L96.435 83.4368L96.1031 83.6295L100.369 86.0917L100.698 85.899Z" fill="#BFCDF2"/>
<path d="M100.053 86.2738L95.7873 83.809L95.4555 84.0017L99.7215 86.4639L100.053 86.2738Z" fill="#BFCDF2"/>
<path d="M99.4083 86.6458L95.1423 84.1836L94.8104 84.3736L99.0764 86.8358L99.4083 86.6458Z" fill="#BFCDF2"/>
<path d="M98.7608 87.0177L94.4974 84.5555L94.1656 84.7482L98.4316 87.2104L98.7608 87.0177Z" fill="#BFCDF2"/>
<path d="M98.1158 87.3924L93.8498 84.9275L93.5179 85.1202L97.7839 87.5824L98.1158 87.3924Z" fill="#BFCDF2"/>
<path d="M97.4709 87.7643L93.2049 85.3021L92.873 85.4921L97.139 87.9543L97.4709 87.7643Z" fill="#BFCDF2"/>
<path d="M96.8232 88.1365L92.5598 85.6743L92.228 85.8643L96.494 88.3292L96.8232 88.1365Z" fill="#BFCDF2"/>
<path d="M96.1782 88.5111L91.9122 86.0463L91.5803 86.239L95.8463 88.7011L96.1782 88.5111Z" fill="#BFCDF2"/>
<path d="M95.5332 88.8831L91.2671 86.4209L90.9353 86.6109L95.2013 89.0731L95.5332 88.8831Z" fill="#BFCDF2"/>
<path d="M94.8881 89.255L90.6221 86.7928L90.2903 86.9829L94.5563 89.4477L94.8881 89.255Z" fill="#BFCDF2"/>
<path d="M94.2406 89.6299L89.9745 87.165L89.6454 87.3577L93.9087 89.8199L94.2406 89.6299Z" fill="#BFCDF2"/>
<path d="M93.5955 90.0019L89.3294 87.5397L88.9976 87.7297L93.2636 90.1919L93.5955 90.0019Z" fill="#BFCDF2"/>
<path d="M92.9505 90.3738L88.6845 87.9116L88.3527 88.1016L92.6187 90.5665L92.9505 90.3738Z" fill="#BFCDF2"/>
<path d="M88.9149 84.3389L76.1489 76.9684L94.2059 66.5415L106.975 73.912L88.9149 84.3389Z" fill="white"/>
<path d="M99.6816 71.72L94.0587 68.4736L93.7295 68.6636L99.3524 71.91L99.6816 71.72Z" fill="#BFCDF2"/>
<path d="M95.991 72.2843L91.725 69.8195L91.3931 70.0122L95.6591 72.4744L95.991 72.2843Z" fill="#BFCDF2"/>
<path d="M95.346 72.6563L91.0799 70.1941L90.7481 70.3841L95.0141 72.8463L95.346 72.6563Z" fill="#BFCDF2"/>
<path d="M94.6982 73.0282L90.4322 70.566L90.103 70.7561L94.3664 73.2209L94.6982 73.0282Z" fill="#BFCDF2"/>
<path d="M94.0533 73.4004L89.7873 70.9382L89.4554 71.1309L93.7214 73.5931L94.0533 73.4004Z" fill="#BFCDF2"/>
<path d="M93.4084 73.7751L89.1424 71.3129L88.8105 71.5029L93.0765 73.9651L93.4084 73.7751Z" fill="#BFCDF2"/>
<path d="M92.7607 74.147L88.4946 71.6848L88.1655 71.8748L92.4288 74.3397L92.7607 74.147Z" fill="#BFCDF2"/>
<path d="M92.1157 74.519L87.8497 72.0568L87.5178 72.2495L91.7838 74.7116L92.1157 74.519Z" fill="#BFCDF2"/>
<path d="M91.4708 74.8938L87.2048 72.4316L86.8729 72.6217L91.1389 75.0839L91.4708 74.8938Z" fill="#BFCDF2"/>
<path d="M90.8231 75.2658L86.5597 72.8036L86.2279 72.9936L90.4939 75.4585L90.8231 75.2658Z" fill="#BFCDF2"/>
<path d="M90.1781 75.6377L85.9121 73.1755L85.5803 73.3682L89.8463 75.8304L90.1781 75.6377Z" fill="#BFCDF2"/>
<path d="M89.5331 76.0124L85.2671 73.5502L84.9352 73.7402L89.2012 76.2024L89.5331 76.0124Z" fill="#BFCDF2"/>
<path d="M88.8855 76.3843L84.6222 73.9221L84.2903 74.1121L88.5563 76.577L88.8855 76.3843Z" fill="#BFCDF2"/>
<path d="M88.2404 76.7565L83.9744 74.2943L83.6425 74.487L87.9085 76.9492L88.2404 76.7565Z" fill="#BFCDF2"/>
<path d="M87.5955 77.1311L83.3295 74.6663L82.9976 74.859L87.2636 77.3211L87.5955 77.1311Z" fill="#BFCDF2"/>
<path d="M86.9505 77.5031L82.6844 75.0409L82.3526 75.2309L86.6186 77.6958L86.9505 77.5031Z" fill="#BFCDF2"/>
<path d="M86.3028 77.875L82.0368 75.4128L81.7049 75.6055L85.9709 78.0677L86.3028 77.875Z" fill="#BFCDF2"/>
<path d="M85.6578 78.2499L81.3918 75.785L81.0599 75.9777L85.3259 78.4399L85.6578 78.2499Z" fill="#BFCDF2"/>
<path d="M85.0129 78.6219L80.7469 76.1597L80.415 76.3497L84.681 78.8146L85.0129 78.6219Z" fill="#BFCDF2"/>
<path d="M84.3652 78.9938L80.0991 76.5316L79.77 76.7243L84.0333 79.1865L84.3652 78.9938Z" fill="#BFCDF2"/>
<path d="M101.231 75.3085L96.9649 72.8463L96.6331 73.0363L100.899 75.4985L101.231 75.3085Z" fill="#BFCDF2"/>
<path d="M100.583 75.6805L96.3174 73.2183L95.9882 73.4083L100.252 75.8731L100.583 75.6805Z" fill="#BFCDF2"/>
<path d="M99.9383 76.0523L95.6723 73.5901L95.3404 73.7828L99.6064 76.245L99.9383 76.0523Z" fill="#BFCDF2"/>
<path d="M99.2934 76.4273L95.0274 73.9651L94.6955 74.1551L98.9615 76.6173L99.2934 76.4273Z" fill="#BFCDF2"/>
<path d="M98.6458 76.7992L94.3798 74.337L94.0506 74.5271L98.314 76.9919L98.6458 76.7992Z" fill="#BFCDF2"/>
<path d="M98.0007 77.1712L93.7347 74.709L93.4028 74.9017L97.6689 77.3639L98.0007 77.1712Z" fill="#BFCDF2"/>
<path d="M97.3558 77.546L93.0898 75.0812L92.7579 75.2739L97.024 77.7361L97.3558 77.546Z" fill="#BFCDF2"/>
<path d="M96.7081 77.918L92.4447 75.4558L92.1129 75.6458L96.3789 78.1107L96.7081 77.918Z" fill="#BFCDF2"/>
<path d="M96.0631 78.2899L91.7971 75.8278L91.4652 76.0205L95.7313 78.4826L96.0631 78.2899Z" fill="#BFCDF2"/>
<path d="M95.4181 78.6645L91.1521 76.1996L90.8202 76.3923L95.0862 78.8545L95.4181 78.6645Z" fill="#BFCDF2"/>
<path d="M94.7705 79.0368L90.5072 76.5746L90.1753 76.7646L94.4413 79.2295L94.7705 79.0368Z" fill="#BFCDF2"/>
<path d="M94.1256 79.4087L89.8595 76.9465L89.5277 77.1392L93.7937 79.6014L94.1256 79.4087Z" fill="#BFCDF2"/>
<path d="M93.4805 79.7834L89.2145 77.3185L88.8826 77.5112L93.1487 79.9734L93.4805 79.7834Z" fill="#BFCDF2"/>
<path d="M92.8355 80.1553L88.5694 77.6931L88.2376 77.8831L92.5036 80.3453L92.8355 80.1553Z" fill="#BFCDF2"/>
<path d="M92.1878 80.5271L87.9218 78.0649L87.5899 78.2576L91.856 80.7198L92.1878 80.5271Z" fill="#BFCDF2"/>
<path d="M91.5428 80.9021L87.2768 78.4373L86.9449 78.6299L91.2109 81.0921L91.5428 80.9021Z" fill="#BFCDF2"/>
<path d="M90.8979 81.2741L86.6319 78.8119L86.3 79.0019L90.566 81.4641L90.8979 81.2741Z" fill="#BFCDF2"/>
<path d="M90.2502 81.646L85.9842 79.1838L85.655 79.3765L89.9183 81.8387L90.2502 81.646Z" fill="#BFCDF2"/>
<path d="M89.6052 82.0205L85.3392 79.5557L85.0073 79.7484L89.2733 82.2105L89.6052 82.0205Z" fill="#BFCDF2"/>
<path d="M65.417 84.9731L66.0298 77.8301L54.5646 78.7079L57.5326 80.4234L36.4674 94.4098L41.3838 97.2493L62.4489 83.2603L65.417 84.9731Z" fill="url(#paint5_linear_585_11539)"/>
<path d="M66.442 32.7559L60.7442 22.6903L55.0463 26.1748L57.7574 27.7405L57.7761 34.359C57.7895 38.6544 54.7573 43.9053 51.0185 46.0624C49.1371 47.149 47.4296 47.248 46.1958 46.5308L51.3557 49.5282C52.5895 50.2455 54.297 50.1465 56.1784 49.0599C59.9172 46.9028 62.9494 41.6519 62.9361 37.3564L62.9173 30.7192L66.442 32.7559Z" fill="url(#paint6_linear_585_11539)"/>
<path d="M51.2485 49.5363L46.0886 46.5389C44.8442 45.8163 44.0734 44.2801 44.0654 42.1016C44.06 39.9686 43.3026 38.4645 42.0849 37.7579L47.2448 40.7554C48.4625 41.4619 49.2172 42.966 49.2253 45.099C49.2333 47.2775 50.0041 48.8137 51.2485 49.5363Z" fill="#E02066"/>
<path d="M42.5051 37.9932L47.6651 40.9907C46.4045 40.2574 44.6596 40.3591 42.738 41.4698C38.9189 43.675 35.8198 49.041 35.8331 53.4301L30.6732 50.4327C30.6598 46.0436 33.759 40.6776 37.5781 38.4723C39.5023 37.3616 41.2473 37.2599 42.5051 37.9932Z" fill="url(#paint7_linear_585_11539)"/>
<path d="M64.5904 67.2026C65.313 67.6202 65.3157 68.2946 64.5985 68.7121L26.2846 90.9762C25.5673 91.3937 24.4031 91.391 23.6805 90.9762L0.554622 77.6242C-0.167979 77.2067 -0.173334 76.5322 0.543914 76.1147L38.8578 53.8479C39.5751 53.4304 40.7419 53.4304 41.4645 53.8479L64.5904 67.2026Z" fill="#2D4483"/>
<path d="M64.5978 68.6771L26.2839 90.9412C25.5667 91.3587 24.4025 91.3561 23.6799 90.9412L0.553996 77.5892C0.190019 77.3804 0.00802857 77.1048 0.00802857 76.8291L0 80.0674C0 80.3431 0.181991 80.6187 0.545967 80.8275L23.6719 94.1795C24.3945 94.597 25.5587 94.597 26.2759 94.1795L64.5898 71.9127C64.9458 71.7067 65.1251 71.4337 65.1251 71.1634L65.1331 67.925C65.1331 68.198 64.9538 68.4683 64.5978 68.6771Z" fill="#1C2A52"/>
<path d="M30.7803 88.3641L26.2921 90.9735C25.5749 91.391 24.4107 91.3883 23.6907 90.9735L0.564847 77.6214C-0.155078 77.2066 -0.16043 76.5321 0.556818 76.1146L5.04497 73.5052L30.7803 88.3641Z" fill="url(#paint8_linear_585_11539)"/>
<path d="M62.3231 70.0313L30.7802 88.364L5.04224 73.5025L36.5851 55.1725L62.3231 70.0313Z" fill="url(#paint9_linear_585_11539)"/>
<path d="M64.5658 67.216C65.2857 67.6308 65.3232 68.2892 64.6059 68.704L62.3257 70.0288L36.5878 55.1699L38.868 53.8452C39.5852 53.4277 40.7173 53.4491 41.4372 53.8639L64.5658 67.216Z" fill="url(#paint10_linear_585_11539)"/>
<path d="M13.4725 81.3922C14.5109 80.7928 16.1917 80.7928 17.2301 81.3922C18.2685 81.9917 18.2685 82.9632 17.2301 83.5627C16.1917 84.1622 14.5109 84.1622 13.4725 83.5627C12.4341 82.9632 12.4341 81.9917 13.4725 81.3922Z" fill="#1C2A52"/>
<path d="M19.3952 90.3978C19.3952 90.0954 19.6066 89.9723 19.8689 90.1248C20.1312 90.2774 20.3426 90.644 20.3426 90.9465C20.3426 91.2489 20.1312 91.372 19.8689 91.2195C19.6093 91.0669 19.3952 90.7003 19.3952 90.3978Z" fill="#759BFF"/>
<path d="M59.834 73.1142C59.834 72.6539 60.1579 72.0946 60.554 71.8644C60.9527 71.6343 61.2739 71.8216 61.2739 72.2819C61.2739 72.7422 60.9501 73.3016 60.554 73.5318C60.1552 73.7619 59.834 73.5746 59.834 73.1142Z" fill="#759BFF"/>
<path d="M57.3156 74.5354C57.3156 74.0751 57.6394 73.5157 58.0355 73.2856C58.4342 73.0554 58.7554 73.2427 58.7554 73.7031C58.7554 74.1634 58.4316 74.7227 58.0355 74.9529C57.6367 75.1804 57.3156 74.9957 57.3156 74.5354Z" fill="#759BFF"/>
<path d="M71.4626 65.2488V66.6672" stroke="#FAB08B" stroke-width="5.5198" stroke-miterlimit="10" stroke-linecap="round" stroke-linejoin="round"/>
<path d="M70.17 67.2075C70.17 67.2075 67.9246 68.8909 67.6168 70.7054C67.3438 72.3059 68.0959 73.2934 69.814 75.1374" stroke="url(#paint11_linear_585_11539)" stroke-width="4.9476" stroke-miterlimit="10" stroke-linecap="round" stroke-linejoin="round"/>
<path d="M71.8481 76.4514C71.6982 76.6709 71.4092 76.7512 71.1656 76.6361L70.2155 76.1865C69.8194 75.9991 69.6856 75.5013 69.9318 75.14C70.1781 74.7787 70.6919 74.7225 71.0104 75.025L71.7731 75.7475C71.9685 75.9322 72.0006 76.2293 71.8481 76.4514Z" fill="#FAB08B"/>
<path d="M72.0514 94.1072C72.0514 94.1072 72.5518 94.5996 72.881 94.5193C73.3734 94.3962 75.2388 93.8663 75.8517 93.1169C76.4619 92.3649 75.7768 92.1454 75.2228 92.2819C73.6625 92.6646 73.1272 92.8787 72.5839 93.0313C72.0701 93.1678 71.8426 93.794 72.0514 94.1072Z" fill="#070D30"/>
<path d="M69.3912 92.6326C69.3912 92.6326 69.8916 93.125 70.2208 93.0448C70.7133 92.9217 72.5786 92.3917 73.1915 91.6424C73.8017 90.8903 73.1166 90.6709 72.5626 90.8074C71.0023 91.1901 70.467 91.4042 69.9237 91.5567C69.4099 91.6932 69.1824 92.3195 69.3912 92.6326Z" fill="#070D30"/>
<path d="M72.8115 93.2321L73.2397 90.588" stroke="#D6E9F4" stroke-width="3.8606" stroke-miterlimit="10" stroke-linecap="round" stroke-linejoin="round"/>
<path d="M70.2449 91.6558L70.8792 89.0518" stroke="#D6E9F4" stroke-width="3.8606" stroke-miterlimit="10" stroke-linecap="round" stroke-linejoin="round"/>
<path d="M69.5009 75.9218C70.5473 75.9084 72.7981 76.3768 73.9891 76.5427C74.4226 77.367 74.5832 78.2475 74.3905 79.1039C74.7679 81.1379 74.7384 82.4279 74.7545 84.6599C74.7705 86.8893 74.4173 89.86 73.9596 92.191C73.874 92.6246 73.6492 92.729 73.2879 92.7423C73.146 92.7477 72.9212 92.7129 72.7927 92.6781C72.4689 92.5898 72.212 92.3998 72.2976 91.9876C72.7633 89.7395 73.1781 86.8063 73.0978 84.676C73.0176 82.5456 72.9212 81.4671 72.4716 79.5749C72.1906 79.5054 71.9096 79.417 71.6179 79.2859C71.8668 80.897 71.8052 81.5982 71.8694 83.4368C71.9337 85.2728 71.9337 88.8242 71.4519 90.8315C71.3395 91.2945 71.0879 91.4764 70.6678 91.5166C70.6009 91.5219 70.4992 91.5166 70.443 91.5005C69.8488 91.3025 69.7632 90.8234 69.8488 90.3551C70.2235 88.305 70.3332 85.4896 70.2342 83.5091C70.1379 81.5286 68.5321 75.9325 69.5009 75.9218Z" fill="#1C2A52"/>
<path d="M68.7488 76.101C68.7408 76.5373 68.9522 76.9467 69.3162 77.193C70.1699 77.7657 71.5857 78.5151 72.3671 78.6248C74.2593 78.8924 74.4145 77.6533 74.4145 77.6533C74.4145 77.6533 74.361 70.2373 74.0933 68.7011C73.9515 67.8821 73.3146 67.4673 72.6455 67.0284C72.5598 66.9749 72.4795 66.9213 72.4046 66.8732C71.9015 66.56 71.3207 66.3727 70.7292 66.378C70.5687 66.3807 70.4241 66.3941 70.2957 66.4209C69.6266 66.5466 69.3349 66.9481 69.1128 67.2719C68.9736 67.4753 68.896 67.7162 68.8906 67.9624L68.7488 76.101Z" fill="url(#paint12_linear_585_11539)"/>
<path d="M73.9409 63.0621C74.3691 64.2905 73.9918 65.6983 73.0363 66.0301C72.8972 66.0783 72.7526 66.1024 72.6081 66.1024C71.931 66.1051 71.2191 65.6073 70.7695 64.8766C70.6544 64.6893 70.5554 64.4832 70.4805 64.2691C70.4698 64.2397 70.459 64.2102 70.451 64.1808C70.4296 64.1166 70.4136 64.0523 70.3975 63.9881C70.2102 63.2173 70.3788 62.5108 70.7936 62.0451C70.9274 61.8952 71.0853 61.7721 71.2646 61.6785C71.3342 61.6437 71.4065 61.6115 71.4814 61.5848C72.2174 61.3279 73.0283 61.6169 73.5555 62.3288C73.7134 62.5375 73.8419 62.7838 73.9409 63.0621Z" fill="#FAB08B"/>
<path d="M70.2931 62.2431C71.0586 60.0941 73.0819 61.0281 73.5904 62.0611C73.6867 62.2565 73.5984 62.4171 73.4003 62.5215C73.3495 62.7302 73.2585 62.9764 73.0819 63.0728C72.75 63.2548 73.4993 63.7178 73.2906 63.9238C73.0818 64.1299 72.8303 63.6937 72.568 63.9238C72.2201 64.2316 73.0256 64.7053 72.6189 64.9168C72.2121 65.1282 71.8989 66.0622 70.9488 65.8615C69.9988 65.6608 69.7311 64.4404 69.6401 63.683C69.5491 62.9202 70.0095 62.4091 70.2931 62.2431Z" fill="#070D30"/>
<path d="M73.2906 64.1595C73.4084 64.4539 73.3334 64.8018 73.1033 64.8928C72.8731 64.9838 72.5787 64.7858 72.461 64.4914C72.3432 64.197 72.4476 63.916 72.6751 63.825C72.9052 63.734 73.1728 63.8651 73.2906 64.1595Z" fill="#FAB08B"/>
<path d="M73.4565 69.006C73.4565 69.006 75.7233 70.6599 77.5459 70.4271C79.157 70.221 79.8796 69.2147 81.1428 67.0309" stroke="url(#paint13_linear_585_11539)" stroke-width="4.9476" stroke-miterlimit="10" stroke-linecap="round" stroke-linejoin="round"/>
<path d="M81.8064 64.7052C82.0607 64.7854 82.2213 65.037 82.1811 65.302L82.0286 66.343C81.9643 66.7766 81.5281 67.0496 81.1106 66.9211C80.6931 66.79 80.4897 66.3163 80.6851 65.9229L81.1534 64.9808C81.2738 64.7426 81.5495 64.6249 81.8064 64.7052Z" fill="#FAB08B"/>
<path d="M30.071 78.6274L30.0683 79.706L27.317 79.3554L27.3197 78.2742L30.071 78.6274Z" fill="#3E668E"/>
<path d="M34.5537 80.1261L34.551 81.2047L32.2467 80.2653L32.2494 79.1841L34.5537 80.1261Z" fill="#36597C"/>
<path d="M34.4263 74.5997L34.5547 80.1263L32.2504 79.1842L29.3386 83.0274L27.1601 82.4681L30.0719 78.6276L27.3207 78.2743L34.4263 74.5997Z" fill="#5286BB"/>
<path d="M32.2493 79.1841L32.2466 80.2653L29.3348 84.1058L29.3374 83.0273L32.2493 79.1841Z" fill="#446F9B"/>
<path d="M29.3376 83.0275L29.3349 84.106L27.1564 83.5494L27.1591 82.4681L29.3376 83.0275Z" fill="#3A6085"/>
<path d="M32.8008 49.3517C31.5242 48.6104 29.7578 48.7148 27.8095 49.8415C23.9342 52.0789 20.8029 57.5038 20.8163 61.9544C20.8216 64.1677 21.6031 65.7227 22.8637 66.456L24.0145 67.125C22.7539 66.3944 21.9751 64.8368 21.9671 62.6235C21.9537 58.1728 25.085 52.748 28.9603 50.5106C30.9113 49.3839 32.6777 49.2795 33.9516 50.0208L32.8008 49.3517Z" fill="#6C8DE6"/>
<path d="M28.9576 50.5427C32.8329 48.3054 35.9829 50.1038 35.9963 54.5545C36.0097 59.0079 32.8784 64.4301 29.0031 66.6675C25.1279 68.9048 21.9779 67.109 21.9645 62.6557C21.9538 58.205 25.0824 52.7801 28.9576 50.5427Z" fill="#4367C7"/>
<path d="M33.7003 55.5131C33.5959 55.4649 33.454 55.489 33.3122 55.572L33.2988 55.58C33.4862 55.2642 33.6066 55.0207 33.5905 54.7396C33.5691 54.365 33.2774 54.2338 32.9402 54.4292L32.5682 54.6433L31.23 55.4167L30.7429 55.6978L31.123 53.0884C31.131 53.0402 31.1337 52.9947 31.1337 52.9492C31.1337 52.0687 30.6118 51.6298 30.0498 51.9509C29.8839 52.0473 29.7474 52.2882 29.7474 52.4808V54.0545C29.7474 54.1268 29.7634 54.1964 29.7286 54.2766L28.5323 57.0145C28.4039 57.3089 28.1898 57.5631 27.9596 57.697L27.3949 58.0235V62.2922L28.1737 61.8425C28.3262 61.7542 28.4574 61.781 28.5377 61.888C28.6501 62.0406 28.8428 62.0406 29.0622 61.9121L32.3059 60.0387C32.6565 59.8353 32.9429 59.3375 32.9429 58.9334C32.9429 58.7702 32.884 58.6577 32.8064 58.5801C33.1543 58.3714 33.4299 57.9352 33.4299 57.531C33.4299 57.3276 33.3523 57.1028 33.2399 57.1697L33.3149 57.1269C33.8448 56.8165 34.2248 55.7566 33.7003 55.5131Z" fill="white"/>
<path d="M27.4028 62.7659L24.9192 64.2004C24.7934 64.2726 24.6891 64.195 24.6891 64.0264V59.474C24.6891 59.3054 24.7908 59.1101 24.9192 59.0351L27.4028 57.6006C27.5286 57.5284 27.633 57.606 27.633 57.7746V62.3297C27.633 62.4983 27.5313 62.6936 27.4028 62.7659Z" fill="#90C0F0"/>
<path d="M12.1236 57.2973C11.2753 56.8049 10.103 56.8745 8.80771 57.6211C6.23311 59.1065 4.1563 62.7088 4.16433 65.6634C4.16968 67.1327 4.68621 68.1658 5.52389 68.6529L6.28663 69.0971C5.45163 68.61 4.93243 67.577 4.92708 66.1077C4.91905 63.1531 6.99586 59.5508 9.57046 58.0654C10.8658 57.3187 12.038 57.2491 12.8864 57.7416L12.1236 57.2973Z" fill="#6C8DE6"/>
<path d="M9.57305 58.1003C12.1477 56.615 14.2378 57.8086 14.2459 60.7632C14.2539 63.7205 12.1771 67.3202 9.6025 68.8055C7.0279 70.2908 4.93771 69.0999 4.92968 66.1426C4.92165 63.188 6.99845 59.5857 9.57305 58.1003Z" fill="#4367C7"/>
<path d="M12.7203 61.3998C12.6507 61.3677 12.5571 61.3837 12.4634 61.4373L12.4554 61.4426C12.5812 61.2339 12.6614 61.0706 12.6507 60.8833C12.6347 60.6344 12.442 60.5487 12.2199 60.6772L11.9736 60.819L11.0851 61.3329L10.7613 61.5202L11.0128 59.786C11.0182 59.7539 11.0209 59.7244 11.0209 59.695C11.0209 59.1089 10.6729 58.8172 10.3009 59.0339C10.1912 59.0982 10.1002 59.2588 10.1002 59.3845V60.4283C10.1002 60.4765 10.1109 60.522 10.0868 60.5755L9.29198 62.3927C9.20634 62.5881 9.06449 62.7567 8.91194 62.845L8.53726 63.0618V65.896L9.05379 65.5989C9.15549 65.54 9.24381 65.5588 9.29466 65.6283C9.3696 65.73 9.49805 65.73 9.64258 65.6444L11.797 64.3999C12.0298 64.2661 12.2199 63.9342 12.2199 63.6666C12.2199 63.5596 12.1824 63.482 12.1289 63.4311C12.359 63.2919 12.5437 63.0029 12.5437 62.7353C12.5437 62.6014 12.4928 62.4516 12.4179 62.4944L12.4661 62.465C12.8167 62.2642 13.0709 61.5604 12.7203 61.3998Z" fill="white"/>
<path d="M8.54 66.2143L6.88872 67.1671C6.80575 67.2152 6.73618 67.1644 6.73618 67.052V64.0278C6.73618 63.9154 6.80308 63.7869 6.88872 63.7361L8.54 62.7833C8.62296 62.7351 8.69255 62.786 8.69255 62.8984V65.9226C8.69255 66.0377 8.62296 66.1661 8.54 66.2143Z" fill="#90C0F0"/>
<path d="M37.1524 59.7996C36.2397 59.2697 34.9765 59.3446 33.5795 60.1502C30.8069 61.7506 28.5668 65.6339 28.5748 68.8187C28.5802 70.4031 29.1368 71.5164 30.0388 72.0383L30.8631 72.5174C29.9611 71.9928 29.4045 70.8795 29.3991 69.2978C29.3911 66.113 31.6312 62.2323 34.4038 60.6292C35.7982 59.8237 37.064 59.7487 37.9767 60.2786L37.1524 59.7996Z" fill="#6C8DE6"/>
<path d="M34.404 60.6615C37.1767 59.0611 39.4328 60.3457 39.4408 63.5331C39.4489 66.7206 37.2088 70.5986 34.4362 72.2017C31.6635 73.8021 29.4074 72.5175 29.3994 69.33C29.3887 66.1452 31.6287 62.2619 34.404 60.6615Z" fill="#4367C7"/>
<path d="M37.7947 64.2183C37.7198 64.1835 37.6181 64.2022 37.5164 64.2584L37.5057 64.2638C37.6395 64.039 37.7278 63.8623 37.7144 63.6616C37.6984 63.394 37.4896 63.3003 37.2487 63.4395L36.9838 63.592L36.0257 64.146L35.6778 64.3467L35.9507 62.4787C35.9561 62.4439 35.9588 62.4118 35.9588 62.3797C35.9588 61.7507 35.5841 61.4349 35.1826 61.6651C35.0622 61.7347 34.9659 61.906 34.9659 62.0451V63.1718C34.9659 63.2227 34.9766 63.2735 34.9525 63.3297L34.0961 65.2888C34.0051 65.5002 33.8498 65.6822 33.6866 65.7759L33.2825 66.0087V69.065L33.8391 68.7439C33.9489 68.6797 34.0425 68.7011 34.0987 68.776C34.179 68.8857 34.3182 68.8831 34.4734 68.7947L36.7938 67.4539C37.0453 67.3094 37.2514 66.9535 37.2514 66.6617C37.2514 66.5467 37.2113 66.4637 37.1551 66.4102C37.404 66.2603 37.602 65.9472 37.602 65.6608C37.602 65.5163 37.5485 65.3557 37.4655 65.4012L37.519 65.3718C37.8991 65.1496 38.1721 64.3922 37.7947 64.2183Z" fill="white"/>
<path d="M33.2906 69.4076L31.5135 70.4352C31.4225 70.4888 31.3503 70.4326 31.3503 70.3121V67.0524C31.3503 66.932 31.4225 66.7901 31.5135 66.7393L33.2906 65.7116C33.3816 65.6581 33.4538 65.7143 33.4538 65.8347V69.0944C33.4538 69.2149 33.3816 69.3567 33.2906 69.4076Z" fill="#90C0F0"/>
<defs>
<linearGradient id="paint0_linear_585_11539" x1="75.0092" y1="27.2028" x2="120.54" y2="27.2028" gradientUnits="userSpaceOnUse">
<stop stop-color="white"/>
<stop offset="1" stop-color="#77B2ED"/>
</linearGradient>
<linearGradient id="paint1_linear_585_11539" x1="102.212" y1="12.5808" x2="109.364" y2="29.7967" gradientUnits="userSpaceOnUse">
<stop stop-color="white"/>
<stop offset="1" stop-color="#FFA742"/>
</linearGradient>
<linearGradient id="paint2_linear_585_11539" x1="93.6792" y1="79.1865" x2="119.68" y2="79.1865" gradientUnits="userSpaceOnUse">
<stop stop-color="white"/>
<stop offset="1" stop-color="#77B2ED"/>
</linearGradient>
<linearGradient id="paint3_linear_585_11539" x1="55.0097" y1="91.6124" x2="65.2771" y2="91.6124" gradientUnits="userSpaceOnUse">
<stop stop-color="white"/>
<stop offset="1" stop-color="#77B2ED"/>
</linearGradient>
<linearGradient id="paint4_linear_585_11539" x1="31.3789" y1="43.6605" x2="57.2664" y2="88.4951" gradientUnits="userSpaceOnUse">
<stop stop-color="white"/>
<stop offset="1" stop-color="#E02066"/>
</linearGradient>
<linearGradient id="paint5_linear_585_11539" x1="36.4685" y1="87.5391" x2="66.0302" y2="87.5391" gradientUnits="userSpaceOnUse">
<stop stop-color="white"/>
<stop offset="1" stop-color="#77B2ED"/>
</linearGradient>
<linearGradient id="paint6_linear_585_11539" x1="46.1949" y1="36.3405" x2="66.4422" y2="36.3405" gradientUnits="userSpaceOnUse">
<stop stop-color="white"/>
<stop offset="1" stop-color="#E02066"/>
</linearGradient>
<linearGradient id="paint7_linear_585_11539" x1="30.6736" y1="45.4767" x2="47.6657" y2="45.4767" gradientUnits="userSpaceOnUse">
<stop stop-color="white"/>
<stop offset="1" stop-color="#E02066"/>
</linearGradient>
<linearGradient id="paint8_linear_585_11539" x1="0.0190425" y1="82.3935" x2="30.7801" y2="82.3935" gradientUnits="userSpaceOnUse">
<stop stop-color="white"/>
<stop offset="1" stop-color="#2D4483"/>
</linearGradient>
<linearGradient id="paint9_linear_585_11539" x1="7.6523" y1="50.5291" x2="56.5568" y2="90.4295" gradientUnits="userSpaceOnUse">
<stop stop-color="white"/>
<stop offset="1" stop-color="#5986FF"/>
</linearGradient>
<linearGradient id="paint10_linear_585_11539" x1="36.5863" y1="61.7874" x2="65.1245" y2="61.7874" gradientUnits="userSpaceOnUse">
<stop stop-color="white"/>
<stop offset="1" stop-color="#2D4483"/>
</linearGradient>
<linearGradient id="paint11_linear_585_11539" x1="66.9016" y1="71.173" x2="70.8328" y2="71.173" gradientUnits="userSpaceOnUse">
<stop stop-color="white"/>
<stop offset="1" stop-color="#FFA742"/>
</linearGradient>
<linearGradient id="paint12_linear_585_11539" x1="61.2237" y1="64.6635" x2="73.0526" y2="73.6676" gradientUnits="userSpaceOnUse">
<stop stop-color="white"/>
<stop offset="1" stop-color="#FFA742"/>
</linearGradient>
<linearGradient id="paint13_linear_585_11539" x1="72.7943" y1="68.7412" x2="81.8052" y2="68.7412" gradientUnits="userSpaceOnUse">
<stop stop-color="white"/>
<stop offset="1" stop-color="#FFA742"/>
</linearGradient>
</defs>
</svg>
