<svg width="80" height="103" viewBox="0 0 80 103" fill="none" xmlns="http://www.w3.org/2000/svg">
<path d="M7.63327 73.8225L10.1193 72.372L10.145 40.3147L7.65899 41.7652L7.63327 73.8225Z" fill="#232532"/>
<path d="M7.66016 41.7651L10.1462 40.3146L7.87018 38.9932L5.38419 40.4437L7.66016 41.7651Z" fill="#495060"/>
<path d="M5.38321 40.4443L5.35321 72.5016L7.63346 73.823L7.65918 41.7657L5.38321 40.4443Z" fill="#495060"/>
<path d="M22.811 81.4576C22.811 81.4576 21.8466 84.6944 22.8882 85.8436C23.1796 86.1664 24.4269 86.2611 25.8799 85.9469C26.8272 85.7446 27.8516 85.1678 28.7945 85.0344C31.5549 84.647 33.2008 83.1621 34.3495 81.6341C36.7926 78.3802 32.3607 79.3529 29.4632 80.3773C26.4243 81.4533 22.811 81.4576 22.811 81.4576Z" fill="#181A1C"/>
<path d="M22.6012 82.5552C23.3127 83.3687 24.3157 83.7819 25.4558 83.8895C26.7802 83.6527 28.1132 83.0157 29.0305 82.383C29.4205 82.1162 29.7591 81.8278 30.072 81.5308L23.647 60.462C23.827 55.3099 17.2263 55.7791 15.0103 55.5639C12.64 55.3315 13.0086 56.1148 13.0258 58.5079L22.6012 82.5552Z" fill="#001F3B"/>
<path d="M15.6314 60.2379C15.88 60.38 16.0514 60.6554 16.1114 61.0299C16.1114 61.0385 16.1157 61.0471 16.1157 61.0557L16.1243 66.0873L15.3356 65.631L15.327 60.6038C15.327 60.5952 15.3228 60.5909 15.3228 60.5779C15.2585 60.1992 15.087 59.928 14.8384 59.7817L15.6314 60.2379Z" fill="#1E2023"/>
<path d="M4.87325 66.5225C4.89897 66.1738 4.96327 65.8209 5.05756 65.4679C5.15186 65.1193 5.27616 64.7707 5.43046 64.4306C5.75193 63.7032 6.19341 63.006 6.71633 62.4206C6.99065 62.1107 7.2864 61.8266 7.59929 61.5856C7.7836 61.4436 7.97218 61.3144 8.16506 61.2068L13.6086 58.0777C13.7157 58.0175 13.8143 57.9658 13.9172 57.9142C14.2129 57.7764 14.4958 57.686 14.7658 57.6473C15.2202 57.5784 15.6316 57.6473 15.9703 57.8453L16.7589 58.3015C16.4203 58.1078 16.0131 58.0347 15.5545 58.1035C15.2845 58.1423 15.0016 58.2284 14.7058 58.3704C14.603 58.4177 14.5001 58.4737 14.3972 58.534L8.95373 61.6631C8.76085 61.775 8.57225 61.9041 8.38366 62.0461C8.07505 62.2872 7.77502 62.5669 7.5007 62.8811C6.98207 63.4708 6.54059 64.1638 6.21912 64.8912C6.06911 65.2312 5.94052 65.5798 5.84622 65.9285C5.75193 66.2857 5.68763 66.6387 5.65763 66.983C5.65334 67.0131 5.65335 67.0433 5.65335 67.0691L5.66192 72.1135L4.87325 71.6573L4.86469 66.6128C4.86897 66.5784 4.86897 66.5526 4.87325 66.5225Z" fill="#232532"/>
<path d="M8.95351 61.6584C7.20474 62.6613 5.78171 65.0285 5.65741 67.0644L5.66598 72.1089L7.26902 71.1878L7.26045 66.1433C7.38475 65.1189 8.09626 63.9783 8.96208 63.479L14.4055 60.3499C15.2714 59.855 15.9872 60.1735 16.12 61.0515L16.1286 66.0831L17.7274 63.38L17.7188 60.1175C17.5731 58.2452 16.1415 57.5264 14.4013 58.5293L8.95351 61.6584Z" fill="#232A2E"/>
<path d="M26.8188 100.646L27.7232 101.171C27.5903 101.093 27.406 101.102 27.2002 101.222L26.2959 100.697C26.4973 100.577 26.6859 100.568 26.8188 100.646Z" fill="#252E31"/>
<path d="M27.2001 101.219L26.2957 100.694C26.3728 100.646 26.45 100.621 26.5186 100.603L27.423 101.124C27.3501 101.146 27.2772 101.172 27.2001 101.219Z" fill="#252E31"/>
<path d="M27.424 101.129L26.5196 100.608C26.6267 100.587 26.7253 100.6 26.8067 100.638L27.7111 101.163C27.6297 101.12 27.5354 101.107 27.424 101.129Z" fill="#252E31"/>
<path d="M27.7102 101.163L26.8058 100.638C26.8101 100.642 26.8144 100.642 26.8187 100.647L27.7231 101.172C27.7188 101.167 27.7145 101.163 27.7102 101.163Z" fill="#252E31"/>
<path d="M26.678 102.957L25.7736 102.432C25.6407 102.355 25.5593 102.191 25.5593 101.959C25.5593 101.494 25.885 100.926 26.2922 100.693L27.1966 101.218C26.7894 101.451 26.4594 102.019 26.4594 102.484C26.4637 102.716 26.5494 102.88 26.678 102.957Z" fill="#252E31"/>
<path d="M26.6775 102.955L25.7731 102.43C25.6403 102.353 25.5588 102.189 25.5588 101.957C25.5588 101.78 25.606 101.587 25.6874 101.402L26.5918 101.922C26.5104 102.108 26.4632 102.301 26.4632 102.478C26.4632 102.714 26.5489 102.878 26.6775 102.955Z" fill="#252E31"/>
<path d="M26.5919 101.926L25.6875 101.405C25.7518 101.259 25.8376 101.126 25.9361 101.005L26.8405 101.53C26.7419 101.647 26.6562 101.784 26.5919 101.926Z" fill="#252E31"/>
<path d="M26.8417 101.531L25.9373 101.006C26.0445 100.877 26.1645 100.769 26.2974 100.696L27.2018 101.221C27.0689 101.295 26.9489 101.402 26.8417 101.531Z" fill="#252E31"/>
<path d="M27.1999 101.218C27.6071 100.981 27.9371 101.171 27.9371 101.636C27.9371 102.1 27.6114 102.669 27.2042 102.901C26.797 103.133 26.467 102.944 26.4627 102.483C26.4627 102.019 26.7927 101.45 27.1999 101.218Z" fill="#303A3E"/>
<path d="M13.5398 93.3624L14.4442 93.8876C14.3114 93.8101 14.1271 93.8187 13.917 93.9392L13.0169 93.4141C13.2184 93.2979 13.407 93.285 13.5398 93.3624Z" fill="#252E31"/>
<path d="M13.9169 93.9389L13.0168 93.4138C13.0939 93.3707 13.1711 93.3406 13.2397 93.3277L14.1441 93.8485C14.0712 93.8614 13.9983 93.8915 13.9169 93.9389Z" fill="#252E31"/>
<path d="M14.1443 93.8499L13.2399 93.3291C13.3471 93.3033 13.4456 93.3205 13.5271 93.3592L14.4315 93.8844C14.35 93.837 14.2514 93.8241 14.1443 93.8499Z" fill="#252E31"/>
<path d="M14.4312 93.8803L13.5269 93.3552C13.5311 93.3595 13.5354 93.3595 13.5397 93.3638L14.4441 93.8889C14.4355 93.8846 14.4355 93.8803 14.4312 93.8803Z" fill="#252E31"/>
<path d="M13.399 95.6751L12.4946 95.1543C12.3617 95.0768 12.2803 94.9133 12.2803 94.6851C12.2803 94.2203 12.6061 93.6521 13.0132 93.4154L13.9133 93.9405C13.5062 94.1729 13.1804 94.7411 13.1804 95.2059C13.1847 95.4384 13.2661 95.5976 13.399 95.6751Z" fill="#252E31"/>
<path d="M13.3986 95.6742L12.4942 95.1534C12.3613 95.0759 12.2799 94.9124 12.2799 94.6843C12.2799 94.5035 12.327 94.3141 12.4085 94.129L13.3129 94.6541C13.2314 94.8349 13.1843 95.0286 13.1843 95.2094C13.1843 95.4375 13.2657 95.5967 13.3986 95.6742Z" fill="#252E31"/>
<path d="M13.3127 94.6495L12.4083 94.1243C12.4726 93.9823 12.5583 93.8446 12.6526 93.7241L13.557 94.2492C13.4627 94.3697 13.377 94.5031 13.3127 94.6495Z" fill="#252E31"/>
<path d="M13.5616 94.2496L12.6572 93.7245C12.7644 93.5997 12.8844 93.4878 13.0172 93.4146L13.9173 93.9397C13.7888 94.0129 13.6687 94.1205 13.5616 94.2496Z" fill="#252E31"/>
<path d="M13.917 93.939C14.3242 93.7023 14.6542 93.8917 14.6542 94.3565C14.6585 94.8214 14.3285 95.3852 13.9213 95.622C13.5141 95.8544 13.1841 95.6693 13.1841 95.2002C13.1841 94.7396 13.5098 94.1715 13.917 93.939Z" fill="#303A3E"/>
<path d="M13.3991 100.598L12.4947 101.119C12.6276 101.042 12.8162 101.05 13.0176 101.166L13.922 100.646C13.7163 100.529 13.532 100.521 13.3991 100.598Z" fill="#252E31"/>
<path d="M13.0171 101.171L13.9215 100.65C13.8443 100.603 13.7672 100.573 13.6986 100.56L12.7942 101.081C12.8671 101.098 12.9399 101.128 13.0171 101.171Z" fill="#252E31"/>
<path d="M12.7939 101.081L13.6983 100.56C13.5911 100.538 13.4926 100.547 13.4111 100.59L12.5067 101.115C12.5882 101.072 12.6867 101.059 12.7939 101.081Z" fill="#252E31"/>
<path d="M12.5077 101.115L13.4121 100.59C13.4078 100.59 13.4035 100.595 13.3993 100.599L12.4949 101.12C12.4992 101.12 12.5034 101.115 12.5077 101.115Z" fill="#252E31"/>
<path d="M13.5404 102.909L14.4448 102.388C14.5734 102.311 14.6591 102.147 14.6591 101.919C14.6634 101.45 14.3333 100.886 13.9261 100.654L13.0218 101.175C13.4289 101.411 13.759 101.979 13.7547 102.444C13.7547 102.668 13.6733 102.832 13.5404 102.909Z" fill="#252E31"/>
<path d="M13.5399 102.908L14.4443 102.387C14.5729 102.31 14.6586 102.146 14.6586 101.918C14.6629 101.738 14.6114 101.544 14.53 101.363L13.6256 101.884C13.7071 102.065 13.7542 102.263 13.7542 102.439C13.7542 102.667 13.6728 102.831 13.5399 102.908Z" fill="#252E31"/>
<path d="M13.6267 101.885L14.531 101.365C14.4668 101.218 14.381 101.085 14.2825 100.964L13.3781 101.485C13.4766 101.606 13.5624 101.739 13.6267 101.885Z" fill="#252E31"/>
<path d="M13.3773 101.484L14.2817 100.964C14.1746 100.835 14.0546 100.723 13.9217 100.654L13.0173 101.175C13.1501 101.248 13.2702 101.355 13.3773 101.484Z" fill="#252E31"/>
<path d="M13.0171 101.171C12.6099 100.938 12.2799 101.128 12.2799 101.593C12.2799 102.058 12.6056 102.626 13.0128 102.858C13.42 103.091 13.75 102.905 13.75 102.441C13.7543 101.971 13.4243 101.403 13.0171 101.171Z" fill="#303A3E"/>
<path d="M26.768 93.2944L25.8636 93.8152C25.9964 93.7377 26.1807 93.7463 26.3865 93.8668L27.2909 93.3417C27.0851 93.2298 26.9008 93.2169 26.768 93.2944Z" fill="#252E31"/>
<path d="M26.3854 93.872L27.2898 93.3469C27.2126 93.3038 27.1355 93.2737 27.0669 93.2565L26.1625 93.7773C26.2311 93.7988 26.3082 93.8246 26.3854 93.872Z" fill="#252E31"/>
<path d="M26.1633 93.7811L27.0677 93.2603C26.9605 93.2388 26.862 93.2517 26.7848 93.2947L25.8804 93.8155C25.9576 93.7682 26.0519 93.7596 26.1633 93.7811Z" fill="#252E31"/>
<path d="M25.8761 93.8127L26.7805 93.2919C26.7719 93.2919 26.7719 93.2962 26.7677 93.3005L25.8633 93.8213C25.8675 93.817 25.8718 93.8127 25.8761 93.8127Z" fill="#252E31"/>
<path d="M26.9044 95.6066L27.8088 95.0815C27.9417 95.0084 28.0231 94.8405 28.0231 94.6124C28.0231 94.1475 27.6974 93.5794 27.2902 93.3427L26.3858 93.8678C26.793 94.1002 27.123 94.6683 27.1187 95.1332C27.1187 95.3656 27.0373 95.5292 26.9044 95.6066Z" fill="#252E31"/>
<path d="M26.9037 95.6074L27.8081 95.0822C27.9409 95.0091 28.0224 94.8412 28.0224 94.6131C28.0224 94.4323 27.9752 94.2429 27.8938 94.0579L26.9894 94.583C27.0708 94.7637 27.118 94.9574 27.118 95.1382C27.118 95.3663 27.0365 95.5299 26.9037 95.6074Z" fill="#252E31"/>
<path d="M26.9949 94.5834L27.8993 94.0583C27.835 93.9163 27.7493 93.7785 27.6507 93.658L26.7463 94.1831C26.8449 94.3036 26.9264 94.4414 26.9949 94.5834Z" fill="#252E31"/>
<path d="M26.7457 94.1821L27.6501 93.657C27.5472 93.5322 27.4229 93.4203 27.2901 93.3471L26.3857 93.8722C26.5143 93.9454 26.6386 94.053 26.7457 94.1821Z" fill="#252E31"/>
<path d="M26.3854 93.871C25.9782 93.6386 25.6482 93.8237 25.6439 94.2928C25.6439 94.7576 25.9696 95.3258 26.3811 95.5582C26.784 95.7906 27.1184 95.6056 27.1184 95.1364C27.1226 94.6716 26.7926 94.1034 26.3854 93.871Z" fill="#303A3E"/>
<path d="M12.3182 92.1835L12.3225 94.1893L18.0746 97.5164L18.0703 95.5106L12.3182 92.1835Z" fill="#25282B"/>
<path d="M18.0703 95.5112L18.0746 97.5169L20.162 96.3204L20.1577 94.3103L18.0703 95.5112Z" fill="#181A1C"/>
<path d="M14.4061 90.9836L12.3187 92.1845L18.0708 95.5116L20.1582 94.3107L14.4061 90.9836Z" fill="#2A2F32"/>
<path d="M22.2323 95.5107L22.2366 97.5164L28.023 94.1893L28.0187 92.1836L22.2323 95.5107Z" fill="#181A1C"/>
<path d="M20.1451 96.7077L20.1494 98.7221L22.2367 97.5169L22.2325 95.5112L20.1451 96.7077Z" fill="#181A1C"/>
<path d="M14.3544 100.039L14.3587 102.049L20.1493 98.7216L20.145 96.7073L14.3544 100.039Z" fill="#181A1C"/>
<path d="M20.1451 96.7073L20.1494 98.7216L25.9015 102.049L25.8972 100.039L20.1451 96.7073Z" fill="#25282B"/>
<path d="M12.2802 98.8383L14.3547 100.039L20.1454 96.7077L22.2327 95.5112L28.0191 92.1841L25.9489 90.9832L20.1582 94.3103L18.0708 95.5112L12.2802 98.8383Z" fill="#2A2F32"/>
<path d="M12.2799 98.8378L12.2842 100.848L14.3587 102.049L14.3544 100.039L12.2799 98.8378Z" fill="#25282B"/>
<path d="M25.897 100.039L25.9013 102.049L27.9887 100.848L27.9844 98.8378L25.897 100.039Z" fill="#181A1C"/>
<path d="M27.9846 98.8383L22.2325 95.5112L20.1451 96.7077L25.8972 100.039L27.9846 98.8383Z" fill="#2A2F32"/>
<path d="M20.1538 73.4825L20.1881 96.712L17.8435 95.3605L17.8135 73.4825H20.1538Z" fill="#232532"/>
<path d="M22.1559 73.482L22.1859 95.5666L20.1885 96.7115L20.1542 73.482H22.1559Z" fill="#1E2023"/>
<path d="M7.50477 69.6643C3.88292 71.7518 3.86149 75.1263 7.4619 77.2138L13.2311 80.5538C16.8315 82.637 22.6908 82.6327 26.3127 80.5495L32.1162 77.2138C35.7423 75.1306 35.7637 71.7518 32.1633 69.6686L26.3941 66.3329C22.7894 64.2497 16.9344 64.2497 13.3083 66.3329L7.50477 69.6643Z" fill="#1C4959"/>
<path d="M5.04046 72.824C5.42622 73.7365 6.23204 74.6016 7.46647 75.3118L13.2357 78.6518C15.0788 79.7192 17.5091 80.2357 19.9351 80.2142C22.2496 80.1884 24.547 79.6676 26.3172 78.6518L32.1208 75.3161C33.9467 74.2659 34.8554 72.8886 34.8511 71.5156L34.8596 73.8269C34.8639 75.1999 33.951 76.5772 32.125 77.6274L26.3172 80.9675C24.547 81.9832 22.2453 82.504 19.9351 82.5299C17.5133 82.5557 15.0788 82.0349 13.2357 80.9718L7.46647 77.6317C6.23632 76.9216 5.42622 76.0521 5.04046 75.144C4.86473 74.7308 4.779 74.309 4.779 73.8871L4.77472 71.5758C4.77901 71.989 4.86473 72.4108 5.04046 72.824Z" fill="#ED9C00"/>
<path d="M7.50553 67.762C3.88368 69.8452 3.86225 73.2282 7.46266 75.3114L13.2319 78.6514C16.8323 80.7347 22.6916 80.7347 26.3134 78.6472L32.1169 75.3114C35.7431 73.2282 35.7645 69.8495 32.1641 67.7663L26.3948 64.4305C22.7901 62.343 16.9352 62.3473 13.309 64.4305L7.50553 67.762Z" fill="#FFC420"/>
<path d="M5.04052 74.7213C5.42628 75.6338 6.2321 76.4989 7.46653 77.2091L13.2358 80.5491C15.0788 81.6165 17.5091 82.133 19.9351 82.1072C22.2497 82.0857 24.5471 81.5649 26.3173 80.5448L32.1208 77.2091C33.9467 76.1589 34.8554 74.7858 34.8511 73.4085L34.8597 75.7198C34.864 77.0929 33.951 78.4702 32.1251 79.5204L26.3173 82.8604C24.5471 83.8762 22.2454 84.397 19.9351 84.4228C17.5134 84.4486 15.0788 83.9278 13.2358 82.8604L7.46653 79.5247C6.23638 78.8102 5.42628 77.9451 5.04052 77.0326C4.86479 76.6194 4.77906 76.1976 4.77906 75.7758L4.77478 73.4645C4.77907 73.8863 4.86479 74.3124 5.04052 74.7213Z" fill="#232A2E"/>
<path d="M31.7609 59.2659C29.6907 58.078 26.3475 58.0952 24.2901 59.3004L8.33679 66.7896C10.9557 67.8914 14.7918 70.517 17.1878 72.1568L31.7824 63.5959C33.8398 62.395 33.8312 60.4539 31.7609 59.2659Z" fill="#0A2B42"/>
<path d="M34.8169 85.5331C34.8169 85.5331 33.8568 88.7698 34.8941 89.919C35.1855 90.2418 36.4328 90.3408 37.8858 90.0223C38.8331 89.82 39.8575 89.239 40.7962 89.1099C43.5608 88.7225 44.2723 87.5216 45.4167 85.9936C47.8598 82.7397 43.4279 83.7125 40.5304 84.7368C37.4958 85.8129 34.8169 85.5331 34.8169 85.5331Z" fill="#181A1C"/>
<path d="M34.4764 86.6049C34.8664 87.2721 36.3237 87.8876 37.4682 87.9651C39.1826 88.0813 41.1629 87.3237 42.0801 85.6021L41.9987 62.1359C42.1787 56.9838 38.7069 56.9924 36.4952 56.7729C34.1249 56.5405 34.4935 57.3239 34.5064 59.717L34.4764 86.6049Z" fill="#001F3B"/>
<path d="M38.7603 62.5968C36.6901 61.4088 33.3468 61.426 31.2894 62.6355L15.3362 70.1204C17.955 71.2223 21.7955 73.8478 24.1872 75.4877L38.7817 66.9267C40.8391 65.7216 40.8306 63.7804 38.7603 62.5968Z" fill="#001F3B"/>
<path d="M32.4252 56.6399C33.2568 58.5122 32.4295 60.703 30.5779 61.5337C28.7262 62.3644 26.5488 61.5208 25.713 59.6528L19.7295 46.4219C18.898 44.5496 19.7252 42.3588 21.5768 41.5281C23.4285 40.6974 25.6102 41.541 26.4417 43.4133L32.4252 56.6399Z" fill="#113E5D"/>
<path d="M37.6289 88.8825V88.2498H35.0143V88.1895L34.4914 89.0461L34.7657 90.376C34.7657 90.376 36.253 91.4176 36.5573 91.3402C36.6045 91.3273 36.6516 91.31 36.7031 91.2971L38.9876 89.9757L38.8847 89.7304C39.3476 89.5669 39.8234 89.3947 40.3035 89.2139L40.3378 89.1924L40.3463 89.1967C40.5606 89.1149 40.775 89.0288 40.9936 88.9427L41.0964 88.8825H37.6289Z" fill="#181A1C"/>
<path d="M43.1112 57.8148L45.5286 56.4031L45.4815 93.7416L43.0641 95.1533L43.1112 57.8148Z" fill="#333A43"/>
<path d="M41.0512 56.6176L43.4643 55.2059L45.5303 56.4024L43.1128 57.8142L41.0512 56.6176Z" fill="#65B7A7"/>
<path d="M43.111 57.8139L43.0638 95.1524L40.9979 93.9559L41.0493 56.6174L43.111 57.8139Z" fill="#232732"/>
<path d="M68.07 52.4735L70.4875 51.0618L70.4403 79.2324L68.0229 80.6399L68.07 52.4735Z" fill="#333A43"/>
<path d="M66.0101 51.2764L68.4275 49.8689L70.4892 51.0611L68.0718 52.4729L66.0101 51.2764Z" fill="#65B7A7"/>
<path d="M68.07 52.4731L68.0228 80.6395L65.9612 79.4429L66.0083 51.2766L68.07 52.4731Z" fill="#232732"/>
<path d="M75.6265 51.2982L75.6179 53.588L43.5656 72.2938L43.5699 70.004L75.6265 51.2982Z" fill="#232732"/>
<path d="M43.5699 70.0043L43.5656 72.2941L7.79712 51.5697L7.80569 49.2756L43.5699 70.0043Z" fill="#232732"/>
<path d="M75.6265 51.2983L43.5699 70.0041L7.80576 49.2753L39.8581 30.5695L75.6265 51.2983Z" fill="#495460"/>
<path d="M36.6303 26.593C36.3603 26.4337 36.1331 26.5628 36.1331 26.877L36.1074 37.0865C36.1074 37.4007 36.3303 37.7838 36.6003 37.943L52.6222 47.2357C52.8965 47.3906 53.1194 47.2658 53.1194 46.9559L53.1451 36.7465C53.1451 36.4323 52.9265 36.0449 52.6522 35.8899L36.6303 26.593Z" fill="#44BCF2"/>
<path d="M24.6972 44.6326C24.6972 44.6455 24.6972 44.6584 24.7015 44.667C24.7015 44.6756 24.7015 44.6885 24.7058 44.7014C24.7058 44.7144 24.7101 44.723 24.7101 44.7359C24.7144 44.7488 24.7144 44.7574 24.7187 44.7703C24.723 44.7789 24.7272 44.7875 24.7315 44.7961C24.7358 44.809 24.7401 44.822 24.7487 44.8349C24.753 44.8435 24.7615 44.8521 24.7658 44.8607C24.7744 44.8736 24.783 44.8865 24.7915 44.8994C24.7958 44.908 24.8044 44.9167 24.813 44.9253C24.8258 44.9425 24.8387 44.9597 24.8558 44.9769C24.8644 44.9855 24.873 44.9898 24.8815 44.9984C24.8901 45.007 24.903 45.0156 24.9115 45.0243C24.9201 45.0329 24.933 45.0458 24.9458 45.0501C24.9544 45.0587 24.9716 45.0673 24.9844 45.0759C25.0016 45.0888 25.023 45.1017 25.0444 45.1146L31.3366 48.7646V48.3858L32.7253 47.5723L30.7194 46.4016V46.2509L30.5908 46.3284L27.8648 44.7402V43.7847L29.142 43.0443L29.4378 43.2165V42.8765L29.8664 42.6268L30.7151 42.1319L32.1938 41.2753L32.5624 41.4905V41.0601L33.8397 40.3198L34.1269 40.4877V40.1563L35.3999 39.416L36.7243 40.1864V40.4791L36.9772 40.3327L38.2974 41.1032V41.3959L38.5503 41.2495L39.8747 42.02V42.3126L40.1276 42.1663L41.4478 42.9367V43.2294L41.7007 43.0831L43.0208 43.8535V44.1462L43.2737 43.9999L44.5981 44.7703V45.063L44.851 44.9167L46.1755 45.6871V45.9798L46.4283 45.8334L47.7528 46.6039V46.8966L48.0014 46.7502L49.3258 47.5207L49.3215 48.4762L48.58 48.9066L48.8972 49.0917V48.7603L50.1745 48.0199L51.4947 48.7904V49.7459L50.2216 50.4862L49.9345 50.3184V50.6498L48.6615 51.3901L48.3743 51.2222V51.5536L47.097 52.294L46.8141 52.1261V52.4575L45.5368 53.1978L45.2453 53.0257V53.3657L43.968 54.106L41.1649 52.4704V52.281L41.002 52.3757L38.9317 51.1706V50.9511L38.7432 51.063L37.9888 50.6239L37.9845 50.9898L36.5958 51.799L41.7392 54.7817C41.7907 54.8119 41.8464 54.8334 41.9021 54.8592C41.9192 54.8635 41.9364 54.8721 41.9492 54.8764C41.9878 54.8894 42.0264 54.9023 42.065 54.9109C42.0993 54.9238 42.1336 54.9324 42.1678 54.9367C42.215 54.9453 42.2664 54.9582 42.3179 54.9625C42.3264 54.9625 42.3393 54.9668 42.3479 54.9668C42.4122 54.9754 42.4765 54.9797 42.545 54.9797C42.5536 54.9797 42.5665 54.9797 42.575 54.9797C42.6393 54.9797 42.7036 54.9754 42.7679 54.9668C42.7765 54.9668 42.7893 54.9625 42.8022 54.9625C42.8622 54.9539 42.9265 54.9453 42.9865 54.9324C42.9994 54.9281 43.0122 54.9281 43.0208 54.9238C43.0808 54.9109 43.1365 54.8937 43.188 54.8721C43.1923 54.8678 43.2008 54.8678 43.2051 54.8635C43.2651 54.8377 43.3294 54.8119 43.3808 54.7774L52.982 49.1734C53.2091 49.0443 53.3163 48.8722 53.3206 48.7C53.3206 49.0185 53.3206 49.337 53.3163 49.6555C53.3163 49.8277 53.2048 49.9998 52.9777 50.129L43.3766 55.733C43.3251 55.7674 43.2651 55.7932 43.2008 55.8147C43.2008 55.8147 43.2008 55.8147 43.1965 55.8147C43.1922 55.8191 43.1837 55.819 43.1751 55.819C43.1365 55.8363 43.0979 55.8492 43.0594 55.8578C43.0422 55.8621 43.0251 55.8664 43.0122 55.8707C42.9994 55.875 42.9865 55.875 42.9737 55.8793C42.9608 55.8836 42.9522 55.8836 42.9394 55.8879C42.9008 55.8965 42.8622 55.9051 42.8236 55.9094C42.8108 55.9094 42.8022 55.9137 42.7893 55.9137C42.7808 55.9137 42.7722 55.9137 42.7636 55.918C42.7465 55.918 42.7293 55.9224 42.7122 55.9224C42.6736 55.9267 42.635 55.9267 42.6008 55.9267C42.5922 55.9267 42.5793 55.9267 42.5708 55.9267C42.5622 55.9267 42.5493 55.9267 42.5407 55.9267C42.5236 55.9267 42.5022 55.9267 42.485 55.9267C42.4422 55.9267 42.3993 55.9223 42.3564 55.918C42.3522 55.918 42.3522 55.918 42.3436 55.918C42.335 55.918 42.3221 55.918 42.3136 55.9137C42.2793 55.9094 42.2407 55.9051 42.2064 55.9008C42.1936 55.8965 42.1807 55.8922 42.1636 55.8879C42.1293 55.8836 42.095 55.875 42.0607 55.8621C42.0393 55.8578 42.0178 55.8535 41.9964 55.8492C41.9793 55.8449 41.9621 55.8363 41.945 55.8277C41.9278 55.8234 41.915 55.8147 41.8978 55.8104C41.8378 55.7889 41.7864 55.7631 41.7306 55.733L25.0401 46.0572C25.0273 46.0486 25.0144 46.0443 25.0016 46.0357C24.9973 46.0314 24.9887 46.0271 24.9844 46.0228C24.9673 46.0142 24.9587 46.0056 24.9458 45.997C24.933 45.9884 24.9244 45.9798 24.9115 45.9669C24.903 45.9583 24.8901 45.9496 24.8815 45.941C24.8773 45.9367 24.8687 45.9324 24.8687 45.9281C24.8644 45.9238 24.8601 45.9195 24.8558 45.9109C24.8387 45.898 24.8258 45.8765 24.813 45.8636C24.8087 45.8593 24.8044 45.855 24.8044 45.8506C24.8001 45.8463 24.8001 45.842 24.8001 45.842C24.7872 45.8248 24.7787 45.8162 24.7701 45.799C24.7658 45.7904 24.7615 45.7861 24.7572 45.7818C24.7572 45.7775 24.7572 45.7775 24.753 45.7732C24.7487 45.7603 24.7444 45.7473 24.7358 45.7344C24.7315 45.7258 24.7272 45.7215 24.723 45.7172C24.723 45.7129 24.723 45.7129 24.723 45.7129C24.7187 45.7 24.7187 45.6871 24.7144 45.6742C24.7101 45.6656 24.7101 45.657 24.7101 45.6484V45.6441C24.7058 45.6311 24.7058 45.6182 24.7058 45.6096C24.7058 45.601 24.7058 45.5924 24.7058 45.5838C24.7058 45.5838 24.7058 45.5795 24.7058 45.5752C24.6972 45.2696 24.6972 44.9511 24.6972 44.6326Z" fill="#C0C0C0"/>
<path d="M25.0317 44.1587L34.6328 38.559C35.0829 38.2964 35.8201 38.2964 36.2787 38.559L52.9692 48.2347C53.4236 48.4973 53.4279 48.9277 52.9735 49.1902L43.3724 54.7942C42.9224 55.0568 42.1808 55.0568 41.7265 54.7942L25.036 45.1185C24.5859 44.8516 24.5816 44.4212 25.0317 44.1587Z" fill="white"/>
<path d="M36.0644 41.6141L34.7914 42.3501L36.1115 43.1249L37.3888 42.3846L36.0644 41.6141Z" fill="#0A2F4D"/>
<path d="M34.0328 42.2429L32.7512 42.9875L34.0757 43.758L35.353 43.0134L34.0328 42.2429Z" fill="#0A2F4D"/>
<path d="M32.1853 41.2654L30.7066 42.1263L29.8579 42.6169L29.4336 42.8666L31.6624 44.1664L32.9397 43.4261L32.2539 43.0258L33.7327 42.165L32.1853 41.2654Z" fill="#0A2F4D"/>
<path d="M35.5155 43.1125L34.2426 43.8529L35.5627 44.6233L36.84 43.883L35.5155 43.1125Z" fill="#0A2F4D"/>
<path d="M29.1379 43.0388L27.8606 43.7791L30.5867 45.3673L31.8683 44.627L29.1379 43.0388Z" fill="#0A2F4D"/>
<path d="M31.9969 44.7042L30.7196 45.4445L32.7855 46.6453L34.0628 45.905L31.9969 44.7042Z" fill="#0A2F4D"/>
<path d="M36.0687 45.2516L34.7957 45.9919L36.1158 46.7623L37.3931 46.022L36.0687 45.2516Z" fill="#0A2F4D"/>
<path d="M35.3956 39.406L34.1226 40.1463L35.4428 40.9168L36.7201 40.1765L35.3956 39.406Z" fill="#0A2F4D"/>
<path d="M36.9731 40.3239L35.6958 41.0642L37.0159 41.8346L38.2932 41.0943L36.9731 40.3239Z" fill="#0A2F4D"/>
<path d="M33.8355 40.3106L32.5582 41.0552L34.607 42.2475L35.8843 41.5072L33.8355 40.3106Z" fill="#0A2F4D"/>
<path d="M38.5465 41.2404L37.2692 41.9807L38.5937 42.7511L39.8709 42.0108L38.5465 41.2404Z" fill="#0A2F4D"/>
<path d="M40.1232 42.1563L38.8417 42.8966L40.1661 43.6671L41.4434 42.9268L40.1232 42.1563Z" fill="#0A2F4D"/>
<path d="M37.569 42.4885L36.296 43.2288L37.6161 43.9992L38.8934 43.2589L37.569 42.4885Z" fill="#0A2F4D"/>
<path d="M41.6964 43.0737L40.4191 43.8183L41.7436 44.5845L43.0166 43.8442L41.6964 43.0737Z" fill="#0A2F4D"/>
<path d="M39.0776 43.3661L37.8003 44.1065L39.1205 44.8769L40.3978 44.1366L39.0776 43.3661Z" fill="#0A2F4D"/>
<path d="M33.1113 43.5256L31.834 44.2659L33.1585 45.0406L34.4358 44.296L33.1113 43.5256Z" fill="#0A2F4D"/>
<path d="M43.2696 43.9945L41.9923 44.7348L43.3167 45.5053L44.594 44.765L43.2696 43.9945Z" fill="#0A2F4D"/>
<path d="M37.0076 43.9774L35.7303 44.7177L37.0505 45.4882L38.3278 44.7479L37.0076 43.9774Z" fill="#0A2F4D"/>
<path d="M40.5822 44.2448L39.3049 44.9851L40.6293 45.7555L41.9023 45.0152L40.5822 44.2448Z" fill="#0A2F4D"/>
<path d="M34.5984 44.3948L33.3211 45.1351L34.6455 45.9055L35.9228 45.1652L34.5984 44.3948Z" fill="#0A2F4D"/>
<path d="M38.4945 44.8466L37.2172 45.5869L38.5373 46.3574L39.8146 45.6128L38.4945 44.8466Z" fill="#0A2F4D"/>
<path d="M44.8425 44.9114L43.5652 45.6517L44.8897 46.4222L46.167 45.6819L44.8425 44.9114Z" fill="#0A2F4D"/>
<path d="M42.0865 45.1224L40.8092 45.8628L42.1294 46.6332L43.411 45.8929L42.0865 45.1224Z" fill="#0A2F4D"/>
<path d="M39.9777 45.7115L38.7047 46.4518L40.0249 47.2222L41.3022 46.4862L39.9777 45.7115Z" fill="#0A2F4D"/>
<path d="M46.42 45.8289L45.1427 46.5692L46.4628 47.3396L47.7401 46.5993L46.42 45.8289Z" fill="#0A2F4D"/>
<path d="M43.5951 45.9996L42.3178 46.7399L43.638 47.5104L44.911 46.7701L43.5951 45.9996Z" fill="#0A2F4D"/>
<path d="M37.6078 46.1468L36.3305 46.8871L37.6549 47.6575L38.9322 46.9172L37.6078 46.1468Z" fill="#0A2F4D"/>
<path d="M41.4693 46.5768L40.192 47.3215L41.5122 48.0919L42.7937 47.3516L41.4693 46.5768Z" fill="#0A2F4D"/>
<path d="M47.9882 46.7453L46.7152 47.4856L48.0396 48.2561L49.3169 47.5157L47.9882 46.7453Z" fill="#0A2F4D"/>
<path d="M45.0952 46.8745L43.8179 47.6191L45.1423 48.3895L46.4196 47.6492L45.0952 46.8745Z" fill="#0A2F4D"/>
<path d="M39.0776 47.0037L37.8003 47.744L39.1248 48.5187L40.402 47.7741L39.0776 47.0037Z" fill="#0A2F4D"/>
<path d="M42.9566 47.4465L41.6793 48.1868L43.0038 48.9572L44.2811 48.2169L42.9566 47.4465Z" fill="#0A2F4D"/>
<path d="M40.5649 47.8723L39.2876 48.6126L40.6121 49.3831L41.8894 48.6428L40.5649 47.8723Z" fill="#0A2F4D"/>
<path d="M50.1661 48.0105L48.8888 48.7508L50.2132 49.5256L51.4862 48.7809L50.1661 48.0105Z" fill="#0A2F4D"/>
<path d="M44.4442 48.3157L43.1669 49.056L44.4913 49.8264L45.7686 49.0818L44.4442 48.3157Z" fill="#0A2F4D"/>
<path d="M34.1955 45.9878L32.9225 46.7281L38.7303 50.1155L40.0076 49.3709L34.1955 45.9878Z" fill="#0A2F4D"/>
<path d="M42.039 48.7296L40.7617 49.4699L42.0861 50.2447L43.3591 49.5001L42.039 48.7296Z" fill="#0A2F4D"/>
<path d="M46.6686 47.7905L45.3913 48.5308L48.6489 50.4289L49.9262 49.6886L46.6686 47.7905Z" fill="#0A2F4D"/>
<path d="M33.2139 47.2828L31.3323 48.3803L36.09 51.1393L37.9759 50.0374L33.2139 47.2828Z" fill="#0A2F4D"/>
<path d="M45.9395 49.1853L44.658 49.9256L47.084 51.3374L48.3612 50.5971L45.9395 49.1853Z" fill="#0A2F4D"/>
<path d="M40.1963 49.4828L38.919 50.2232L40.985 51.4283L42.2623 50.688L40.1963 49.4828Z" fill="#0A2F4D"/>
<path d="M43.5438 49.6073L42.2665 50.3476L45.524 52.2457L46.8013 51.5054L43.5438 49.6073Z" fill="#0A2F4D"/>
<path d="M42.4253 50.7821L41.1523 51.5224L43.9511 53.158L45.2284 52.4134L42.4253 50.7821Z" fill="#0A2F4D"/>
<path d="M35.8028 25.4441C35.8114 25.4398 35.8243 25.4312 35.8328 25.4269C35.9143 25.3838 35.9914 25.3365 36.0686 25.2891C36.1457 25.2461 36.2272 25.1988 36.3043 25.1514C36.4543 25.0653 36.6644 25.0739 36.8915 25.2074L53.5778 34.8831C54.0321 35.1499 54.4007 35.787 54.4007 36.3121L54.3664 47.4598C54.3664 47.718 54.2721 47.9031 54.1264 47.9892C53.9292 48.1054 53.7364 48.2216 53.5392 48.3335C53.6892 48.2475 53.7792 48.0624 53.7792 47.8041L53.8135 36.6564C53.8135 36.1356 53.4449 35.49 52.9906 35.2274L36.3 25.5517C36.0729 25.4183 35.8628 25.4054 35.7128 25.4957C35.7428 25.4785 35.7728 25.4613 35.8028 25.4441Z" fill="#C0C0C0"/>
<path d="M52.9864 35.2274C53.4408 35.4899 53.8094 36.1356 53.8094 36.6564L53.7751 47.8041C53.7751 48.3292 53.4022 48.5401 52.9478 48.2776L36.2616 38.6018C35.8073 38.3393 35.4387 37.6937 35.4387 37.1686L35.4687 26.0208C35.4687 25.4957 35.8416 25.2848 36.2959 25.5474L52.9864 35.2274ZM36.103 37.0868C36.103 37.401 36.3259 37.7841 36.5959 37.9433L52.6178 47.236C52.8921 47.3909 53.115 47.2661 53.115 46.9562L53.1407 36.7468C53.1407 36.4326 52.9221 36.0452 52.6478 35.8902L36.6217 26.6019C36.3516 26.4426 36.1245 26.5718 36.1245 26.886L36.103 37.0868Z" fill="#F8F9FC"/>
<path d="M49.9087 35.1363L38.8717 28.7361V38.6959L49.9087 45.0961V35.1363Z" fill="white"/>
<path d="M49.0088 35.4812L39.772 30.1268V38.3521L49.0088 43.7064V35.4812Z" fill="#002542"/>
<path d="M43.2096 34.0737L46.5228 38.21L43.2096 38.507V34.0737Z" fill="white"/>
<path d="M29.2538 44.6911C28.988 44.3984 28.538 44.3769 28.2465 44.6394C27.9551 44.9063 27.9336 45.3539 28.1994 45.6509L30.8097 48.5519C31.0711 48.8446 31.5212 48.8704 31.8127 48.6035C32.1041 48.341 32.1255 47.889 31.8641 47.5964L29.2538 44.6911Z" fill="#E9C1AE"/>
<path d="M28.4481 42.7067L31.2427 42.3753L33.7287 43.2232C33.9602 43.3265 35.1346 43.7397 35.2546 44.4413C35.3361 44.9061 35.4946 47.5919 34.5774 47.4757C33.9688 47.3982 29.0653 46.0769 29.0653 46.0769C28.7267 46.0252 27.7066 46.2404 27.4966 46.0812L26.0821 45.0223L28.4481 42.7067Z" fill="#E9C1AE"/>
<path d="M26.6179 40.7098C28.6324 41.0412 29.9997 42.9393 29.6697 44.9536C29.3397 46.9637 27.4451 48.3281 25.4306 47.9967L18.5084 45.9996C16.4939 45.6681 15.1266 43.77 15.4523 41.7557C15.7823 39.7456 17.6812 38.3812 19.6957 38.7126L26.6179 40.7098Z" fill="#0E9CA9"/>
<path d="M23.5105 42.3023C23.5105 40.5333 22.8633 39.298 21.3545 38.3166C20.3001 37.6323 18.6113 37.0942 17.3169 36.5089C16.1168 35.9666 13.7079 35.4587 12.5806 36.0569C11.149 36.8188 10.1546 38.1531 10.1546 39.8403C10.1546 42.8446 10.5918 56.5576 13.5836 56.5576C16.5754 56.5576 23.5105 45.3066 23.5105 42.3023Z" fill="#E0B09B"/>
<path d="M13.6647 36.0828C13.6604 37.8992 16.8579 38.3855 19.2968 38.6309C19.3054 38.6309 19.3054 38.6352 19.3139 38.6352C19.8197 38.1789 20.0983 37.7399 20.0983 37.7399L20.1626 34.09L13.7376 33.5305L13.6133 36.0269C13.6304 36.0398 13.6647 36.0656 13.6647 36.0828Z" fill="#E0B09B"/>
<path d="M9.94003 75.1817C14.7149 77.8546 21.0413 77.9536 25.6104 74.6308C26.6605 73.8689 27.5478 72.9263 28.3236 71.8589L28.7951 52.1631C28.0664 41.9537 23.2359 39.1345 21.3585 38.3167C21.3585 38.3167 19.4683 40.4774 15.2721 39.552C10.9944 38.6094 12.5846 36.057 12.5846 36.057C6.99968 36.1302 7.00397 43.3827 6.84109 45.9781C6.5282 50.8633 6.22388 61.275 6.32675 69.4184C6.78966 71.3811 7.92551 74.054 9.94003 75.1817Z" fill="#0CBDCB"/>
<path d="M37.6072 53.9846C37.5086 54.3677 37.1186 54.5958 36.7414 54.4968C36.3599 54.3978 36.1327 54.0105 36.2313 53.6274L37.2129 49.8441C37.3115 49.4653 37.7015 49.2329 38.0787 49.3319C38.4602 49.4309 38.6873 49.8225 38.5887 50.2013L37.6072 53.9846Z" fill="#E9C1AE"/>
<path d="M35.6145 53.674L37.7276 51.1216L39.8879 49.6194C40.1065 49.4946 41.1395 48.793 41.7738 49.1159C42.1939 49.3311 44.4356 50.7988 43.7926 51.4745C43.3683 51.9179 39.3864 55.0814 39.3864 55.0814C39.1421 55.3224 38.7049 56.2737 38.452 56.3511L36.7632 56.859L35.6145 53.674Z" fill="#E9C1AE"/>
<path d="M32.374 57.7284C33.0513 59.7385 31.9883 61.9164 29.9995 62.5921C28.0107 63.2722 25.8461 62.1918 25.1689 60.1818L20.2741 45.9695C19.5968 43.9595 20.6598 41.7816 22.6486 41.1058C24.6374 40.4258 26.802 41.5061 27.4749 43.5161L32.374 57.7284Z" fill="#16A8B9"/>
<path d="M33.454 52.7833C35.1642 51.6599 37.4487 52.1334 38.5589 53.8421C39.669 55.5466 39.1847 57.8407 37.4745 58.9598L31.028 62.1793C29.3178 63.2984 27.0333 62.8249 25.9231 61.1205C24.813 59.416 25.2973 57.1219 27.0075 56.0028L33.454 52.7833Z" fill="#16A8B9"/>
<path d="M10.3981 82.2492L11.3968 81.6638L11.4654 57.9738L10.4667 58.5549L10.3981 82.2492Z" fill="#232A2E"/>
<path d="M10.4681 58.5552L11.4668 57.9741L8.89503 56.4935L7.89206 57.0788L10.4681 58.5552Z" fill="#2A2F32"/>
<path d="M7.89065 57.0786L7.82635 80.7686L10.3981 82.2493L10.4667 58.5549L7.89065 57.0786Z" fill="#232532"/>
<path d="M3.31784 41.6429L5.06233 40.6315C5.01946 40.6573 4.97232 40.6788 4.92945 40.7046L3.18497 41.7118C3.22783 41.686 3.2707 41.6645 3.31784 41.6429Z" fill="#308380"/>
<path d="M5.06216 40.6316C5.94941 40.1668 7.07669 40.0506 8.33683 40.3131C9.1855 40.4939 10.0899 40.8425 11.0243 41.3763C12.5716 42.2672 14.0546 43.5886 15.3019 45.1123C16.352 46.3863 17.2393 47.8023 17.8737 49.2184C18.4437 50.4881 18.808 51.7622 18.9023 52.9372L19.9053 65.5483C20.051 67.4336 19.4638 68.7463 18.3837 69.3704L16.6392 70.3819C17.7193 69.7578 18.3108 68.445 18.1608 66.5555L17.1579 53.9487C17.0678 52.7736 16.6992 51.4996 16.1335 50.2299C15.4991 48.8138 14.6118 47.4021 13.5617 46.1237C12.3102 44.6044 10.8314 43.283 9.27979 42.3877C8.34968 41.854 7.44102 41.5011 6.59663 41.3246C5.33649 41.0621 4.20921 41.1783 3.32196 41.6431L5.06216 40.6316Z" fill="#ED9C00"/>
<path d="M9.2755 42.3878C5.26361 40.0808 1.69748 41.1913 1.35458 44.8627L0.287311 56.2816C-0.0555863 59.9487 2.99191 64.8684 7.06381 67.2055L11.3414 69.6632C15.4133 72.0047 18.478 70.6015 18.1565 66.5556L17.1535 53.9488C16.8364 49.8943 13.2917 44.6949 9.2755 42.3878Z" fill="#FFC420"/>
<path d="M32.7645 72.088C33.0131 72.23 33.1845 72.5055 33.2488 72.8842C33.2488 72.8928 33.2488 72.9014 33.2531 72.9057L33.266 77.9373L32.473 77.4767L32.4644 72.4495C32.4644 72.4409 32.4645 72.4323 32.4602 72.4237C32.4002 72.0449 32.2287 71.7738 31.9801 71.6317L32.7645 72.088Z" fill="#1E2023"/>
<path d="M22.0101 78.3715C22.0401 78.0271 22.1001 77.6699 22.1987 77.317C22.293 76.9683 22.4216 76.6197 22.5716 76.2797C22.8931 75.5523 23.3389 74.855 23.8532 74.2696C24.1318 73.9554 24.4276 73.6756 24.7362 73.4346C24.9205 73.2926 25.1134 73.1678 25.3019 73.0558L30.7454 69.9267C30.8526 69.8665 30.9555 69.8148 31.0541 69.7675C31.3498 69.6298 31.6327 69.5394 31.9027 69.5006C32.3571 69.4318 32.7685 69.5006 33.1071 69.6986L33.8958 70.1549C33.5572 69.9569 33.15 69.888 32.6914 69.9569C32.4213 69.9956 32.1385 70.086 31.847 70.2237C31.7441 70.2711 31.6413 70.327 31.5384 70.3873L26.0949 73.5121C25.902 73.624 25.7134 73.7531 25.5291 73.8952C25.2205 74.1362 24.9205 74.416 24.6462 74.7302C24.1275 75.3198 23.686 76.0128 23.3603 76.7402C23.2103 77.0802 23.086 77.4289 22.9917 77.7775C22.8931 78.1347 22.8288 78.4877 22.8031 78.832C22.7988 78.8621 22.7988 78.8923 22.7945 78.9181L22.8031 83.9625L22.0101 83.5063L22.0016 78.4619C22.0058 78.4317 22.0059 78.4016 22.0101 78.3715Z" fill="#232532"/>
<path d="M26.0907 73.5126C24.3462 74.5155 22.9189 76.8828 22.7946 78.9187L22.8032 83.9631L24.4019 83.042L24.3934 77.9976C24.5177 76.9775 25.2292 75.8326 26.095 75.3333L31.5385 72.2042C32.4043 71.7092 33.1201 72.0277 33.253 72.9058L33.2658 77.9373L34.8646 75.2343L34.856 71.9718C34.7103 70.0995 33.2787 69.385 31.5385 70.3878L26.0907 73.5126Z" fill="#232A2E"/>
<path d="M23.699 19.8866C21.5816 18.2252 19.9057 17.6183 18.5856 17.6054C16.8839 17.3342 15.0409 17.6484 13.545 18.5609C12.482 19.2108 11.6376 19.8694 10.9947 20.515C10.5446 20.9669 10.1846 21.4189 9.92314 21.8665C9.65739 22.3012 9.47737 22.7402 9.35735 23.1793C9.30592 23.2869 9.27163 23.4031 9.2502 23.5236C7.90004 27.8062 12.8678 32.9927 13.0864 33.1821C13.9693 34.9597 17.9426 35.6785 18.1827 35.0286C18.2598 34.8263 17.8655 34.0602 17.724 33.2338C18.3884 32.997 19.1128 32.558 20 31.9296C22.6746 30.0358 23.9519 27.4318 23.6947 23.7345C24.4491 23.8034 24.6291 23.7001 24.6291 23.7001C24.6291 23.7001 25.2463 21.0961 23.699 19.8866Z" fill="#753B19"/>
<path d="M24.7446 28.1162C24.7831 28.2151 24.7274 28.3787 24.6245 28.4992C24.3502 28.7919 24.0245 29.0243 23.8916 29.3988C23.8059 29.6312 23.8273 29.8335 23.8016 30.0616C23.7716 30.2897 23.6259 30.591 23.4501 30.6556C23.5273 30.8493 23.5873 31.0774 23.4758 31.3572C23.3987 31.5423 23.2401 31.7144 23.1844 31.8995C23.0729 32.2826 23.4458 32.3859 23.3815 32.7603C23.3644 32.855 23.3258 32.9454 23.2872 33.0401C23.2701 33.0788 23.2487 33.1176 23.2315 33.1563C22.9958 33.6513 22.6957 34.1721 22.31 34.4346C22.1085 34.5638 21.9114 34.6111 21.7185 34.6585C20.9813 34.822 20.244 34.9899 19.494 35.1577C19.2625 35.2094 18.1266 35.0544 18.1438 35.0071C18.2638 34.6886 17.2094 32.9282 17.8609 31.779C18.0109 31.5078 17.7666 31.0731 17.9295 30.7847C19.1468 28.68 20.6041 26.3127 20.977 26.0028C21.3885 25.6714 20.8141 23.175 22.0014 23.4461C22.7686 23.6312 23.3172 23.7216 23.7159 23.7604C23.7287 23.8766 23.7373 23.9885 23.7373 24.0961C23.8573 24.5093 24.0416 24.8837 23.9302 25.4304C23.8745 25.7273 23.7244 26.0415 23.7073 26.3256C23.6644 26.769 23.943 26.9842 24.1616 27.1951C24.4059 27.4318 24.5988 27.7417 24.7446 28.1162Z" fill="#E9C1AE"/>
<path d="M19.408 28.676C19.408 29.9328 17.4706 29.6573 17.4706 28.4134C17.4706 25.917 16.6177 23.851 14.1745 22.8826C13.0258 22.4307 10.6598 21.9529 9.92258 21.2858C10.184 20.8424 10.5441 20.3862 10.9941 19.9343C13.2058 20.2356 15.8633 21.0447 17.402 22.6071C19.0222 24.2642 19.408 26.4206 19.408 28.676Z" fill="#034167"/>
<path d="M20.7841 27.3071C20.7883 25.6759 19.6439 25.0173 18.238 25.8308C16.8322 26.6443 15.692 28.6285 15.692 30.2598C15.692 31.8911 16.8322 32.5496 18.238 31.7361C19.6439 30.9183 20.7883 28.9384 20.7841 27.3071Z" fill="#00192A"/>
<path d="M21.2512 27.6644C21.2555 26.0331 20.1154 25.3746 18.7095 26.1881C17.3036 27.0058 16.1635 28.9857 16.1635 30.617C16.1635 32.244 17.3036 32.9068 18.7095 32.0933C20.1111 31.2799 21.2512 29.3 21.2512 27.6644Z" fill="#034167"/>
<path d="M49.9131 61.8739L49.5659 61.6717C49.6302 61.5554 49.6945 61.4306 49.7545 61.3101C49.8359 61.1508 49.9131 60.9873 49.9816 60.8237L50.3245 61.026C50.256 61.1896 50.1788 61.3531 50.0974 61.5167C50.0417 61.6372 49.9774 61.7577 49.9131 61.8739Z" fill="#0591BC"/>
<path d="M51.7734 57.3594L52.1163 57.5617C52.1206 57.566 52.1249 57.566 52.1249 57.5703C52.1892 57.6263 52.2063 57.8888 52.0906 58.414C51.812 59.6536 51.2462 60.4972 50.3676 61.0094C50.3547 61.018 50.3418 61.0223 50.3247 61.0309L49.9818 60.8286C49.9946 60.82 50.0075 60.8157 50.0204 60.8071C50.899 60.2949 51.4648 59.4513 51.7434 58.2117C51.8634 57.6866 51.842 57.424 51.7777 57.3637C51.782 57.3637 51.7777 57.3594 51.7734 57.3594Z" fill="#A83426"/>
<path d="M52.1673 56.6749L52.5102 56.8772C52.2916 56.7524 51.9487 56.8772 51.6315 57.0623L51.2843 56.86C51.6058 56.6749 51.9487 56.5458 52.1673 56.6749Z" fill="#F05B4C"/>
<path d="M50.7744 58.1726L50.4315 57.9703C50.4744 57.725 50.4872 57.4926 50.5215 57.2515L50.8644 57.4538C50.8344 57.6949 50.8172 57.9273 50.7744 58.1726Z" fill="#08B3E7"/>
<path d="M50.869 57.4542L50.5261 57.2519C50.6161 57.1873 51.1905 56.9205 51.2933 56.8602L51.6405 57.0625C51.5334 57.1228 50.959 57.3896 50.869 57.4542Z" fill="#F05B4C"/>
<path d="M51.6324 57.063C52.2711 56.6885 53.0211 56.5465 52.6225 58.294C52.2153 60.1017 51.2852 61.1218 50.368 61.6555C50.2137 61.7459 50.0594 61.8191 49.9136 61.8793C49.9779 61.7631 50.0422 61.6426 50.0979 61.5221C50.1837 61.3585 50.2565 61.1993 50.3251 61.0314C50.338 61.0228 50.3551 61.0185 50.368 61.0099C51.2467 60.4977 51.8124 59.6541 52.091 58.4145C52.211 57.8894 52.1896 57.6268 52.1253 57.5709C52.061 57.5149 51.881 57.5579 51.6324 57.7043C51.4867 57.7904 50.878 58.0917 50.7709 58.1734C50.8137 57.9281 50.8266 57.6957 50.8609 57.4546C50.9595 57.3901 51.5338 57.1232 51.6324 57.063Z" fill="#FF513D"/>
<path d="M51.0141 56.6306L51.0013 62.0754C51.0013 62.5015 50.7227 62.9319 50.1655 63.2547C49.7069 63.5216 49.1282 63.6808 48.5281 63.7325L48.541 58.2877C49.1411 58.2404 49.7154 58.0811 50.1783 57.81C50.7355 57.4828 51.0141 57.0567 51.0141 56.6306Z" fill="#FF513D"/>
<path d="M48.5414 58.2879L48.5285 63.7326C47.667 63.8015 46.7583 63.6422 46.0939 63.2549C45.5239 62.9234 45.2453 62.4887 45.2453 62.0583L45.2581 56.6136C45.2538 57.0483 45.541 57.4787 46.1068 57.8101C46.7755 58.1975 47.6798 58.3568 48.5414 58.2879Z" fill="#A83426"/>
<path d="M50.1667 55.4346C51.294 56.0932 51.2982 57.1563 50.1795 57.8148C49.0608 58.4734 47.2392 58.4734 46.1119 57.8148C44.9847 57.1606 44.9804 56.0932 46.0991 55.4346C47.2178 54.7761 49.0394 54.7761 50.1667 55.4346Z" fill="#F05B4C"/>
<path d="M49.8358 55.6277C50.7788 56.1787 50.7831 57.0696 49.8444 57.6206C48.91 58.1672 47.3841 58.1672 46.4412 57.6206C45.4982 57.0696 45.4939 56.1787 46.4283 55.6277C47.367 55.0768 48.8929 55.0768 49.8358 55.6277Z" fill="#F1F2F2"/>
<path d="M46.441 57.6166C47.384 58.1632 48.9099 58.1632 49.8443 57.6166C50.2043 57.4057 50.4229 57.1475 50.5044 56.8763C50.4186 56.6008 50.1958 56.3383 49.8357 56.1274C48.8928 55.5764 47.3669 55.5764 46.4282 56.1274C46.0724 56.3383 45.8538 56.5965 45.7681 56.8677C45.8538 57.1388 46.0767 57.4014 46.441 57.6166Z" fill="#451E00"/>
<path d="M69.968 52.2495C69.968 52.37 69.8865 52.4948 69.728 52.5895L68.0692 53.5493V53.1663C68.0692 53.1017 68.0306 53.0371 67.9492 52.9855L68.5278 52.6498C68.5921 52.611 68.6221 52.5637 68.6221 52.5163L68.6178 51.733C68.6178 51.6856 68.5878 51.6383 68.5235 51.5995L62.0813 47.8377C61.9528 47.7645 61.747 47.7645 61.6184 47.8377L60.0883 48.7244C60.0883 48.6125 60.0883 48.5006 60.0883 48.4016C60.0883 48.3757 60.0711 48.3499 60.0368 48.3284C59.964 48.2854 59.8525 48.2854 59.7797 48.3284L58.6867 48.9611C58.6524 48.9826 58.631 49.0084 58.631 49.0343V49.5637L57.8337 50.0242C57.7694 50.063 57.7394 50.1103 57.7394 50.1577V50.6268L57.0622 50.2308C56.9036 50.1404 56.8264 50.0199 56.8264 49.8951C56.8264 50.1577 56.8265 50.4159 56.8307 50.6785C56.8307 50.799 56.9079 50.9195 57.0665 51.0099L64.816 55.5335C65.1331 55.7186 65.6518 55.7186 65.969 55.5335L69.728 53.3556C69.8865 53.2609 69.968 53.1404 69.968 53.0156C69.968 52.7746 69.968 52.512 69.968 52.2495Z" fill="#C0C0C0"/>
<path d="M68.5282 51.6038L62.0861 47.842C61.9575 47.7688 61.7517 47.7688 61.6231 47.842L57.8384 50.0371C57.7098 50.1103 57.7098 50.2308 57.8384 50.304L64.2806 54.0658C64.4092 54.1389 64.6149 54.1389 64.7435 54.0658L68.5282 51.8707C68.6525 51.7975 68.6525 51.677 68.5282 51.6038Z" fill="#44BCF2"/>
<path d="M67.2634 52.9768C67.4478 52.8692 67.7478 52.8692 67.9321 52.9768C68.1164 53.0844 68.1121 53.2565 67.9278 53.3641L67.2463 53.7601C67.062 53.8677 66.762 53.8677 66.5777 53.7601C66.3934 53.6525 66.3976 53.4803 66.582 53.3727L67.2634 52.9768Z" fill="#232532"/>
<path d="M60.8256 47.3944C61.1427 47.2093 61.6657 47.2093 61.9785 47.3944L69.728 51.918C70.0452 52.1031 70.0409 52.4044 69.7237 52.5895L65.9647 54.7674C65.6475 54.9524 65.1289 54.9524 64.8117 54.7674L57.0623 50.2437C56.7451 50.0586 56.7494 49.7573 57.0665 49.5723L60.8256 47.3944ZM68.5279 51.6038L62.0857 47.842C61.9571 47.7688 61.7514 47.7688 61.6228 47.842L57.8381 50.0371C57.7095 50.1103 57.7095 50.2308 57.8381 50.304L64.2802 54.0658C64.4088 54.139 64.6146 54.139 64.7432 54.0658L68.5279 51.8707C68.6522 51.7975 68.6522 51.677 68.5279 51.6038ZM67.9278 53.3642C68.1121 53.2566 68.1164 53.0844 67.9321 52.9768C67.7478 52.8692 67.452 52.8692 67.2635 52.9768L66.5819 53.3728C66.3976 53.4804 66.3933 53.6526 66.5777 53.7602C66.762 53.8678 67.0577 53.8678 67.2463 53.7602L67.9278 53.3642ZM58.6867 48.9697C58.6139 49.0127 58.6139 49.0773 58.6867 49.1203C58.7553 49.1591 58.871 49.1591 58.9439 49.1203L60.0369 48.4876C60.1055 48.4446 60.1098 48.38 60.0369 48.337C59.964 48.2939 59.8526 48.2939 59.7797 48.337L58.6867 48.9697Z" fill="#FEFEFE"/>
<path d="M59.7836 48.3323C59.8522 48.2892 59.9679 48.2892 60.0408 48.3323C60.1094 48.3753 60.1094 48.4399 60.0408 48.4829L58.9478 49.1156C58.875 49.1587 58.7592 49.1587 58.6907 49.1156C58.6178 49.0726 58.6221 49.008 58.6907 48.965L59.7836 48.3323Z" fill="#232532"/>
<path d="M63.6846 49.8739L63.2389 50.1321L62.6988 50.4463L62.2059 50.7304L61.6658 51.0446L61.6058 51.079H61.6015L62.5745 50.1967L62.9517 49.8567L63.1789 49.6501C63.2346 49.5984 63.2089 49.5339 63.1231 49.4994L62.7931 49.3789C62.776 49.3746 62.7588 49.3703 62.7374 49.366C62.7288 49.366 62.7159 49.3617 62.7074 49.3617H62.7031C62.6945 49.3617 62.686 49.3617 62.6731 49.3617C62.6688 49.3617 62.6688 49.3617 62.6645 49.3617C62.656 49.3617 62.6474 49.3617 62.6388 49.366C62.6345 49.366 62.6302 49.366 62.6259 49.366C62.6174 49.366 62.6131 49.3703 62.6045 49.3703C62.6002 49.3703 62.5959 49.3746 62.5917 49.3746C62.5874 49.3746 62.5831 49.3789 62.5745 49.3789C62.5702 49.3832 62.5617 49.3832 62.5574 49.3875C62.5531 49.3875 62.5488 49.3918 62.5488 49.3918C62.5402 49.3961 62.5316 49.4004 62.5274 49.409L62.3388 49.5812L60.8043 50.9714C60.7486 51.0231 60.7743 51.0877 60.86 51.1221L61.1901 51.2426C61.1986 51.2469 61.2072 51.2469 61.2115 51.2512L61.3444 51.3029L61.4129 51.3416L61.4387 51.3545L61.6444 51.475L61.6915 51.5052L61.8244 51.5826L61.9573 51.6601L63.286 52.4305C63.3589 52.4736 63.4789 52.4736 63.5518 52.4305L65.8149 51.1178C65.8878 51.0747 65.8878 51.0059 65.8149 50.9628L64.5976 50.257L64.3533 50.1149L64.2204 50.0374L64.1733 50.0116L63.9418 49.8782C63.8775 49.8308 63.7575 49.8308 63.6846 49.8739ZM63.4189 50.1321H64.1476L64.1433 50.1364L63.6118 50.442H62.8831L63.4189 50.1321ZM62.3859 50.7304H63.1146L62.5745 51.0446H61.8459L62.3859 50.7304ZM61.8758 51.4492C61.8501 51.4621 61.8116 51.4621 61.7858 51.4492L61.5758 51.3287H62.0816L61.8758 51.4492ZM61.3444 51.178L61.1901 50.7648L61.6015 50.3947L61.7601 50.8079L61.3572 51.1737C61.3486 51.1737 61.3444 51.1737 61.3444 51.178ZM63.076 49.6113L62.9174 49.7534L62.8103 49.4693L63.0589 49.5597C63.0846 49.5683 63.0931 49.5941 63.076 49.6113ZM62.5402 50.0934L62.1287 50.4636L61.9701 50.0504L62.3816 49.6802L62.5402 50.0934ZM64.589 51.1006L64.3619 51.5955C64.2933 51.7419 64.0918 51.772 63.9075 51.6644L63.2817 51.3029C63.0974 51.1953 63.1532 51.079 63.4018 51.0403L64.2547 50.9069C64.5076 50.8681 64.6576 50.9542 64.589 51.1006Z" fill="#FBFBFB"/>
<path d="M42.2407 4.43518L42.2664 13.9344L34.0369 18.7034L34.0112 9.20848L42.2407 4.43518Z" fill="#FB4F3B"/>
<path d="M41.4822 3.99609L42.2408 4.43512L34.0113 9.20842L34.037 18.7034L33.2784 18.26L33.2527 8.76509L41.4822 3.99609Z" fill="#D3201A"/>
<path d="M38.9405 13.1947L36.1373 12.945L38.9405 9.44576V8.80444L35.8716 12.6351V13.5605L38.9405 13.836V13.1947Z" fill="#FBFBFB"/>
<path d="M36.8786 12.5233C36.8786 11.9637 36.4886 11.7399 36.0085 12.0197C35.5285 12.2994 35.1384 12.9752 35.1384 13.5347C35.1384 14.0943 35.5285 14.3181 36.0085 14.0383C36.4886 13.7585 36.8786 13.0785 36.8786 12.5233Z" fill="#FBFBFB"/>
<path d="M40.205 8.21064C40.205 7.6511 39.815 7.42728 39.3349 7.70705C38.8549 7.98682 38.4648 8.66258 38.4648 9.22212C38.4648 9.78166 38.8549 10.0055 39.3349 9.7257C39.815 9.44593 40.205 8.76588 40.205 8.21064Z" fill="#FBFBFB"/>
<path d="M40.205 12.9926C40.205 12.4331 39.815 12.2093 39.3349 12.489C38.8549 12.7688 38.4648 13.4446 38.4648 14.0041C38.4648 14.5636 38.8549 14.7875 39.3349 14.5077C39.815 14.2279 40.205 13.5522 40.205 12.9926Z" fill="#FBFBFB"/>
<path d="M72.3347 9.34798L73.0077 8.90465C73.2048 8.78844 73.4749 8.80566 73.7792 8.98213L73.1063 9.42545C72.8019 9.25329 72.5319 9.23607 72.3347 9.34798Z" fill="#272F32"/>
<path d="M73.102 9.4255L73.7749 8.98218C73.8392 9.02091 73.9035 9.06396 73.9678 9.1156L73.2948 9.55893C73.2348 9.50728 73.1705 9.46424 73.102 9.4255Z" fill="#272F32"/>
<path d="M73.2955 9.55954L73.9684 9.11621C74.097 9.21951 74.217 9.34003 74.3285 9.48206L73.6555 9.92539C73.5484 9.78336 73.4284 9.65854 73.2955 9.55954Z" fill="#272F32"/>
<path d="M73.6553 9.9205L74.3282 9.47717C74.6454 9.87746 74.8555 10.4026 74.8555 10.8588C74.8555 10.9105 74.8512 10.9621 74.8469 11.0094L74.1739 11.4528C74.1782 11.4054 74.1825 11.3538 74.1825 11.3021C74.1825 10.8459 73.9725 10.3208 73.6553 9.9205Z" fill="#191E20"/>
<path d="M74.1737 11.453L74.8466 11.0097C74.8295 11.1517 74.7909 11.2723 74.7309 11.3669L74.058 11.8103C74.118 11.7156 74.1565 11.5951 74.1737 11.453Z" fill="#191E20"/>
<path d="M74.0576 11.8102L74.7305 11.3669C74.6791 11.4487 74.6148 11.5132 74.5376 11.5563L73.8647 11.9996C73.9418 11.9522 74.0061 11.892 74.0576 11.8102Z" fill="#191E20"/>
<path d="M73.1022 9.42516C73.698 9.77379 74.1823 10.6131 74.1823 11.3018C74.1823 11.9904 73.6937 12.2702 73.0979 11.9216C72.5021 11.5772 72.0178 10.7336 72.0178 10.045C72.022 9.35629 72.5064 9.08082 73.1022 9.42516Z" fill="#21282A"/>
<path d="M69.7084 11.4383L72.5287 9.68647C72.683 9.59609 72.8973 9.609 73.1374 9.74673L70.317 11.4985C70.077 11.3608 69.8627 11.3479 69.7084 11.4383Z" fill="#272F32"/>
<path d="M70.3119 11.4989L73.1322 9.74713C73.1836 9.77726 73.2351 9.81169 73.2865 9.85043L70.4662 11.6022C70.4147 11.5635 70.3633 11.529 70.3119 11.4989Z" fill="#272F32"/>
<path d="M70.4668 11.6016L73.2871 9.84985C73.39 9.93163 73.4843 10.0263 73.57 10.1382L70.7497 11.89C70.6639 11.7824 70.5696 11.6834 70.4668 11.6016Z" fill="#272F32"/>
<path d="M70.7495 11.8898L73.5698 10.138C73.8184 10.4565 73.9856 10.8654 73.9856 11.227C73.9856 11.27 73.9813 11.3087 73.977 11.3475L71.1567 13.0993C71.161 13.0605 71.1652 13.0218 71.1652 12.9787C71.1652 12.6172 70.9981 12.2083 70.7495 11.8898Z" fill="#191E20"/>
<path d="M71.1565 13.0996L73.9768 11.3478C73.9639 11.4597 73.9339 11.5544 73.8868 11.6276L71.0665 13.3793C71.1136 13.3062 71.1436 13.2115 71.1565 13.0996Z" fill="#191E20"/>
<path d="M71.0665 13.3797L73.8869 11.6279C73.8483 11.6924 73.7968 11.7441 73.7368 11.7785L70.9165 13.5303C70.9765 13.4959 71.0279 13.4442 71.0665 13.3797Z" fill="#191E20"/>
<path d="M70.3118 11.499C70.7833 11.7701 71.1647 12.433 71.1605 12.9796C71.1605 13.5219 70.7747 13.7414 70.3032 13.4703C69.8317 13.1991 69.4503 12.5363 69.4546 11.9896C69.4589 11.4473 69.8403 11.2278 70.3118 11.499Z" fill="#21282A"/>
<path d="M61.516 26.361L55.9053 23.0856L55.8796 14.7054L61.4903 17.9808L61.516 26.361Z" fill="#272F32"/>
<path d="M61.4905 17.981L55.8799 14.7055L66.8183 8.36554L72.4289 11.6367L61.4905 17.981Z" fill="#414C50"/>
<path d="M72.4287 11.6362L72.4545 20.0163L61.516 26.3606L61.4903 17.9805L72.4287 11.6362Z" fill="#191E20"/>
<path d="M61.2548 15.9884L60.0032 15.2567L59.9946 12.3083L61.2462 13.0358L61.2548 15.9884Z" fill="#272F32"/>
<path d="M61.2463 13.0351L59.9947 12.3077L67.7785 7.7926L69.03 8.52431L61.2463 13.0351Z" fill="#354044"/>
<path d="M68.5967 1.46333L66.9765 0.516421C67.3708 0.288302 67.7523 0.137655 68.1123 0.0601807L69.7325 1.00709C69.3725 1.08457 68.9953 1.23521 68.5967 1.46333Z" fill="#414C50"/>
<path d="M69.7326 1.00527L68.1125 0.0583541C68.6611 -0.0578576 69.1583 0.00240058 69.5612 0.213303L71.1814 1.16022C70.7742 0.949313 70.2813 0.889055 69.7326 1.00527Z" fill="#272F32"/>
<path d="M71.1814 1.16457L69.5612 0.217651C69.5826 0.230564 69.604 0.243475 69.6255 0.256387L71.2457 1.20331C71.2285 1.18609 71.2028 1.17318 71.1814 1.16457Z" fill="#272F32"/>
<path d="M65.9738 10.3108L64.3536 9.3639C63.685 8.97223 63.2692 8.14583 63.2692 6.9665C63.2649 6.05832 63.5093 5.07698 63.925 4.13867L65.5452 5.08558C65.1294 6.01958 64.8894 7.00523 64.8894 7.91341C64.8894 9.09274 65.3052 9.91914 65.9738 10.3108Z" fill="#272F32"/>
<path d="M65.5406 5.08516L63.9204 4.13825C64.2462 3.41085 64.6748 2.70927 65.172 2.09808L66.7922 3.04499C66.295 3.65618 65.8664 4.35776 65.5406 5.08516Z" fill="#333B3E"/>
<path d="M66.7968 3.04531L65.1766 2.09839C65.7124 1.44416 66.3253 0.893231 66.9811 0.514465L68.6013 1.46138C67.9455 1.84014 67.3283 2.39108 66.7968 3.04531Z" fill="#414C50"/>
<path d="M68.5972 1.46143C70.6546 0.269177 72.3262 1.2247 72.3305 3.59628C72.3391 5.96787 70.676 8.86026 68.6187 10.0525C66.5613 11.2448 64.8897 10.2892 64.8854 7.91334C64.8811 5.54176 66.5441 2.65368 68.5972 1.46143Z" fill="#191E20"/>
<path d="M60.6024 4.36381L58.7165 3.26195C59.1751 2.9951 59.6209 2.81863 60.0366 2.73254L61.9226 3.8344C61.5068 3.92479 61.061 4.09695 60.6024 4.36381Z" fill="#414C50"/>
<path d="M61.9225 3.83119L60.0366 2.72932C60.6752 2.59589 61.2539 2.66045 61.7254 2.9101L63.6113 4.01196C63.1398 3.76662 62.5612 3.69776 61.9225 3.83119Z" fill="#272F32"/>
<path d="M63.6116 4.01593L61.7257 2.91406C61.7514 2.92697 61.7771 2.93989 61.8028 2.95711L63.6888 4.05897C63.663 4.04175 63.6373 4.02884 63.6116 4.01593Z" fill="#272F32"/>
<path d="M57.5424 14.6738L55.6565 13.572C54.8764 13.1157 54.3964 12.1516 54.3921 10.7786C54.3878 9.71975 54.6707 8.57485 55.155 7.4859L57.0409 8.58776C56.5566 9.67671 56.2737 10.8216 56.278 11.8804C56.2823 13.2491 56.7666 14.2176 57.5424 14.6738Z" fill="#272F32"/>
<path d="M57.0411 8.58329L55.1552 7.48142C55.5324 6.6335 56.0339 5.81572 56.6125 5.10553L58.4985 6.20739C57.9198 6.92188 57.4183 7.73537 57.0411 8.58329Z" fill="#333B3E"/>
<path d="M58.5024 6.20768L56.6165 5.10582C57.238 4.34399 57.9538 3.70267 58.7167 3.25934L60.6027 4.3612C59.8397 4.80453 59.1239 5.44585 58.5024 6.20768Z" fill="#414C50"/>
<path d="M60.603 4.36105C62.999 2.97081 64.9449 4.08558 64.9535 6.84884C64.9621 9.61211 63.0247 12.978 60.6287 14.3682C58.2327 15.7584 56.2868 14.6437 56.2782 11.8761C56.2697 9.11713 58.207 5.75129 60.603 4.36105Z" fill="#191E20"/>
<path d="M62.425 23.416L61.5206 22.8866L61.5163 20.7474L62.4207 21.2768L62.425 23.416Z" fill="#272F32"/>
<path d="M62.421 21.2778L61.5166 20.7483L72.4507 14.3739L73.3551 14.9033L62.421 21.2778Z" fill="#414C50"/>
<path d="M73.3549 14.9037L73.3592 17.0385L62.425 23.4173L62.4207 21.2781L73.3549 14.9037Z" fill="#272F32"/>
<path d="M59.9521 19.3027L60.6164 18.9153L60.6036 23.3916L59.9392 23.779L59.9521 19.3027Z" fill="#171B1D"/>
<path d="M56.0737 17.0555L56.738 16.6682L60.6171 18.9149L59.9527 19.3023L56.0737 17.0555Z" fill="#1D2326"/>
<path d="M59.9518 19.3021L59.939 23.7784L56.0599 21.5274L56.0728 17.0554L59.9518 19.3021Z" fill="#2E3538"/>
<path d="M52.4341 20.9678L56.8875 18.3681C57.179 18.1959 57.5862 18.2217 58.0319 18.48L53.5785 21.0797C53.1285 20.8215 52.7256 20.7956 52.4341 20.9678Z" fill="#191E20"/>
<path d="M53.5737 21.0796L58.0271 18.4799C58.1256 18.5359 58.2199 18.6004 58.3142 18.6736L53.8609 21.2733C53.7708 21.2001 53.6723 21.1356 53.5737 21.0796Z" fill="#191E20"/>
<path d="M53.8619 21.2744L58.3152 18.6747C58.5081 18.8253 58.6881 19.0104 58.851 19.217L54.3977 21.8167C54.2348 21.6101 54.0548 21.4293 53.8619 21.2744Z" fill="#191E20"/>
<path d="M54.3968 21.8157L58.8501 19.2159C59.3216 19.8142 59.6345 20.589 59.6302 21.2647C59.6302 21.3422 59.6259 21.4154 59.6174 21.4885L55.164 24.0882C55.1726 24.0194 55.1769 23.9419 55.1769 23.8644C55.1811 23.1887 54.8682 22.4139 54.3968 21.8157Z" fill="#191E20"/>
<path d="M55.1643 24.0886L59.6177 21.4889C59.592 21.6998 59.532 21.8763 59.4463 22.0183L54.9929 24.618C55.0829 24.4803 55.1386 24.2995 55.1643 24.0886Z" fill="#191E20"/>
<path d="M54.9924 24.6185L59.4458 22.0188C59.3686 22.1393 59.2743 22.234 59.1629 22.2986L54.7095 24.8983C54.8209 24.838 54.9152 24.7433 54.9924 24.6185Z" fill="#191E20"/>
<path d="M53.5738 21.0795C54.461 21.596 55.1768 22.8399 55.1768 23.8643C55.1725 24.8887 54.4524 25.3019 53.5652 24.7897C52.678 24.2732 51.9622 23.025 51.9622 22.0006C51.9664 20.9762 52.6865 20.563 53.5738 21.0795Z" fill="#191E20"/>
<path d="M53.6767 20.9419L48.6061 17.9849L51.1821 18.8371L56.2527 21.7984L53.6767 20.9419Z" fill="#272F32"/>
<path d="M53.6981 27.4497L48.6232 24.4885L48.6061 17.9849L53.6767 20.9419L53.6981 27.4497Z" fill="#354044"/>
<path d="M48.9235 24.316L48.9106 18.5097L53.3769 21.118L53.394 26.9243L48.9235 24.316Z" fill="#191E20"/>
<path d="M49.5277 23.968L49.5149 19.5605L52.7767 21.4673L52.7895 25.8704L49.5277 23.968Z" fill="#02D4CF"/>
<path d="M53.677 20.9421L56.253 21.7986L56.2573 23.6193L53.6985 27.4499L53.677 20.9421Z" fill="#333B3E"/>
<path d="M69.0299 8.52426L69.0385 11.4769L61.2548 15.9876L61.2462 13.035L64.9538 7.61609L69.0299 8.52426Z" fill="#191E20"/>
<path d="M72.8747 16.2889C72.8747 15.8757 72.5832 15.7078 72.2275 15.9144C71.8717 16.121 71.5802 16.6246 71.5802 17.0378C71.5802 17.451 71.8717 17.6189 72.2275 17.4123C72.5832 17.21 72.8747 16.7064 72.8747 16.2889Z" fill="#191E20"/>
<path d="M68.1376 39.9706L68.862 39.5445V39.7554L68.1376 40.1772V39.9706Z" fill="#0E1112"/>
<path d="M68.1419 38.4423L68.8663 38.0162V38.2271L68.1419 38.6532V38.4423Z" fill="#0E1112"/>
<path d="M68.1076 34.3317L68.832 33.9099L68.8234 36.8195L68.099 37.2413L68.1076 34.3317Z" fill="#0E1112"/>
<path d="M68.2921 34.6501L69.0165 34.2283L69.0079 36.7118L68.2836 37.1336L68.2921 34.6501Z" fill="#938D86"/>
<path d="M67.572 32.6194L68.2963 32.1976L76.1401 36.7471L75.4157 37.1689L67.572 32.6194Z" fill="#0E1112"/>
<path d="M67.572 32.6194L68.2963 32.1976L70.178 33.2866L69.4536 33.7127L67.572 32.6194Z" fill="#0E1112"/>
<path d="M67.5763 30.4449L68.3006 30.0188L68.2963 32.1967L67.572 32.6185L67.5763 30.4449Z" fill="#0E1112"/>
<path d="M67.5765 30.4449L68.3008 30.0188L70.1782 33.2856L69.4538 33.7118L67.5765 30.4449Z" fill="#0F1314"/>
<path d="M67.5763 30.4451L69.4536 33.712L67.572 32.6187L67.5763 30.4451Z" fill="#191E1F"/>
<path d="M68.099 37.242L68.8234 36.8202L77.6144 41.9163L76.8901 42.3381L68.099 37.242Z" fill="#0E1112"/>
<path d="M68.2836 37.1341L69.0079 36.7123L77.4346 41.5975L76.7103 42.0193L68.2836 37.1341Z" fill="#918A84"/>
<path d="M68.2921 34.6501L69.0165 34.2283L71.6739 35.7649L70.9495 36.191L68.2921 34.6501Z" fill="#0E1112"/>
<path d="M70.9495 36.1907L71.6739 35.7646L71.6653 38.2524L70.9409 38.6742L70.9495 36.1907Z" fill="#0E1112"/>
<path d="M70.9497 36.088L71.6741 35.6619V35.7652L70.9497 36.1913V36.088Z" fill="#938D86"/>
<path d="M71.1296 36.2943L71.8539 35.8725L71.8496 38.356L71.121 38.7821L71.1296 36.2943Z" fill="#938D86"/>
<path d="M71.1295 36.1916V36.2949L71.121 38.7826L70.9409 38.675L70.9495 36.1916V36.0883L71.1295 36.1916Z" fill="#F7ECE1"/>
<path d="M70.9497 36.088L71.6741 35.6619L71.8541 35.7695L71.1297 36.1913L70.9497 36.088Z" fill="#918A84"/>
<path d="M71.13 36.1912L71.8543 35.7693V35.8726L71.13 36.2945V36.1912Z" fill="#938D86"/>
<path d="M68.1376 40.1773L68.862 39.7555L77.5201 44.7741L76.7915 45.1959L68.1376 40.1773Z" fill="#0E1112"/>
<path d="M76.7913 44.9848L77.5199 44.563V44.7739L76.7913 45.1957V44.9848Z" fill="#938D86"/>
<path d="M68.1376 39.9706L68.862 39.5445L77.5201 44.5631L76.7915 44.9849L68.1376 39.9706Z" fill="#918A84"/>
<path d="M76.7915 44.9847V45.1956L68.1376 40.1769V39.9703L76.7915 44.9847Z" fill="#F7ECE1"/>
<path d="M68.1419 38.6539L68.8662 38.2278L77.5201 43.2464L76.7957 43.6682L68.1419 38.6539Z" fill="#0E1112"/>
<path d="M68.1419 38.4423L68.8662 38.0162L77.5244 43.0349L76.7957 43.461L68.1419 38.4423Z" fill="#918A84"/>
<path d="M76.796 43.461L77.5247 43.0349L77.5204 43.2458L76.796 43.6676V43.461Z" fill="#938D86"/>
<path d="M76.7957 43.4612V43.6678L68.1419 38.6535V38.4426L76.7957 43.4612Z" fill="#F7ECE1"/>
<path d="M71.13 36.2943L71.8543 35.8725L74.5675 37.4435L73.8389 37.8653L71.13 36.2943Z" fill="#0E1112"/>
<path d="M73.8384 37.8651L74.5671 37.4433L74.5585 39.9268L73.8342 40.3529L73.8384 37.8651Z" fill="#0E1112"/>
<path d="M73.8425 37.7615L74.5669 37.3397V37.443L73.8382 37.8648L73.8425 37.7615Z" fill="#938D86"/>
<path d="M74.0228 37.973L74.7472 37.5511L74.7429 40.0346L74.0142 40.4564L74.0228 37.973Z" fill="#938D86"/>
<path d="M74.0228 37.8698V37.9731L74.0142 40.4566L73.8342 40.3533L73.8384 37.8655L73.8427 37.7622L74.0228 37.8698Z" fill="#F7ECE1"/>
<path d="M73.8425 37.7615L74.5668 37.3397L74.7469 37.443L74.0225 37.8691L73.8425 37.7615Z" fill="#918A84"/>
<path d="M74.0227 37.973L74.7471 37.5511L77.4431 39.1135L76.7188 39.5354L74.0227 37.973Z" fill="#0E1112"/>
<path d="M74.0227 37.8694L74.7471 37.4433V37.5509L74.0227 37.9727V37.8694Z" fill="#938D86"/>
<path d="M76.7187 39.5358L77.4431 39.114L77.4345 41.5974L76.7101 42.0193L76.7187 39.5358Z" fill="#0E1112"/>
<path d="M76.8985 39.4321L77.6229 39.006L77.6143 41.9156L76.89 42.3374L76.8985 39.4321Z" fill="#938D86"/>
<path d="M68.1076 34.3317L68.8319 33.9099L77.623 39.006L76.8986 39.4321L68.1076 34.3317Z" fill="#918A84"/>
<path d="M75.8957 37.4484L77.6745 38.4771L77.6488 46.3494L67.5462 40.4915L67.5676 32.6192L75.4114 37.1687L75.8957 37.4484ZM76.8901 42.338L76.8987 39.4284L68.1077 34.3323L68.0991 37.2419L76.8901 42.338ZM76.7958 43.6679V43.457L68.142 38.4384V38.6493L76.7958 43.6679ZM76.7915 45.1959V44.985L68.1377 39.9664V40.1773L76.7915 45.1959Z" fill="#191E1F"/>
<path d="M70.9496 36.1913L70.941 38.6748L68.2836 37.1339L68.2921 34.6504L70.9496 36.1913Z" fill="#191E1F"/>
<path d="M67.5765 30.3119L68.3009 29.8901L68.4637 29.9805L67.7394 30.4066L67.5765 30.3119Z" fill="#918A84"/>
<path d="M69.6076 31.491L70.332 31.0649L72.3251 34.5341L71.6007 34.9559L69.6076 31.491Z" fill="#9E9790"/>
<path d="M69.6081 31.4915L71.6012 34.9563L69.4538 33.7124L67.5765 30.4456V30.3121L67.7394 30.4068L69.6081 31.4915Z" fill="#F7ECE1"/>
<path d="M67.7392 30.4061L68.4636 29.98L70.3324 31.0647L69.608 31.4908L67.7392 30.4061Z" fill="#918A84"/>
<path d="M76.7188 39.5351L76.7103 42.0186L74.0142 40.4562L74.0228 37.9727L76.7188 39.5351Z" fill="#191E1F"/>
<path d="M68.1076 34.3319L76.8986 39.428L76.89 42.3376L68.099 37.2415L68.1076 34.3319ZM76.71 42.0191L76.7186 39.5356L74.0226 37.9732V37.8699L73.8383 37.7623V37.8656L71.1294 36.2946V36.1913L70.9451 36.0837V36.187L68.2876 34.6461L68.279 37.1296L76.71 42.0191Z" fill="#F7ECE1"/>
<path d="M73.8384 37.8651L73.8341 40.3529L71.121 38.7819L71.1296 36.2941L73.8384 37.8651Z" fill="#191E1F"/>
<path d="M69.1879 28.6892L67.5677 30.2L67.3191 27.8973L69.1879 28.6892Z" fill="#191E1F"/>
<path d="M69.1881 28.6891L69.9125 28.263L68.2923 29.7738L67.5679 30.1999L69.1881 28.6891Z" fill="#0C0F10"/>
<path d="M67.3191 27.8969L68.0435 27.4708L69.9123 28.2628L69.1879 28.6889L67.3191 27.8969Z" fill="#0E1011"/>
<path d="M71.7555 32.7349L72.4798 32.313L74.4729 35.7779L73.7486 36.1997L71.7555 32.7349Z" fill="#0F1314"/>
<path d="M69.6076 31.491L70.332 31.0649L72.4794 32.3131L71.755 32.7349L69.6076 31.491Z" fill="#0E1112"/>
<path d="M71.755 32.7356L73.7481 36.2004L71.6007 34.9565L69.6076 31.4917L71.755 32.7356Z" fill="#191E1F"/>
<path d="M73.7481 36.2001L74.4725 35.7783L76.1398 36.7468L75.4154 37.1686L73.7481 36.2001Z" fill="#918A84"/>
<path d="M69.1875 28.6891L69.9119 28.263L72.0421 29.1669L71.3177 29.5887L69.1875 28.6891Z" fill="#8C8680"/>
<path d="M71.3182 29.5885L72.0425 29.1667L70.3195 30.7678L69.5951 31.1896L71.3182 29.5885Z" fill="#7F7973"/>
<path d="M71.3184 29.5888L69.5953 31.19L67.7394 30.4066L67.5808 30.3119L67.5679 30.2L69.1881 28.6893L71.3184 29.5888Z" fill="#F7ECE1"/>
<path d="M75.4156 37.1681L76.14 36.7463L76.6201 37.0218L75.8957 37.4479L75.4156 37.1681Z" fill="#918A84"/>
<path d="M75.4156 37.1681L76.14 36.7463L76.6201 37.0218L75.8957 37.4479L75.4156 37.1681Z" fill="#0E1112"/>
<path d="M73.7481 36.1994L75.4154 37.1678L75.8955 37.4476L73.7481 36.1994Z" fill="#7D7872"/>
<path d="M71.7555 32.7349L72.4798 32.313L74.6272 33.5569L73.9029 33.9788L71.7555 32.7349Z" fill="#918A84"/>
<path d="M73.9029 33.979L75.896 37.4481L73.7486 36.1999L71.7555 32.7351L73.9029 33.979Z" fill="#F7ECE1"/>
<path d="M73.9028 33.9797L74.6272 33.5579L76.6203 37.0227L75.8959 37.4488L73.9028 33.9797Z" fill="#9E9790"/>
<path d="M75.8959 37.4473L76.6202 37.0212L78.399 38.0542L77.6704 38.476L75.8959 37.4473Z" fill="#0E1112"/>
<path d="M76.0502 35.2224L77.6747 38.0502L77.6704 38.4763L75.8959 37.4477L73.9028 33.9785L76.0502 35.2224Z" fill="#191E1F"/>
<path d="M77.6703 38.4769L78.3989 38.0551L78.3732 45.923L77.6489 46.3491L77.6703 38.4769Z" fill="#0E1112"/>
<path d="M77.6747 38.0506L78.3991 37.6245V38.0549L77.6704 38.4767L77.6747 38.0506Z" fill="#0E1112"/>
<path d="M76.0504 35.2231L76.7747 34.8013L78.3992 37.6248L77.6748 38.0509L76.0504 35.2231Z" fill="#0F1314"/>
<path d="M73.9028 33.9797L74.6272 33.5579L76.7746 34.8018L76.0502 35.2236L73.9028 33.9797Z" fill="#0E1112"/>
<path d="M73.4442 30.4889L74.1686 30.0671L72.4498 31.6682L71.7254 32.0943L73.4442 30.4889Z" fill="#0C0F10"/>
<path d="M73.4441 30.4888L71.7253 32.0942L69.5951 31.1904L71.3182 29.5892L73.4441 30.4888Z" fill="#191E1F"/>
<path d="M71.3183 29.5885L72.0426 29.1667L74.1686 30.0663L73.4442 30.4881L71.3183 29.5885Z" fill="#0E1011"/>
<path d="M77.6789 36.1694L78.4033 35.7433L78.399 37.6242L77.6747 38.0503L77.6789 36.1694Z" fill="#938D86"/>
<path d="M76.0504 35.2231L76.7747 34.8013L78.4035 35.7439L77.6791 36.17L76.0504 35.2231Z" fill="#918A84"/>
<path d="M77.6791 36.1698L77.6748 38.0507L76.0504 35.2228L77.6791 36.1698Z" fill="#F7ECE1"/>
<path d="M75.5742 31.3917L76.2986 30.9656L74.5798 32.5667L73.8555 32.9928L75.5742 31.3917Z" fill="#7F7973"/>
<path d="M75.5744 31.3925L73.8557 32.9937L71.7254 32.0941L73.4442 30.4886L75.5744 31.3925Z" fill="#F7ECE1"/>
<path d="M73.4438 30.4889L74.1682 30.0671L76.2985 30.9666L75.5741 31.3928L73.4438 30.4889Z" fill="#8C8680"/>
<path d="M77.3831 32.5887L78.1118 32.1669L76.7059 33.471L75.9815 33.8928L77.3831 32.5887Z" fill="#0C0F10"/>
<path d="M77.3831 32.5884L77.5974 34.577L75.9815 33.8926L77.3831 32.5884Z" fill="#F7ECE1"/>
<path d="M77.383 32.5887L78.1116 32.1669L78.3216 34.1554L77.5973 34.5772L77.383 32.5887Z" fill="#97908A"/>
<path d="M77.3359 32.137L77.383 32.5889L75.9814 33.893L73.8555 32.9935L75.5742 31.3923L77.3359 32.137Z" fill="#191E1F"/>
<path d="M77.3359 32.1368L78.0602 31.715L78.1117 32.167L77.383 32.5888L77.3359 32.1368Z" fill="#0F1213"/>
<path d="M75.5744 31.3917L76.2987 30.9656L78.0604 31.7145L77.336 32.1363L75.5744 31.3917Z" fill="#0E1011"/>
<path d="M76.551 100.11C76.3925 100.256 76.2039 100.398 75.981 100.527C74.8794 101.169 73.3021 101.367 71.9048 101.113C71.2919 101.001 70.7175 100.807 70.2332 100.527C69.4316 100.062 69.033 99.4512 69.033 98.8444V99.3006C69.033 99.9118 69.4316 100.519 70.2332 100.984C70.7175 101.263 71.2961 101.461 71.9048 101.569C73.3021 101.819 74.8794 101.625 75.981 100.984C76.2039 100.854 76.3925 100.712 76.551 100.566C76.9582 100.187 77.1597 99.7568 77.164 99.3221V98.8659C77.164 99.3006 76.9582 99.731 76.551 100.11Z" fill="#191E20"/>
<path d="M75.9637 97.1826C77.5582 98.108 77.5667 99.6058 75.9808 100.527C74.3992 101.452 71.8232 101.452 70.2288 100.527C68.6343 99.6015 68.6257 98.108 70.2116 97.1826C71.7975 96.2572 74.3692 96.2572 75.9637 97.1826Z" fill="#354044"/>
<path d="M75.0894 93.3982L75.0723 98.9376C75.0723 99.0797 75.0251 99.2217 74.9351 99.3594L74.9523 93.82C75.0423 93.6823 75.0894 93.5402 75.0894 93.3982Z" fill="#BEBEBE"/>
<path d="M74.9522 93.8198L74.935 99.3592C74.8407 99.5012 74.695 99.6346 74.4979 99.7466C73.9921 100.044 73.2763 100.143 72.6248 100.052L72.6419 94.5127C73.2934 94.6074 74.0092 94.5041 74.515 94.2071C74.7079 94.0909 74.8536 93.9575 74.9522 93.8198Z" fill="#FBFBFB"/>
<path d="M72.6379 94.5138L72.6207 100.053C72.2821 100.006 71.9564 99.9026 71.6906 99.7476C71.3006 99.5195 71.1034 99.2225 71.1034 98.9255L71.1205 93.3861C71.1205 93.6831 71.3134 93.9801 71.7077 94.2082C71.9735 94.3632 72.2992 94.4621 72.6379 94.5138Z" fill="#BEBEBE"/>
<path d="M74.5026 92.5767C75.2784 93.0286 75.2827 93.756 74.5112 94.2079C73.7397 94.6599 72.4838 94.6599 71.708 94.2079C70.9322 93.756 70.9279 93.0286 71.6994 92.5767C72.4709 92.129 73.7268 92.1247 74.5026 92.5767Z" fill="#9E9E9E"/>
<path d="M73.0969 97.7195C76.3921 97.7195 79.0633 95.0371 79.0633 91.7281C79.0633 88.4192 76.3921 85.7368 73.0969 85.7368C69.8018 85.7368 67.1305 88.4192 67.1305 91.7281C67.1305 95.0371 69.8018 97.7195 73.0969 97.7195Z" fill="#272F32"/>
<path d="M76.3415 91.7279C76.3415 90.1526 76.6887 88.6892 77.2802 87.4539C76.2043 86.3908 74.7256 85.7322 73.0968 85.7322C71.4681 85.7322 69.9893 86.3908 68.9135 87.4539C69.5093 88.6892 69.8522 90.1526 69.8522 91.7279C69.8522 93.3032 69.505 94.7666 68.9135 96.0019C69.9893 97.0651 71.4681 97.7236 73.0968 97.7236C74.7256 97.7236 76.2043 97.0651 77.2802 96.0019C76.6887 94.7666 76.3415 93.3032 76.3415 91.7279Z" fill="#E4E4E4"/>
<path d="M75.9086 93.0014C75.9086 91.4433 74.6485 90.1779 73.0969 90.1779C71.5453 90.1779 70.2851 91.4433 70.2851 93.0014C70.2851 94.5595 71.5453 95.8249 73.0969 95.8249C74.6485 95.8249 75.9086 94.5595 75.9086 93.0014Z" fill="#454645"/>
<path d="M73.0968 95.6363C71.6523 95.6363 70.4779 94.4569 70.4779 93.0064C70.4779 91.5559 71.6523 90.3766 73.0968 90.3766C74.5412 90.3766 75.7156 91.5559 75.7156 93.0064C75.7156 94.4526 74.5412 95.6363 73.0968 95.6363Z" fill="#02D4CF"/>
</svg>
