<svg width="89" height="107" viewBox="0 0 89 107" fill="none" xmlns="http://www.w3.org/2000/svg">
<path opacity="0.5" d="M78.5786 92.6089C83.6624 95.5706 84.2017 98.2723 82.8535 103.868C81.5109 109.464 75.3373 106.287 70.5006 102.008C63.0631 95.4293 58.4174 96.2941 54.7661 93.5415C51.5809 91.1337 56.0075 86.8041 61.0745 85.5097C66.1415 84.2041 74.7699 90.3876 78.5786 92.6089Z" fill="#69B0EC"/>
<path d="M34.7442 1.59757L32.3286 0.201481C32.3286 0.201481 32.323 0.207133 32.323 0.212785C31.8399 -0.0867794 31.2108 -0.086778 30.5198 0.320178L2.71886 16.4684C1.22461 17.3388 0 19.6845 0 21.691V89.8448C0 90.9413 0.37075 91.6987 0.943734 92.0322V92.0491L3.33679 93.4283L30.5142 75.7596C32.0084 74.8892 33.2331 72.5435 33.2331 70.537L34.7442 1.59757Z" fill="#1F1F1F"/>
<path d="M5.0615 93.264L32.8625 77.1158C34.3567 76.2453 35.5814 73.8997 35.5814 71.8932V3.73373C35.5814 1.72721 34.3567 0.800252 32.8625 1.66503L5.0615 17.8133C3.56725 18.6837 2.34264 21.0293 2.34264 23.0359V91.1897C2.34825 93.2018 3.56725 94.1288 5.0615 93.264Z" fill="#3D3D3D"/>
<path d="M5.45458 91.3654L31.8905 76.0423C33.2555 75.251 34.3734 73.1032 34.3734 71.2719V4.87031C34.3734 3.039 33.8847 2.4964 32.5196 3.2877L5.977 18.6107C4.61195 19.402 3.49408 21.5498 3.49408 23.3811V89.7432C3.49408 91.5801 4.08953 92.1567 5.45458 91.3654Z" fill="#2B2B2B"/>
<path d="M4.4603 87.3462L33.469 70.4745V7.58282L4.4603 24.4545V87.3462Z" fill="white"/>
<path d="M17.8918 49.3528L6.43214 56.0224V84.1645L17.8918 77.495V49.3528Z" fill="#E0D7DC"/>
<path d="M31.8905 41.061L20.4308 47.7305V75.8727L31.8905 69.2031V41.061Z" fill="#E0D7DC"/>
<path d="M4.4603 47.2614L33.469 30.3896V18.7971L4.4603 35.6688V47.2614Z" fill="#F4382F"/>
<path d="M18.6556 13.7155C18.6556 14.3146 19.0151 14.5859 19.4645 14.3316C19.9083 14.0716 20.2734 13.3764 20.2734 12.7829C20.2734 12.1837 19.9139 11.9124 19.4645 12.1668C19.0151 12.4268 18.6556 13.122 18.6556 13.7155Z" fill="white"/>
<path d="M22.0095 11.6752C22.0095 12.1443 22.2904 12.3591 22.6443 12.1556C22.9925 11.9521 23.279 11.4095 23.279 10.9404C23.279 10.4713 22.9982 10.2565 22.6443 10.46C22.2904 10.6634 22.0095 11.2061 22.0095 11.6752Z" fill="white"/>
<path d="M19.2624 82.525C18.8018 82.525 18.3412 82.1576 18.3412 81.4511V81.1289C18.3412 80.5128 18.7007 79.8402 19.1838 79.5633L22.0993 77.8676C22.2678 77.7715 22.4363 77.7206 22.6105 77.7206C23.0711 77.7206 23.5317 78.088 23.5317 78.7946V79.1167C23.5317 79.7328 23.1722 80.4054 22.6891 80.6824L19.7736 82.3781C19.6051 82.4741 19.4366 82.525 19.2624 82.525Z" fill="#3D3D3D"/>
<path d="M19.4758 81.8639L22.3913 80.1683C22.6946 79.9931 22.9362 79.5183 22.9362 79.117V78.7948C22.9362 78.3935 22.689 78.207 22.3913 78.3766L19.4758 80.0722C19.1725 80.2474 18.9309 80.7222 18.9309 81.1235V81.4457C18.9309 81.847 19.1781 82.0335 19.4758 81.8639Z" fill="white"/>
<path d="M2.34275 25.0766C2.3596 24.9409 2.55059 24.9353 2.55621 25.0766C2.67417 27.4957 2.56745 29.9318 2.59554 32.3566C2.62362 34.7757 2.60115 37.2231 2.46633 39.6366C2.4551 39.7892 2.21356 39.8909 2.21356 39.5687C2.21356 35.1318 1.84843 29.7227 2.34275 25.0766Z" fill="white"/>
<path d="M5.76403 17.175C7.50545 15.875 15.3418 11.3081 18.291 9.74806C18.746 9.50502 18.9595 9.61241 18.5045 9.96284C16.2631 11.715 7.93799 16.6437 5.93817 17.4859C5.77526 17.5537 5.48315 17.3785 5.76403 17.175Z" fill="white"/>
<path d="M45.6195 45.7811L45.1758 45.8998C44.8893 45.5098 44.4736 45.1424 43.9118 44.8146L32.9914 38.4163L6.10049 52.7389V54.0389L17.0209 60.4372C19.0825 61.6354 22.2283 61.7654 24.0147 60.7311L44.4118 48.8785C45.0803 48.4885 45.4679 47.9911 45.5802 47.4541L45.6139 47.4372V45.7811H45.6195Z" fill="#BAA2B1"/>
<path d="M6.10061 52.7386L17.021 59.1369C19.0826 60.3351 22.2284 60.4651 24.0148 59.4308L44.4119 47.5782C46.1983 46.5438 45.9736 44.7125 43.912 43.5143L32.9915 37.116L6.10061 52.7386Z" fill="#D3C2CC"/>
<path d="M39.6596 31.6164C40.5921 30.3673 40.6258 29.2877 41.5695 29.9151C41.5751 29.9208 41.5808 29.9208 41.5864 29.9264C42.502 30.5595 41.665 31.5882 41.0696 32.9334C40.4685 34.2842 40.1427 35.4825 40.1427 35.4825L39.2832 34.8947L37.4912 33.6625C37.4856 33.6625 38.7271 32.8655 39.6596 31.6164Z" fill="#4C870E"/>
<path d="M41.0694 32.9334C40.4684 34.2843 40.1426 35.4825 40.1426 35.4825L39.2831 34.8947C39.4179 34.0751 39.9066 33.2725 40.3055 32.5547C40.5583 32.1025 41.7379 30.6499 41.5863 29.9265C42.4963 30.5595 41.6649 31.5882 41.0694 32.9334Z" fill="#427507"/>
<path d="M22.0486 42.5197C22.2733 42.0675 22.5878 41.7057 22.953 41.4062C24.172 40.3944 26.0089 40.0836 27.4863 39.524C28.6716 39.0718 29.8119 38.5688 30.8062 37.851C31.9016 37.0597 32.8959 36.1384 33.9408 35.2849C35.1598 34.2845 37.0135 32.0971 38.8336 33.0862C39.328 33.3575 39.6931 33.7475 39.9571 34.2053C40.4571 35.0701 40.6031 36.1666 40.575 37.1049C40.5189 39.1114 39.6706 41.0557 38.3954 42.6779C37.0697 44.3623 35.3002 45.7357 33.4127 46.8436C31.5871 47.9175 29.5142 48.7823 27.3346 48.7596C25.5426 48.7427 23.6664 48.104 22.5766 46.7531C21.6273 45.5831 21.3632 43.8818 22.0486 42.5197Z" fill="#5F5FC1"/>
<path d="M22.0485 42.5199C22.2732 42.0678 22.5878 41.706 22.9529 41.4065C23.4698 41.2482 24.0427 41.2199 24.5539 41.3386C25.5595 41.576 26.4302 42.1638 27.3233 42.6556C28.7558 43.4469 30.1096 43.656 31.632 42.9778C33.8003 42.0112 35.7327 40.1178 37.2438 38.3091C38.2999 37.043 39.2043 35.6639 39.9571 34.2C40.457 35.0647 40.6031 36.1613 40.575 37.0995C40.5694 37.2691 40.5582 37.4443 40.5413 37.6139C40.3672 39.4338 39.5639 41.1917 38.3954 42.6782C37.0697 44.3625 35.3002 45.736 33.4127 46.8438C31.587 47.9177 29.5142 48.7825 27.3346 48.7599C25.5426 48.743 23.6664 48.1043 22.5766 46.7534C22.3463 46.4708 22.1609 46.1543 22.0148 45.8151C21.5542 44.7751 21.5317 43.5543 22.0485 42.5199Z" fill="#5454B2"/>
<path d="M38.3899 42.6722C37.0642 44.3565 35.2947 45.73 33.4072 46.8378C31.5815 47.9117 29.5087 48.7765 27.3291 48.7539C25.5371 48.7369 23.6609 48.0982 22.5711 46.7474C22.3408 46.4648 22.1554 46.1482 22.0093 45.8091C23.3744 46.8378 24.8068 47.1713 26.4752 47.1939C28.8177 47.2278 31.6377 46.38 33.6431 45.1139C35.4463 43.9778 36.9406 42.4009 38.3 40.773C39.1314 39.7783 39.9179 38.7383 40.5358 37.6022C40.3617 39.4335 39.5527 41.1856 38.3899 42.6722Z" fill="#3D3D99"/>
<path d="M31.9186 38.2071C32.0254 37.8511 32.3456 37.5854 32.6096 37.3537C33.0814 36.9297 33.5814 36.5284 34.0757 36.1271C34.4353 35.8332 35.7666 34.5841 36.8845 34.0698C37.2552 33.9002 38.0642 33.6119 38.463 34.2054C38.8843 34.8328 37.4462 37.3819 34.5588 38.5632C32.3849 39.4563 31.7389 38.795 31.9186 38.2071Z" fill="#7171D3"/>
<path d="M33.9184 37.0769C34.3397 36.7999 35.2609 35.6921 35.744 35.9634C36.3788 36.3195 35.4183 37.3425 35.216 37.5177C34.7835 37.8908 33.5814 38.7386 33.0533 38.0886C32.7219 37.6703 33.4634 37.3199 33.9184 37.0769Z" fill="white"/>
<path d="M36.9406 34.46C37.1147 34.3413 37.3844 34.1435 37.6091 34.2C38.1146 34.3243 37.6653 35.0535 37.4743 35.2513C37.2439 35.4944 36.6148 35.89 36.2609 35.5735C35.8452 35.1948 36.7665 34.5844 36.9406 34.46Z" fill="white"/>
<path d="M22.6665 43.6676C22.9698 43.3115 23.8686 43.238 24.0596 44.2158C24.1832 44.8545 23.6214 45.3576 23.0709 45.1089C22.5035 44.8658 22.2339 44.1706 22.6665 43.6676Z" fill="#3D3D99"/>
<path d="M16.3918 49.9071C19.5713 49.7488 22.616 47.3918 22.762 44.091C22.4081 43.5258 21.9138 43.0227 21.2397 42.6045C18.695 41.0332 15.2178 41.6888 13.4651 43.8875C12.3135 44.4866 11.3248 45.3458 10.78 46.4027C11.9652 48.5166 13.7572 50.0427 16.3918 49.9071Z" fill="#F4382F"/>
<path d="M10.7745 50.1441C12.5608 53.9932 17.8244 53.6767 20.7848 51.5006C23.1048 49.7937 24.2283 46.4419 22.7566 44.0906C22.6161 47.3972 19.5658 49.7485 16.3863 49.9067C13.7517 50.0367 11.9654 48.5163 10.7745 46.4024C10.2239 47.4763 10.1284 48.7424 10.7745 50.1441Z" fill="#F4382F"/>
<path opacity="0.5" d="M10.7745 50.1441C12.5608 53.9932 17.8244 53.6767 20.7848 51.5006C23.1048 49.7937 24.2283 46.4419 22.7566 44.0906C22.6161 47.3972 19.5658 49.7485 16.3863 49.9067C13.7517 50.0367 11.9654 48.5163 10.7745 46.4024C10.2239 47.4763 10.1284 48.7424 10.7745 50.1441Z" fill="#CA2010"/>
<path d="M17.4481 45.1531C17.4481 45.4866 16.9875 45.7636 16.4201 45.7636C15.8528 45.7636 15.3921 45.4923 15.3921 45.1531C15.3921 44.8196 15.8528 44.5483 16.4201 44.5483C16.9875 44.5483 17.4481 44.8196 17.4481 45.1531Z" fill="#CA2010"/>
<path d="M13.6055 45.176C13.1168 44.8199 12.4989 45.2834 12.2686 45.7186C12.0382 46.1595 11.9147 46.9508 12.5382 47.1373C13.0831 47.3012 13.7516 46.7021 13.8527 46.1878C13.9032 45.8995 13.9819 45.4417 13.6055 45.176Z" fill="white"/>
<path d="M29.1766 53.1061C32.019 52.4674 36.9175 50.4214 35.7097 46.7757C35.485 46.6118 35.221 46.4875 34.9176 46.4479C34.3559 46.3688 33.7717 46.5553 33.2324 46.6966C32.1763 46.9735 31.1202 47.2674 30.0697 47.5501C28.1092 48.0757 26.1543 48.6127 24.1938 49.144C22.8906 49.5001 21.211 49.7374 20.3403 50.9074C20.0818 51.2522 19.9302 51.6479 19.8909 52.0492C22.2109 54.4287 26.2105 53.7787 29.1766 53.1061Z" fill="#97C941"/>
<path d="M20.4252 53.5691C21.2846 54.4225 22.7059 54.5469 23.8406 54.626C25.4697 54.7334 27.11 54.5582 28.6997 54.1795C30.694 53.6991 34.4801 52.4104 35.8227 50.2908C36.1822 49.7199 36.5586 49.1717 36.5418 48.4539C36.5249 47.7869 36.216 47.1539 35.7048 46.7808C36.9125 50.4265 32.0141 52.4669 29.1716 53.1112C26.2112 53.7782 22.2059 54.4282 19.8803 52.0486C19.8353 52.5856 19.9926 53.1338 20.4252 53.5691Z" fill="#8DBA36"/>
<path d="M34.7835 47.4711C34.3116 47.3524 34.0082 47.9854 34.0925 48.3754C34.1206 48.4998 34.2835 48.5111 34.3453 48.415C34.4464 48.268 34.4633 48.0928 34.5307 47.9289C34.5925 47.7819 34.6823 47.6632 34.8003 47.5559C34.834 47.5332 34.8228 47.4824 34.7835 47.4711Z" fill="#8DBA36"/>
<path d="M34.0869 49.5736C33.778 49.5397 33.469 50.0597 33.5645 50.331C33.6039 50.4497 33.7499 50.4723 33.8229 50.3706C33.9072 50.2575 33.9128 50.1219 33.9746 49.9975C34.0307 49.8845 34.1318 49.7997 34.1543 49.6697C34.1655 49.6188 34.1375 49.5793 34.0869 49.5736Z" fill="#8DBA36"/>
<path d="M33.3849 48.5843C33.1096 48.1491 32.2052 48.4656 32.1996 48.9573C32.1996 49.0647 32.3007 49.1099 32.3906 49.0704C32.5703 48.9969 32.6939 48.8499 32.8793 48.7878C33.031 48.7426 33.1939 48.7482 33.3399 48.686C33.3792 48.6747 33.4129 48.6239 33.3849 48.5843Z" fill="#8DBA36"/>
<path d="M30.9411 49.5394C30.8456 49.1946 30.1715 48.9346 29.9187 49.2455C29.9075 49.2624 29.9075 49.302 29.9243 49.3133C30.0367 49.4037 30.1715 49.4037 30.3007 49.4603C30.4692 49.5281 30.5984 49.6524 30.7726 49.6976C30.8737 49.7203 30.9692 49.6411 30.9411 49.5394Z" fill="#8DBA36"/>
<path d="M31.4915 48.0248C31.1938 47.8383 30.6601 48.4091 30.9522 48.6522C30.9915 48.6861 31.0365 48.6974 31.087 48.6748C31.1994 48.6126 31.205 48.5109 31.2668 48.4035C31.3342 48.2904 31.4522 48.2452 31.5196 48.1378C31.5364 48.0983 31.5252 48.0474 31.4915 48.0248Z" fill="#8DBA36"/>
<path d="M31.4973 50.9131C31.1546 50.8622 30.6603 51.1731 30.6603 51.5461C30.6603 51.6309 30.7558 51.6931 30.8288 51.6478C30.958 51.5744 31.031 51.467 31.1378 51.3709C31.2557 51.2635 31.4074 51.19 31.5422 51.0939C31.6265 51.0374 31.5984 50.9244 31.4973 50.9131Z" fill="#8DBA36"/>
<path d="M29.52 52.094C29.3121 51.8057 28.756 51.7887 28.5089 52.0431C28.4302 52.1222 28.4864 52.2466 28.5931 52.2579C28.7279 52.2692 28.8684 52.2409 29.0032 52.2579C29.1324 52.2748 29.256 52.3257 29.3852 52.3144C29.4807 52.3087 29.593 52.1957 29.52 52.094Z" fill="#8DBA36"/>
<path d="M27.7728 49.8501C27.5313 49.9857 27.2616 50.2288 27.3178 50.534C27.3402 50.6584 27.4919 50.6753 27.5762 50.6075C27.7279 50.4831 27.784 50.2966 27.9582 50.1892C28.166 50.0592 27.9919 49.7314 27.7728 49.8501Z" fill="#8DBA36"/>
<path d="M26.1211 49.658C25.947 49.2567 25.3402 49.4207 25.1661 49.7259C25.1436 49.7654 25.1773 49.805 25.2167 49.7993C25.3515 49.7767 25.52 49.7711 25.6548 49.788C25.7784 49.805 25.8852 49.8559 26.0144 49.8446C26.1099 49.8333 26.1604 49.7485 26.1211 49.658Z" fill="#8DBA36"/>
<path d="M26.1662 51.6195C26.0089 51.3256 25.6045 51.2182 25.3124 51.1278C25.1158 51.0656 25.0428 51.3539 25.2225 51.433C25.4809 51.5404 25.7056 51.7891 25.9809 51.8513C26.1101 51.8852 26.2336 51.7495 26.1662 51.6195Z" fill="#8DBA36"/>
<path d="M24.1835 51.9584C23.8464 51.8962 23.4869 52.2693 23.6442 52.6084C23.6948 52.7101 23.8296 52.6988 23.8914 52.614C23.9532 52.5293 23.9644 52.4275 24.015 52.3314C24.0655 52.241 24.1441 52.1393 24.2059 52.0601C24.234 52.0375 24.234 51.9697 24.1835 51.9584Z" fill="#8DBA36"/>
<path d="M22.3352 51.5912C22.0936 51.3425 21.5319 51.5234 21.3971 51.8173C21.369 51.8738 21.3971 51.9303 21.4645 51.936C21.6218 51.9529 21.7734 51.9021 21.9251 51.8851C22.0768 51.8625 22.206 51.8681 22.3352 51.7664C22.3857 51.7268 22.3801 51.6364 22.3352 51.5912Z" fill="#8DBA36"/>
<path d="M22.88 50.2007C22.5318 50.229 22.0655 50.6303 22.2284 51.009C22.2565 51.0768 22.352 51.0994 22.4138 51.0655C22.5318 50.9977 22.5767 50.8846 22.6497 50.7716C22.7396 50.6359 22.852 50.5229 22.9587 50.3985C23.0093 50.3307 22.9868 50.1894 22.88 50.2007Z" fill="#8DBA36"/>
<path d="M34.2667 46.9455C34.1207 46.7646 33.7611 46.9681 33.6151 47.0642C33.3679 47.2281 33.2162 47.4259 33.2331 47.7255C33.2387 47.8103 33.323 47.8442 33.3904 47.7933C33.6095 47.6294 33.778 47.4146 34.0027 47.262C34.0757 47.2055 34.3847 47.0924 34.2667 46.9455Z" fill="#B4E25A"/>
<path d="M29.9018 48.6067C29.694 48.2619 28.93 48.4032 28.6323 48.5558C28.593 48.5784 28.5593 48.6293 28.5593 48.6745C28.5593 48.6915 28.5593 48.7028 28.5649 48.7198C28.5705 48.7254 28.5705 48.7311 28.5761 48.7424C28.593 48.7876 28.6492 48.8102 28.6941 48.8158C28.902 48.8328 29.1042 48.8158 29.312 48.8328C29.4918 48.8498 29.6884 48.9289 29.8401 48.8158C29.9075 48.7706 29.9524 48.6858 29.9018 48.6067Z" fill="#B4E25A"/>
<path d="M28.6605 49.4153C28.5144 49.3927 28.3908 49.5453 28.5032 49.6696C28.5818 49.76 28.6773 49.8335 28.756 49.924C28.829 50.0087 28.8683 50.1218 28.9414 50.2066C29.02 50.3027 29.1604 50.3705 29.2616 50.2744C29.5874 49.9805 28.9189 49.4548 28.6605 49.4153Z" fill="#B4E25A"/>
<path d="M26.9978 48.9686C26.6945 49.1382 26.3293 49.3926 26.2507 49.76C26.2282 49.8617 26.3293 49.9634 26.4305 49.9069C26.717 49.7373 26.9248 49.4434 27.1888 49.2399C27.3405 49.1213 27.1608 48.8782 26.9978 48.9686Z" fill="#B4E25A"/>
<path d="M24.2396 50.3416C23.9925 50.2398 23.6442 50.2172 23.397 50.3246C23.3184 50.3585 23.3352 50.4716 23.3914 50.5111C23.6386 50.692 24.0767 50.6185 24.2733 50.8559C24.3239 50.9181 24.4194 50.8955 24.4643 50.839C24.5992 50.6355 24.425 50.4207 24.2396 50.3416Z" fill="#B4E25A"/>
<path d="M6.57806 26.3765L7.61168 25.7774C8.72957 25.1274 9.443 25.4552 9.443 27.1395C9.443 28.8239 8.72394 30.0334 7.65662 30.6552L6.57806 31.2826V26.3765ZM7.56113 29.813C8.18467 29.4513 8.60037 28.8069 8.60037 27.6313C8.60037 26.4556 8.18467 26.3369 7.56113 26.6987L7.40384 26.7891V29.9034L7.56113 29.813Z" fill="#F4382F"/>
<path d="M10.1396 24.3078L10.9653 23.8331V28.7391L10.1396 29.2196V24.3078Z" fill="#F4382F"/>
<path d="M11.8247 23.3303L14.111 22.0021V22.9347L12.6505 23.7825V24.766L13.8919 24.0425V24.9695L12.6505 25.6929V26.8234L14.1672 25.9416V26.8742L11.8247 28.2364V23.3303Z" fill="#F4382F"/>
<path d="M15.6054 22.0642L14.5999 22.6464V21.7138L17.4367 20.069V21.0016L16.4312 21.5837V25.5572L15.5998 26.0377V22.0642H15.6054Z" fill="#F4382F"/>
<path d="M19.1332 19.0853L20.3915 18.3561C21.1948 17.8927 21.8408 17.904 21.8408 19.0909C21.8408 20.244 21.1836 21.1313 20.414 21.5835L19.9534 21.8492V23.5109L19.1276 23.9913V19.0853H19.1332ZM20.3578 20.7357C20.8128 20.47 21.0319 20.0744 21.0319 19.56C21.0319 19.0457 20.7847 19.0061 20.3353 19.2661L19.9534 19.4866V20.9674L20.3578 20.7357Z" fill="#F4382F"/>
<path d="M22.4698 17.1472L23.2956 16.6667V20.6402L24.7393 19.798V20.7307L22.4698 22.0476V17.1472Z" fill="#F4382F"/>
<path d="M26.0202 15.0837L27.0145 14.5072L28.1605 18.7463L27.2842 19.255L27.0595 18.2207L25.9472 18.8707L25.7225 20.165L24.8799 20.6511L26.0202 15.0837ZM26.1101 17.9042L26.8909 17.452L26.8011 17.0507C26.6999 16.6211 26.5988 16.1011 26.5033 15.6433L26.4809 15.6546C26.391 16.2255 26.2955 16.8529 26.1944 17.4011L26.1101 17.9042Z" fill="#F4382F"/>
<path d="M28.5535 13.6141L29.4017 13.1224L30.3567 15.0046L30.7162 15.8806L30.7387 15.8693C30.705 15.372 30.6376 14.7163 30.6376 14.1398V12.4102L31.424 11.9524V16.8585L30.5758 17.3502L29.6208 15.4567L29.2613 14.5976L29.2388 14.6089C29.2725 15.1289 29.3399 15.745 29.3399 16.3272V18.0624L28.5535 18.5202V13.6141Z" fill="#F4382F"/>
<path d="M12.4258 34.4938V39.5751L7.37007 42.5086V37.4273L12.4258 34.4938Z" fill="white"/>
<path d="M7.9151 38.2522L9.94864 40.3435L12.1395 33.6457L9.38126 38.5122L7.9151 38.2522Z" fill="#97C941"/>
<path d="M21.5316 29.0333V34.1146L16.4815 37.0537V31.9667L21.5316 29.0333Z" fill="white"/>
<path d="M17.0266 32.7917L19.0545 34.883L21.2453 28.1852L18.4871 33.0573L17.0266 32.7917Z" fill="#97C941"/>
<path d="M30.5537 23.8784V28.9653L25.498 31.8988V26.8175L30.5537 23.8784Z" fill="white"/>
<path d="M26.0487 27.6368L28.0766 29.7337L30.2674 23.0303L27.5093 27.9024L26.0487 27.6368Z" fill="#97C941"/>
<path d="M71.4384 24.6698C70.8767 24.0763 69.4386 23.6694 67.8152 23.935C65.2761 24.3533 58.4733 28.892 58.4733 28.892L51.6649 26.2185C51.6649 26.2185 51.7435 27.6711 50.356 29.0615C51.4571 30.5367 56.5409 34.1824 59.0406 34.1824C62.0909 34.188 70.1408 28.762 70.1408 28.762L71.4384 24.6698Z" fill="#E5DFE2"/>
<path d="M75.0058 50.4891C75.0058 50.4891 76.9382 54.7225 76.9213 60.0356C76.9045 65.3543 75.6911 72.0464 76.1068 73.8043C76.2585 74.4486 77.5224 76.3138 77.9212 78.6877C78.6066 82.7855 76.9101 88.8899 78.0673 92.5977C78.6796 94.559 79.3256 96.4977 79.7694 98.1877C80.5614 101.223 80.2469 102.698 78.6964 103.054C76.1967 103.625 75.7023 102.365 75.7585 98.9225C75.7866 96.9951 75.8203 95.6386 75.4552 94.5873C75.0507 93.4229 75.5113 92.8747 75.4889 92.2247C75.4664 91.4107 73.0958 84.956 72.3768 80.3495C72.051 78.2638 71.7982 76.7773 71.7701 75.579C71.6521 70.3169 68.1019 64.4612 67.9671 59.0578C67.8322 53.6543 75.0058 50.4891 75.0058 50.4891Z" fill="#FFC9B6"/>
<path d="M62.4673 51.0823C62.4673 51.0823 61.1416 54.9936 60.9225 60.6232C60.7034 66.2584 62.4898 67.7562 62.3213 70.1923C62.1584 72.6227 62.692 78.6084 62.3213 82.6666C61.9449 86.7249 62.4224 87.5218 60.1361 88.8727C58.0913 90.0823 57.8216 90.4723 56.788 91.8175C56.0465 92.784 57.2543 93.3323 58.2149 93.2305C60.3102 93.0101 62.2595 90.947 63.4054 90.6362C64.5458 90.3253 66.1131 89.941 65.9726 88.7031C65.821 87.3749 65.4895 87.3805 65.3603 86.2162C65.1412 84.2944 66.349 80.5131 66.9276 77.6418C67.3826 75.3923 67.1242 73.0071 67.259 71.368C67.5568 67.6375 70.6632 61.7706 70.0285 57.441C69.3993 53.1058 69.3431 51.3367 69.3431 51.3367L62.4673 51.0823Z" fill="#FFC9B6"/>
<path d="M62.7483 67.4006L61.9787 86.618C61.9787 86.618 62.9337 88.0367 63.9729 87.7484C65.0122 87.4602 65.5851 87.2002 65.5851 87.2002C65.5851 87.2002 67.5906 78.0098 67.9726 75.2798C68.3546 72.5498 68.3209 70.6563 67.9726 70.6563C67.6187 70.6506 62.7483 67.4006 62.7483 67.4006Z" fill="#1F1F1F"/>
<path d="M71.8654 77.2691C72.0676 80.2477 73.6574 86.0412 74.0843 88.0534C74.5113 90.0656 75.118 91.8347 75.118 91.8347C75.118 91.8347 76.4156 92.6486 77.32 92.3716C78.2245 92.0947 78.2694 91.6199 78.2694 91.6199C78.2694 91.6199 79.1008 77.3425 78.1121 75.3078C77.1178 73.273 71.6913 74.7143 71.8654 77.2691Z" fill="#1F1F1F"/>
<path d="M88.9482 32.6337C88.9201 32.0176 88.7235 31.4185 88.3583 30.8137C88.0213 30.2485 87.5775 29.7567 87.1337 29.2763C86.2237 28.2815 85.1507 27.4619 85.9316 25.9302C86.1619 25.4837 86.7349 25.1559 87.0382 24.7433C87.3528 24.3193 87.5719 23.8446 87.673 23.3246C87.8528 22.392 87.673 21.3802 87.173 20.572C86.4821 19.4528 85.2856 19.2267 84.2351 18.5767C83.6396 18.2094 83.1678 17.3785 83.2183 16.655C83.2464 16.2763 83.6509 15.8524 83.7576 15.4567C83.8643 15.0668 83.9093 14.6881 83.8475 14.2811C83.7183 13.4333 83.1677 12.6363 82.415 12.2294C81.7858 11.8846 81.123 11.9298 80.4601 12.0033C79.6681 11.9976 78.8367 12.0202 78.2468 11.5681C77.657 11.1215 77.4267 10.6185 76.6571 10.4094C75.3988 10.0646 74.1123 10.6128 73.3765 11.6698C72.5114 12.9076 72.5338 14.4846 73.1293 15.8298C73.427 16.4967 74.2247 17.4011 75.0954 18.0681C76.0504 18.7972 76.4099 19.2041 76.6065 20.4137C76.702 20.9959 76.7245 22.132 77.1009 22.7707C77.3312 23.7428 77.848 24.6246 78.7075 25.2633C79.213 25.6363 79.8029 25.8341 80.3422 26.1506C81.3589 26.7441 81.4151 27.9141 81.1735 28.9485C81.1061 29.2367 80.6399 29.8246 80.8421 30.5537C81.1061 31.5032 82.4263 30.9663 82.5835 32.3115C82.7802 33.9789 80.5107 35.098 81.3252 37.0084C81.9432 38.4498 83.7913 38.5741 85.1226 38.2406C87.555 37.6415 89.3301 35.0076 88.9482 32.6337Z" fill="#F96500"/>
<path d="M77.1681 14.9254C76.9434 14.5976 76.5615 14.4902 76.1963 14.5467C76.2637 14.2019 76.1795 13.8345 75.893 13.6028C75.6177 13.3767 75.2582 13.3823 74.9548 13.5576C74.9268 13.5745 74.8931 13.6028 74.8594 13.6197C74.8594 13.405 74.8144 13.1902 74.6852 12.998C74.4886 12.6984 74.1459 12.5232 73.7864 12.6306C73.0786 12.8454 72.7135 14.0663 72.9045 14.7163C72.9213 14.7728 72.9663 14.8067 73.0168 14.8236C73.3033 15.7958 73.9999 16.4854 74.8032 17.0845C75.056 17.271 75.3537 17.5536 75.6908 17.531C76.0615 17.5084 76.3929 17.158 76.6176 16.9036C77.0333 16.4289 77.5895 15.5415 77.1681 14.9254Z" fill="white"/>
<path d="M65.3604 36.2174C65.5739 36.9014 65.3042 40.3096 65.2312 40.6714C64.8211 42.7174 64.3605 44.6053 63.8718 46.4422C64.3774 47.0583 65.484 48.1435 65.602 48.2283C67.2142 49.3644 69.0623 49.8844 71.0228 49.63C72.9328 49.3813 74.7585 48.5335 76.2303 47.2844C76.3258 47.2053 76.41 47.1261 76.4887 47.0526C75.6348 45.6735 74.7753 44.2887 74.1125 42.8361C73.7866 41.3779 74.2698 40.0722 75.4663 38.744C76.3819 37.7266 77.1965 36.7714 77.6796 35.4601C78.2076 34.0187 78.5166 30.7348 76.9605 29.4914C75.8314 28.587 74.2585 27.7392 72.871 27.1061C71.77 26.6088 69.4219 24.6362 68.8545 25.0827C68.1355 25.6535 67.0681 27.0101 66.5064 27.7335C65.8491 28.5814 64.8829 29.7966 64.2931 30.6953C63.4392 32.0066 64.5234 36.1892 65.3604 36.2174Z" fill="#7171D3"/>
<path d="M71.6519 78.8462C73.5618 78.2188 75.1909 78.6144 77.1514 79.0553C80.0051 79.694 82.6565 78.4675 83.7632 75.941C83.2913 72.8605 82.3869 69.0736 81.9544 65.2471C81.4095 60.4371 79.9938 54.4345 78.3198 49.3362C77.4828 46.7928 75.792 44.2719 75.6571 43.2941C75.2639 40.3549 79.2467 33.7871 78.7861 32.1084C78.1232 29.6724 77.1008 29.0845 75.6571 28.1689C75.174 27.8637 73.3596 30.7067 70.1127 32.2893C68.8094 32.9223 67.405 35.9915 65.6861 35.8389C65.4782 31.2437 67.7758 26.8519 70.3374 25.5237C69.4667 25.2184 69.0847 25.1054 69.0847 25.1054C69.0847 25.1054 66.113 27.4454 64.9783 29.2371C63.8492 31.0289 63.2369 32.1084 63.6413 33.821C63.8716 34.8045 65.0963 38.1789 64.9221 39.818C64.4952 43.8649 61.5853 48.2454 59.9787 53.581C58.2373 59.3632 57.2992 66.6771 56.8723 73.6971C57.3217 74.8671 58.153 74.7992 58.7485 75.6584C59.8495 77.241 59.6024 78.2131 61.4617 78.3544C61.8044 76.0823 62.765 71.7471 64.0008 69.2884C64.3042 71.6284 64.9614 76.1162 65.4277 79.0892C67.8769 79.8523 69.0004 79.7223 71.6519 78.8462Z" fill="white"/>
<path d="M74.4609 22.7478C74.4609 22.5613 72.3431 23.183 71.3432 23.3017C71.3319 23.3017 71.2982 23.2565 71.2814 23.2282C71.2477 23.1717 71.1634 23.2 71.1634 23.2621C71.1016 24.2965 71.1522 25.1726 70.5174 26.0656C70.186 26.5291 69.6073 27.1339 69.0231 28.123C68.5232 28.9708 68.4782 29.8017 69.1299 30.3047C70.1579 31.096 73.2812 29.8695 75.1125 28.1004C74.899 27.8121 74.517 27.4843 74.3935 26.8626C74.2305 26.043 74.4777 24.2569 74.4609 22.7478Z" fill="#F9A895"/>
<path d="M69.5007 24.3531C69.5007 24.3531 67.5739 25.7945 66.7256 26.761C65.3942 28.2758 64.4898 30.0279 64.4898 30.0279L65.8942 31.4975L64.282 32.3566C64.282 32.3566 64.5685 34.8266 64.7707 35.6462C65.046 36.7823 66.0459 38.167 66.0459 38.167C66.0459 38.167 66.4166 33.1649 66.6076 31.8988C66.866 30.1579 68.3659 28.0384 70.1186 26.1505C70.3545 25.8849 69.5007 24.3531 69.5007 24.3531Z" fill="#F2F2F2"/>
<path d="M66.894 20.0969C66.8603 18.8195 67.0288 17.203 67.9388 16.2308C68.8376 15.27 70.4836 15.0665 71.7363 15.0721C73.6799 15.0778 75.1854 17.1352 75.0113 19.6504C74.8484 21.9678 73.5619 25.6134 71.0453 26.2691C68.2422 26.9925 66.9389 22.0413 66.894 20.0969Z" fill="#FFC9B6"/>
<path d="M63.8044 17.1922C64.0572 16.6722 64.4785 16.4631 64.9391 16.4348C64.5066 15.9657 64.3268 15.3044 64.793 14.7109C65.3604 13.9818 66.3435 14.1231 66.8715 14.7335C68.1355 13.9366 69.5567 13.7274 71.0509 13.8292C71.7587 13.88 72.5845 13.914 73.2474 14.2135C73.4946 14.3266 74.2192 15.3044 74.2304 15.31C74.2866 15.3157 74.3372 15.3383 74.3765 15.3666C74.4158 15.3439 74.4551 15.327 74.4945 15.327C77.8874 15.3779 76.5786 21.1713 74.5844 23.4322C74.0675 22.8557 73.944 22.4205 73.444 21.3861C73.2418 20.9735 72.9047 19.8996 72.6632 19.5265C72.0284 20.0465 70.6353 20.1596 69.5118 20.12C69.141 20.3065 68.7421 20.4592 68.3714 20.5722C66.9782 21.0074 65.4671 20.8265 64.4111 19.7413C63.7931 19.1026 63.3887 18.0513 63.8044 17.1922Z" fill="#FF781D"/>
<path d="M72.7136 20.5892C72.7136 20.5892 73.4439 19.1987 74.1011 19.9844C74.7528 20.77 74.309 22.4996 73.5562 22.5109C72.8035 22.5222 72.7136 20.5892 72.7136 20.5892Z" fill="#FFC9B6"/>
<path d="M65.7818 87.742C65.7818 87.742 65.1526 88.5616 64.9729 89.042C64.0347 89.5902 62.9449 89.935 61.726 90.7546C60.507 91.5741 59.7318 92.0828 58.8442 91.4498C57.9566 90.8168 57.8611 90.4381 57.8611 90.4381C57.8611 90.4381 56.4624 91.2972 56.0973 91.8794C55.7321 92.4615 56.8556 93.9707 58.8049 93.7785C60.7541 93.5863 61.5406 92.3768 62.636 91.5628C63.7314 90.7489 64.7032 90.5455 65.6975 89.9124C66.6806 89.2737 65.7818 87.742 65.7818 87.742Z" fill="#7171D3"/>
<path d="M75.7582 98.9222C75.7582 98.9222 76.3593 100.59 76.9884 100.963C77.758 101.415 78.9882 101.432 79.5219 100.59C79.9151 99.9679 79.9264 99.1257 79.9264 99.1257C79.9264 99.1257 81.6341 103.54 77.8479 103.744C75.0504 103.891 75.7582 98.9222 75.7582 98.9222Z" fill="#7171D3"/>
<path d="M74.4159 26.3424C74.4159 26.3424 74.2811 27.0659 73.6744 27.7781C72.7531 28.8689 71.0623 30.2537 69.6242 31.5481C68.0794 32.9385 65.9447 36.2394 65.9447 36.2394L66.0402 37.9746C66.0402 37.9746 69.6691 35.4594 71.2364 34.5946C71.0791 33.7524 70.3769 32.1585 70.3769 32.1585L73.0789 33.1533L76.1629 28.4959C76.1629 28.4959 76.045 27.7554 75.5001 26.9924C75.3147 26.7324 74.4159 26.3424 74.4159 26.3424Z" fill="#F2F2F2"/>
<path d="M60.265 37.3593L59.7201 37.6702L63.9163 47.5784L64.4612 47.2676L60.265 37.3593Z" fill="#D3C2CC"/>
<path d="M52.4793 33.4647L53.0242 33.1538L60.2651 37.359L59.7202 37.6699L52.4793 33.4647Z" fill="#E0D7DC"/>
<path d="M56.608 45.3458L65.2421 50.3592L60.2369 38.5405L51.6028 33.5214L56.608 45.3458Z" fill="#5F5FC1"/>
<path d="M60.8884 38.1669L60.2367 38.54L65.2419 50.3586L65.8935 49.9913L60.8884 38.1669Z" fill="#7171D3"/>
<path d="M51.603 33.5213L52.2546 33.1539L60.8887 38.1673L60.2371 38.5404L51.603 33.5213Z" fill="#8686E2"/>
<path d="M64.6469 45.3678C64.2817 45.0004 64.2312 44.5426 63.793 43.7852C63.338 43.0052 63.1245 42.7565 62.9841 43.1012C62.7819 43.5817 63.3099 44.4295 63.074 44.763C62.956 44.9269 61.9898 45.1417 61.4168 44.9495C60.8439 44.7517 60.0068 44.1469 59.462 44.2656C58.6025 44.4521 59.2597 45.3282 59.917 46.0234C61.0124 47.1765 63.074 47.0917 64.1301 47.4195C65.1861 47.7473 67.7589 47.736 67.7589 47.736C67.7589 47.736 67.9387 45.9952 67.332 45.2152C66.3658 45.1586 65.1749 45.3678 64.6469 45.3678Z" fill="#FFC9B6"/>
<path d="M76.9323 29.0385C77.2581 29.2476 78.2861 30.0106 78.8366 31.0676C79.6905 32.7124 79.668 35.1315 79.0951 38.1667C78.6232 40.6932 78.1008 45.7632 76.2189 47.278C73.2978 47.7302 65.8883 47.9167 65.8883 47.9167C65.8883 47.9167 65.4165 45.9215 65.8883 44.9776C66.5961 44.7684 71.034 44.0336 73.5113 44.0845C73.5899 41.9423 73.6966 39.9358 73.7135 37.2058C73.736 34.6398 73.5674 32.3224 76.9323 29.0385Z" fill="#F2F2F2"/>
<path d="M66.394 39.0093C66.4446 39.2298 66.3547 39.4333 66.1974 39.4728C66.0345 39.5124 65.866 39.3654 65.8098 39.145C65.7593 38.9246 65.8491 38.7211 66.0064 38.6815C66.1693 38.6476 66.3379 38.7889 66.394 39.0093Z" fill="#D3C2CC"/>
<path d="M65.557 44.4978C65.5345 44.7352 65.3773 44.9104 65.2032 44.8934C65.029 44.8765 64.9055 44.673 64.9279 44.4413C64.9504 44.2039 65.1077 44.0287 65.2818 44.0456C65.4559 44.0569 65.5795 44.2604 65.557 44.4978Z" fill="#D3C2CC"/>
<path d="M64.9558 59.9052C64.9558 60.1426 64.8154 60.3348 64.6413 60.3348C64.4671 60.3348 64.3267 60.1426 64.3267 59.9052C64.3267 59.6678 64.4671 59.4756 64.6413 59.4756C64.8154 59.4813 64.9558 59.6678 64.9558 59.9052Z" fill="#D3C2CC"/>
<path d="M65.2423 52.3766C65.2199 52.614 65.0626 52.7893 64.8884 52.7723C64.7143 52.7553 64.5907 52.5519 64.6132 52.3201C64.6357 52.0827 64.7929 51.9075 64.9671 51.9245C65.1412 51.9414 65.2648 52.1449 65.2423 52.3766Z" fill="#D3C2CC"/>
<path d="M64.6412 67.9597C64.6188 68.197 64.4615 68.3723 64.2873 68.3553C64.1132 68.3383 63.9896 68.1349 64.0121 67.9031C64.0346 67.6657 64.1918 67.4905 64.366 67.5075C64.5345 67.5188 64.6581 67.7223 64.6412 67.9597Z" fill="#D3C2CC"/>
<path d="M69.9612 33.8528L70.9683 34.4378L71.5497 33.4246L70.5427 32.8396L69.9612 33.8528Z" fill="#5E1D11"/>
<path d="M67.9765 34.8129L71.1386 36.6498L72.3464 34.5451L69.1843 32.7081L67.9765 34.8129Z" fill="#D3C2CC"/>
<path d="M51.9739 26.3427C49.9573 25.5909 48.6989 24.5792 47.6934 24.5453C47.317 24.4492 46.6373 24.2909 45.7441 24.1496C44.3397 23.9292 43.7949 23.5731 43.8117 24.0818C43.8286 24.5622 44.5532 24.9579 45.0251 25.184C43.6769 24.9353 41.7894 24.4322 41.3625 24.794C40.8007 25.2688 41.3625 25.4327 41.3625 25.4327C41.3625 25.4327 40.6041 25.8283 41.0648 26.0883C41.2895 26.2183 41.6434 26.467 41.6434 26.467C41.6434 26.467 41.0591 26.9248 41.5647 27.1679C41.8175 27.2866 44.7667 28.7335 46.1711 28.5753V28.5696C47.2047 28.5922 48.2945 27.9818 48.6933 28.2079C49.1315 28.4566 50.5415 29.3044 50.5415 29.3044C50.5415 29.3044 52.4795 28.1344 51.9739 26.3427Z" fill="#FFC9B6"/>
</svg>
