<?xml version="1.0" encoding="utf-8"?>
<!-- Generator: Adobe Illustrator 18.1.1, SVG Export Plug-In . SVG Version: 6.00 Build 0)  -->
<svg version="1.1" id="Слой_1" xmlns="http://www.w3.org/2000/svg" xmlns:xlink="http://www.w3.org/1999/xlink" x="0px" y="0px"
	 viewBox="0 358.68 595.28 124.531" enable-background="new 0 358.68 595.28 124.531" xml:space="preserve">
<g>
	<g>
		<polygon fill="#50B848" points="52.903,358.68 52.903,386.87 75.843,358.68 		"/>
		<path fill="#50B848" d="M3.507,372.092c1.6-2.572,3.319-4.601,5.699-6.508l1.807-1.227c1.708-0.929,3.254-1.547,5.164-2.022
			c1.157-0.207,2.223-0.32,3.415-0.359c1.593,0.053,2.957,0.253,4.505,0.635c1.086,0.347,2.069,0.736,3.1,1.225
			c2.342,1.292,4.123,2.746,5.916,4.714l1.347,1.701c1.976,2.893,3.254,5.759,4.197,9.107l0.51,2.276
			c0.067,0.363,0.123,0.724,0.168,1.071V358.68H0v24.09c0.488-2.657,1.27-6.146,2.469-8.731L3.507,372.092z"/>
		<path fill="#50B848" d="M92.241,362.576l-39.338,48.345v10.969c0.046-0.354,0.106-0.71,0.166-1.069l0.508-2.272
			c0.946-3.35,2.226-6.219,4.199-9.113l1.347-1.708c1.535-1.668,3.027-2.96,4.955-4.171c0.992-0.554,1.956-1.006,2.994-1.427
			c2.317-0.729,4.298-1.011,6.743-0.938l2.264,0.33c1.894,0.474,3.441,1.092,5.141,2.034c0.944,0.582,1.795,1.199,2.659,1.889
			c2.558,2.296,4.339,4.738,5.898,7.78l0.891,2.05c0.719,1.935,1.234,4.78,1.574,6.695C92.241,421.97,92.241,362.576,92.241,362.576
			z"/>
		<path fill="#50B848" d="M72.649,442.592c-5.55,0-10.072-7.085-10.072-15.782c0-8.692,4.522-15.777,10.072-15.777
			c5.557,0,10.084,7.085,10.084,15.777C82.733,435.507,78.206,442.592,72.649,442.592L72.649,442.592z M72.649,406.917
			c-7.862,0-14.269,8.933-14.269,19.893c0,10.96,6.408,19.9,14.269,19.9c7.858,0,14.275-8.94,14.275-19.9
			C86.93,415.855,80.507,406.917,72.649,406.917z"/>
		<path fill="#50B848" d="M53.577,435.084l-0.508-2.282c-0.06-0.361-0.12-0.715-0.166-1.063v24.03h39.338v-23.911
			c-0.496,2.664-1.273,5.959-2.465,8.55l-1.051,1.95c-1.6,2.563-3.314,4.584-5.691,6.5l-1.815,1.22
			c-1.701,0.941-3.247,1.552-5.141,2.027c-1.174,0.207-2.243,0.322-3.429,0.361c-1.588-0.053-2.96-0.246-4.507-0.635
			c-1.085-0.349-2.07-0.739-3.1-1.22c-2.342-1.3-4.125-2.75-5.92-4.715l-1.347-1.713C55.803,441.3,54.53,438.426,53.577,435.084z"/>
		<path fill="#50B848" d="M39.337,392.555c-0.044,0.354-0.101,0.708-0.168,1.071l-0.51,2.274c-0.943,3.35-2.221,6.221-4.197,9.107
			l-1.348,1.709c-1.526,1.666-3.032,2.957-4.962,4.176c-0.982,0.542-1.942,0.997-2.992,1.42c-2.325,0.736-4.286,1.018-6.729,0.929
			l-2.255-0.313c-1.909-0.476-3.456-1.093-5.164-2.036c-0.939-0.589-1.788-1.206-2.652-1.894c-2.565-2.303-4.339-4.729-5.893-7.78
			c-1.242-2.854-1.913-5.545-2.467-8.625v59.273l39.337-48.331V392.555z"/>
		<path fill="#50B848" d="M19.592,403.406c-5.552,0-10.086-7.082-10.086-15.773c0-8.692,4.534-15.79,10.086-15.79
			c5.544,0,10.062,7.099,10.062,15.79C29.654,396.324,25.136,403.406,19.592,403.406L19.592,403.406z M19.592,367.739
			c-7.862,0-14.276,8.931-14.276,19.893c0,10.954,6.414,19.886,14.276,19.886c7.853,0,14.261-8.933,14.261-19.886
			C33.853,376.671,27.445,367.739,19.592,367.739z"/>
		<polygon fill="#50B848" points="39.337,427.587 16.396,455.77 39.337,455.77 		"/>
		<polygon fill="#50B848" points="91.102,358.68 80.047,358.68 1.184,455.77 12.076,455.77 		"/>
		<rect x="42.765" y="449.087" fill="#50B848" width="6.748" height="6.683"/>
		<path fill="#50B848" d="M95.643,449.087v6.683c4.611,0,8.358,3.696,8.358,8.254c0,4.561-3.747,8.257-8.358,8.257
			c-3.395,0-6.497-0.761-12.942-2.344c-12.488-3.059-27.863-6.835-40.177-9.855c-22.13-5.424-42.432,0.729-42.517,15.106h6.746
			c0-5.345,10.353-8.892,32.524-3.461c19.176,4.705,26.388,6.474,40.83,10.016c9.535,2.337,17.351,1.774,22.968-0.903l0.021,0.021
			c5.617-2.727,9.479-8.438,9.479-15.031C112.576,456.579,104.99,449.087,95.643,449.087z"/>
		<rect x="328.126" y="431.674" fill="#50B848" width="19.777" height="9.248"/>
		<path fill="#50B848" d="M433.594,425.534h-18.689v-18.266h-10.481v48.502h10.481v-21.026h18.689v21.026h10.483v-48.502h-10.483
			L433.594,425.534L433.594,425.534z M363.751,437.796v-30.529H353.27v48.502h8.052l24.374-30.669v30.669h10.483v-48.502h-8.163
			L363.751,437.796L363.751,437.796z M548.295,406.205c-6.834-0.003-12.906,1.815-17.782,6.406
			c-4.154,3.853-7.78,10.196-7.78,18.945c-0.01,7.063,2.197,13.173,7.776,18.513c4.038,3.839,9.287,6.775,17.714,6.763
			c5.206,0,9.077-1.307,11.98-2.833l0.341-0.181v-12.887l-1.122,1.326c-2.654,3.124-6.36,4.941-10.56,4.945
			c-3.814,0-7.665-1.367-10.546-3.976c-2.878-2.614-4.813-6.455-4.818-11.528c0-4.204,1.49-8.178,4.106-11.087
			c2.613-2.909,6.336-4.768,10.904-4.772c1.62,0.003,6.774,0.332,10.918,5.092l1.119,1.287v-12.849l-0.33-0.181
			C555.788,406.79,551.693,406.205,548.295,406.205L548.295,406.205z M312.541,427.72c-1.779,1.336-3.851,1.357-5.627,1.355h-3.116
			v-12.601h2.549c2.169-0.003,4.428,0.159,6.135,1.365c1.211,0.9,2.354,2.464,2.356,4.864
			C314.842,424.584,314.058,426.519,312.541,427.72L312.541,427.72z M320.574,411.037c-1.802-1.583-3.699-2.542-5.802-3.083
			c-2.104-0.546-4.404-0.686-7.082-0.686h-14.375v48.502h10.481v-17.488h5.311c5.567,0.003,9.658-1.603,12.416-4.365
			c3.81-3.831,4.077-9.099,4.081-11c0-3.513-1.023-8.315-5.027-11.877L320.574,411.037L320.574,411.037z M563.561,407.268v9.207
			h10.62v39.296h10.485v-39.296h10.615v-9.207H563.561L563.561,407.268z M179.466,455.77h27.475v-9.207h-16.995v-11.609h16.287
			v-9.207h-16.287v-9.273h16.995v-9.207h-27.475V455.77L179.466,455.77z M474.149,443.545c-0.397,0.862-1.03,1.651-2.046,2.26
			c-1.855,1.095-4.296,1.187-5.975,1.182h-3.326v-11.749h2.76c1.98-0.005,4.228,0.017,6.031,0.861l0.027,0.012l-0.021-0.009
			c1.359,0.618,2.101,1.466,2.541,2.341c0.436,0.873,0.553,1.786,0.553,2.459C474.693,441.749,474.545,442.684,474.149,443.545
			L474.149,443.545z M462.801,416.05h2.051c1.788,0,3.429,0.394,4.572,1.234c1.139,0.842,1.86,2.079,1.872,4.077
			c-0.003,1.403-0.33,2.404-0.816,3.15c-0.725,1.117-1.858,1.713-2.986,2.033c-1.122,0.315-2.202,0.337-2.712,0.337h-1.981
			L462.801,416.05L462.801,416.05z M476.885,429.633c0.626-0.464,1.336-1.083,2.01-1.93c1.246-1.562,2.318-3.865,2.315-7.053
			c-0.003-4.137-1.69-8.002-4.64-10.276c-4.05-3.136-9.301-3.097-11.931-3.107h-12.321v48.502h16.499
			c4.171,0.003,8.68-0.72,12.386-3.981c3.444-3.073,4.252-7.171,4.252-10.038c-0.003-2.566-0.578-6.437-3.6-9.314
			C480.813,431.449,479.251,430.292,476.885,429.633L476.885,429.633z M491.139,455.77h27.476v-9.207H501.62v-11.609h16.287v-9.207
			H501.62v-9.273h16.995v-9.207h-27.476V455.77L491.139,455.77z M169.417,407.268h-10.483v39.296H141.52v-39.296h-10.481v48.502
			h34.269v10.62h9.771v-19.827h-5.662V407.268L169.417,407.268z M242.939,425.534h-18.69v-18.266h-10.481v48.502h10.481v-21.026
			h18.69v21.026h10.481v-48.502h-10.481V425.534L242.939,425.534z M257.506,416.474h10.623v39.296h10.48v-39.296h10.62v-9.207
			h-31.721v9.207H257.506z"/>
		<path fill="#50B848" d="M223.039,373.266h-14.56V358.77h-8.586v38.76h8.586v-16.689h14.56v16.687h8.589V358.77h-8.589V373.266
			L223.039,373.266z M173.19,382.424l4.442-11.101l4.346,11.101H173.19L173.19,382.424z M174.181,358.77l-16.449,38.76h9.32
			l3.314-7.867h14.263l3.314,7.867h9.251l-15.992-38.76H174.181L174.181,358.77z M253.981,376.737l16.453-17.967h-10.966
			l-12.83,14.769V358.77h-8.586v38.76h8.586v-16.335l0.144-0.142l13.063,16.478h11.339L253.981,376.737L253.981,376.737z
			 M147.7,388.485c-0.845,0.802-2.404,1.468-5.234,1.468l-2.842,0.002v-8.719h2.955c2.681,0.002,4.207,0.66,5.068,1.49
			c0.859,0.833,1.141,1.911,1.145,2.982C148.787,386.669,148.545,387.684,147.7,388.485L147.7,388.485z M153.851,376.857
			L153.851,376.857c-3.109-2.743-6.94-3.196-9.811-3.196h-4.414v-7.314h14.382v-7.576h-22.97v38.76h13.056
			c1.663-0.002,3.709-0.127,5.74-0.792c2.029-0.66,4.05-1.88,5.571-4.033l0.01-0.014l-0.007,0.01
			c1.364-1.959,2.193-4.39,2.193-7.054C157.605,381.94,156.122,378.885,153.851,376.857z"/>
	</g>
</g>
</svg>
