<svg width="168" height="105" viewBox="0 0 168 105" fill="none" xmlns="http://www.w3.org/2000/svg">
<g clip-path="url(#clip0_2722_54205)">
<path d="M154.041 104.979H0L13.9614 59.2266H168L154.041 104.979Z" fill="#00AEC7"/>
<path d="M65.714 42.0735V13.4634H78.2657V22.9393H84.0378V13.4634H96.5874V42.0735H84.0378V32.5934H78.2657V42.0735H65.714ZM127.823 26.1651L132.589 13.4634H120.351L116.541 22.9414H114.297V13.4634H101.746V42.0757H114.297V32.5955H117.297L121.109 42.0757H133.635L127.823 26.1651ZM151.394 33.359C148.365 33.359 147.654 30.9858 147.654 29.1364C147.654 27.2955 148.365 24.9774 151.394 24.9774C154.361 24.9774 155.074 27.2955 155.074 29.1364C155.074 30.9858 154.361 33.359 151.394 33.359ZM155.906 16.6489C152.105 16.6489 149.495 18.1314 147.715 20.038C147.774 17.599 149.552 15.0413 151.986 14.0339C156.201 12.246 161.069 13.4952 164.513 10.4603V0.0214844C164.513 0.0214844 161.568 1.23248 156.137 1.87298C152.873 2.25897 148.244 3.29818 144.153 5.88349C139.045 9.09445 135.426 14.3881 135.426 25.0941C135.426 39.0725 143.496 42.9961 151.808 42.9961C160 42.9961 167.302 38.835 167.302 29.673C167.302 20.8715 162.078 16.6489 155.906 16.6489ZM44.1031 32.9539C42.3781 32.9539 40.9493 31.938 40.4138 30.9264V24.6084C41.0086 23.5946 42.3781 22.583 44.1031 22.583C47.1341 22.583 48.4444 25.2044 48.4444 27.7685C48.4444 28.0866 48.4232 28.4111 48.3809 28.725C48.093 30.9455 46.7553 32.9539 44.1031 32.9539ZM61.3516 27.7685C61.3516 20.7315 58.164 14.0805 50.9801 12.7508C50.8171 12.7211 50.652 12.6935 50.4827 12.6702C50.0615 12.6087 49.6254 12.5599 49.1746 12.5366C48.8761 12.5196 48.5735 12.5111 48.2644 12.5111C47.9999 12.5111 47.7395 12.5175 47.4792 12.5323C47.4686 12.5323 47.4601 12.5323 47.4474 12.5366C45.1509 12.6723 43.1358 13.3891 41.5991 14.4665C40.5387 15.1749 39.6412 16.0211 38.9279 16.9182L37.8717 13.4634H27.9214V53.5028H40.4731V40.3451C41.3536 41.134 42.4627 41.8148 43.7983 42.2899C45.0408 42.7946 46.4695 43.0279 48.2644 43.0279C57.3681 43.0279 61.3516 35.6347 61.3516 27.7685Z" fill="#333E48"/>
</g>
<defs>
<clipPath id="clip0_2722_54205">
<rect width="168" height="105" fill="white"/>
</clipPath>
</defs>
</svg>
