<svg id="Слой_1" data-name="Слой 1" xmlns="http://www.w3.org/2000/svg" viewBox="0 0 1920 1080"><defs><style>.cls-1{fill:#21a049;}</style></defs><polygon class="cls-1" points="1100.43 640.6 1100.43 761.92 1126.6 761.92 1126.6 712.35 1182.41 712.35 1182.41 761.92 1208.58 761.92 1208.58 640.6 1182.41 640.6 1182.41 690.34 1126.6 690.34 1126.6 640.6 1100.43 640.6"/><polygon class="cls-1" points="1267.53 712.99 1283.81 712.99 1323.99 761.92 1357.83 761.92 1304.27 699.18 1351.07 640.6 1320.98 640.6 1281.98 692.6 1267.53 692.6 1267.53 640.6 1241.34 640.6 1241.34 761.92 1267.53 761.92 1267.53 712.99"/><path class="cls-1" d="M1055.42,761.92H1083L1031.85,640.6h-26.69L952.82,761.92h26.52l10.57-24.44h55.63ZM997.71,717.2,1018,668.5l19.06,48.7Z"/><path class="cls-1" d="M898.08,687.89H866.23V660.8H934.7l.06-20.2H840.05V761.92h54.66c30.66,0,48.24-13.89,48.24-38.11,0-23.16-15.93-35.92-44.87-35.92m-4.55,53.83h-27.3V708.09h27.3c16.61,0,24.35,5.63,24.35,16.82,0,11.43-8.19,16.81-24.35,16.81"/><polygon class="cls-1" points="1158.16 501.47 1185.57 481.27 1093.84 481.27 1093.84 602.6 1185.57 602.6 1185.57 582.4 1120.01 582.4 1120.01 551.34 1175.93 551.34 1175.93 531.13 1120.01 531.13 1120.01 501.47 1158.16 501.47"/><path class="cls-1" d="M1024.59,528.57H992.74v-27.1h50.85l27.41-20.2H966.56V602.6h54.66c30.66,0,48.24-13.89,48.24-38.11,0-23.17-15.93-35.92-44.87-35.92M1020,582.4h-27.3V548.77H1020c16.61,0,24.35,5.62,24.35,16.81,0,11.43-8.19,16.82-24.35,16.82"/><path class="cls-1" d="M1259.89,481.27h-50V602.6h26.18V568.23h23.77c31.87,0,51.67-16.76,51.67-43.54s-19.8-43.42-51.67-43.42m-.56,66.76h-23.21V501.47h23.21c16.77,0,26,8.27,26,23.28s-9.24,23.28-26,23.28"/><path class="cls-1" d="M921.62,576.33A46.89,46.89,0,0,1,899,582c-23.6,0-40.73-16.85-40.73-40.06s17.13-40,40.73-40a39.94,39.94,0,0,1,23.81,7.45l18.78-13.84-1.24-1.09c-11-9.63-25.61-14.72-42.36-14.72-18.17,0-34.66,6.12-46.43,17.25s-18.36,26.94-18.36,44.33,6.5,33.46,18.29,45,28.29,17.94,46.33,17.94c18.87,0,35.35-6.58,46.52-18.55l-16.94-12.49Z"/><path class="cls-1" d="M770.94,541.35a100.71,100.71,0,0,0-1.6-17.92l-21.53,15.86c0,.69,0,1.37,0,2.06a77,77,0,1,1-33.55-63.49l19.45-14.33a100,100,0,1,0,37.2,77.82Z"/><path class="cls-1" d="M750.07,480.2a100.05,100.05,0,0,1,12,19.88l-91.12,67.16-38.07-23.87V514.66l38.07,23.87Z"/></svg>