<svg width="24" height="24" viewBox="0 0 24 24" fill="none" xmlns="http://www.w3.org/2000/svg">
<g clip-path="url(#clip0_585_12876)">
<path d="M15.8393 16.8198L16.9368 15.0389L18.9173 14.3634L19.1367 12.2833L20.6269 10.8163L19.9184 8.84728L20.6269 6.8782L19.1368 5.41125L18.9174 3.33113L16.9368 2.65566L15.8393 0.874734L13.7635 1.12538L12.0001 0L10.2367 1.12547L8.16087 0.874828L7.06339 2.6557L5.08282 3.33117L4.8634 5.4113L3.37329 6.87825L4.08176 8.84733L3.37329 10.8164L4.86335 12.2833L5.08278 14.3635L7.06334 15.039L8.16082 16.8198L10.2367 16.5692L12.0001 17.6947L13.7635 16.5692L15.8393 16.8198ZM5.93309 8.84733C5.93309 5.502 8.65474 2.78034 12.0001 2.78034C15.3454 2.78034 18.0671 5.502 18.0671 8.84733C18.0671 12.1927 15.3454 14.9143 12.0001 14.9143C8.65474 14.9143 5.93309 12.1927 5.93309 8.84733Z" fill="white"/>
<path d="M11.9999 4.1875C9.43045 4.1875 7.34006 6.27789 7.34006 8.84734C7.34006 11.4168 9.43045 13.5072 11.9999 13.5072C14.5694 13.5072 16.6597 11.4168 16.6597 8.84734C16.6597 6.27789 14.5694 4.1875 11.9999 4.1875Z" fill="white"/>
<path d="M9.90464 18.0265L7.43527 18.3246L6.1306 16.2074L5.68707 16.0562L3.77396 22.0358L7.2181 21.8464L9.91271 23.9999L11.4984 19.0436L9.90464 18.0265Z" fill="white"/>
<path d="M17.8695 16.2074L16.5648 18.3246L14.0954 18.0265L12.5017 19.0436L14.0874 23.9999L16.782 21.8464L20.2261 22.0358L18.313 16.0562L17.8695 16.2074Z" fill="white"/>
</g>
<defs>
<clipPath id="clip0_585_12876">
<rect width="24" height="24" fill="white"/>
</clipPath>
</defs>
</svg>
