<svg width="24" height="24" viewBox="0 0 24 24" fill="none" xmlns="http://www.w3.org/2000/svg">
<path d="M0.539974 21.3533H23.4576C23.7558 21.3533 23.9975 21.1116 23.9975 20.8134V20.3273C23.9979 20.3192 24 20.3117 24 20.3035C24 20.2153 23.9788 20.1321 23.9414 20.0587L21.5979 14.1595V3.18646C21.5979 2.88821 21.3562 2.64648 21.0579 2.64648H2.93972C2.64147 2.64648 2.39974 2.88821 2.39974 3.18646V14.1595L0.0380743 20.1042C0.0274981 20.1307 0.0200948 20.1579 0.0138666 20.1852C0.0123389 20.1922 0.0111638 20.1991 0.00987113 20.2062C0.00399546 20.2377 0.00035254 20.2695 0.000235027 20.3013C0.000235027 20.3021 0 20.3028 0 20.3035V20.8134C0 21.1116 0.241725 21.3533 0.539974 21.3533ZM9.67641 19.6107L10.1704 18.083H13.8271L14.3211 19.6107H9.67641ZM3.98723 4.02409H20.0104V13.4252H3.98723V4.02409Z" fill="white"/>
</svg>
