<svg width="15" height="27" viewBox="0 0 15 27" fill="none" xmlns="http://www.w3.org/2000/svg">
<path d="M10.5201 26.3449L0.52005 15.3449C0.185568 14.9768 0.000244141 14.4973 0.000244141 13.9999C0.000244141 13.5026 0.185568 13.023 0.52005 12.6549L10.5201 1.65492C10.6957 1.45694 10.9089 1.29579 11.1472 1.1808C11.3856 1.06581 11.6445 0.999284 11.9087 0.985066C12.173 0.970848 12.4375 1.00923 12.6868 1.09797C12.9362 1.18672 13.1654 1.32407 13.3613 1.50207C13.5571 1.68007 13.7157 1.89517 13.8278 2.13491C13.94 2.37465 14.0034 2.63426 14.0144 2.89869C14.0255 3.16312 13.9839 3.42711 13.8922 3.67537C13.8005 3.92363 13.6604 4.15121 13.48 4.34492L4.70005 13.9999L13.477 23.6549C13.8263 24.0486 14.0063 24.5641 13.978 25.0896C13.9498 25.6151 13.7155 26.1083 13.326 26.4623C12.9365 26.8162 12.4233 27.0024 11.8974 26.9804C11.3716 26.9585 10.8756 26.7301 10.517 26.3449H10.5201Z" fill="#1454F2"/>
</svg>
