<svg width="15" height="27" viewBox="0 0 15 27" fill="none" xmlns="http://www.w3.org/2000/svg">
<path d="M4.47995 26.3449L14.4799 15.3449C14.8144 14.9768 14.9998 14.4973 14.9998 13.9999C14.9998 13.5026 14.8144 13.023 14.4799 12.6549L4.47995 1.65492C4.30431 1.45694 4.09113 1.29579 3.85275 1.1808C3.61437 1.06581 3.35554 0.999284 3.09126 0.985066C2.82699 0.970848 2.56251 1.00923 2.31317 1.09797C2.06384 1.18672 1.83459 1.32407 1.63873 1.50207C1.44286 1.68007 1.28428 1.89517 1.17216 2.13491C1.06004 2.37465 0.996615 2.63426 0.985567 2.89869C0.974519 3.16312 1.01606 3.42711 1.10779 3.67537C1.19952 3.92363 1.33962 4.15121 1.51995 4.34492L10.3 13.9999L1.52295 23.6549C1.1737 24.0486 0.993693 24.5641 1.02197 25.0896C1.05024 25.6151 1.28451 26.1083 1.67398 26.4623C2.06346 26.8162 2.57675 27.0024 3.10257 26.9804C3.62839 26.9585 4.12436 26.7301 4.48295 26.3449H4.47995Z" fill="#1454F2"/>
</svg>
