<svg width="24" height="24" viewBox="0 0 24 24" fill="none" xmlns="http://www.w3.org/2000/svg">
<g clip-path="url(#clip0_48_2)">
<path d="M10 3H8C8 2.73478 7.89464 2.48043 7.70711 2.29289C7.51957 2.10536 7.26522 2 7 2C6.73478 2 6.48043 2.10536 6.29289 2.29289C6.10536 2.48043 6 2.73478 6 3H4C4 2.20435 4.31607 1.44129 4.87868 0.87868C5.44129 0.31607 6.20435 0 7 0C7.79565 0 8.55871 0.31607 9.12132 0.87868C9.68393 1.44129 10 2.20435 10 3Z" fill="#2A2A2A"/>
<path d="M20 3H18C18 2.73478 17.8946 2.48043 17.7071 2.29289C17.5196 2.10536 17.2652 2 17 2C16.7348 2 16.4804 2.10536 16.2929 2.29289C16.1054 2.48043 16 2.73478 16 3H14C14 2.20435 14.3161 1.44129 14.8787 0.87868C15.4413 0.31607 16.2044 0 17 0C17.7956 0 18.5587 0.31607 19.1213 0.87868C19.6839 1.44129 20 2.20435 20 3Z" fill="#2A2A2A"/>
<path d="M0 12V21.21C0.0302183 21.977 0.362653 22.7008 0.924724 23.2236C1.4868 23.7463 2.23285 24.0254 3 24H21C21.7672 24.0254 22.5132 23.7463 23.0753 23.2236C23.6373 22.7008 23.9698 21.977 24 21.21V12H0ZM6 21C5.80222 21 5.60888 20.9414 5.44443 20.8315C5.27998 20.7216 5.15181 20.5654 5.07612 20.3827C5.00043 20.2 4.98063 19.9989 5.01921 19.8049C5.0578 19.6109 5.15304 19.4327 5.29289 19.2929C5.43275 19.153 5.61093 19.0578 5.80491 19.0192C5.99889 18.9806 6.19996 19.0004 6.38268 19.0761C6.56541 19.1518 6.72159 19.28 6.83147 19.4444C6.94135 19.6089 7 19.8022 7 20C7 20.2652 6.89464 20.5196 6.70711 20.7071C6.51957 20.8946 6.26522 21 6 21ZM6 17C5.80222 17 5.60888 16.9414 5.44443 16.8315C5.27998 16.7216 5.15181 16.5654 5.07612 16.3827C5.00043 16.2 4.98063 15.9989 5.01921 15.8049C5.0578 15.6109 5.15304 15.4327 5.29289 15.2929C5.43275 15.153 5.61093 15.0578 5.80491 15.0192C5.99889 14.9806 6.19996 15.0004 6.38268 15.0761C6.56541 15.1518 6.72159 15.28 6.83147 15.4444C6.94135 15.6089 7 15.8022 7 16C7 16.2652 6.89464 16.5196 6.70711 16.7071C6.51957 16.8946 6.26522 17 6 17ZM12 21C11.8022 21 11.6089 20.9414 11.4444 20.8315C11.28 20.7216 11.1518 20.5654 11.0761 20.3827C11.0004 20.2 10.9806 19.9989 11.0192 19.8049C11.0578 19.6109 11.153 19.4327 11.2929 19.2929C11.4327 19.153 11.6109 19.0578 11.8049 19.0192C11.9989 18.9806 12.2 19.0004 12.3827 19.0761C12.5654 19.1518 12.7216 19.28 12.8315 19.4444C12.9414 19.6089 13 19.8022 13 20C13 20.2652 12.8946 20.5196 12.7071 20.7071C12.5196 20.8946 12.2652 21 12 21ZM12 17C11.8022 17 11.6089 16.9414 11.4444 16.8315C11.28 16.7216 11.1518 16.5654 11.0761 16.3827C11.0004 16.2 10.9806 15.9989 11.0192 15.8049C11.0578 15.6109 11.153 15.4327 11.2929 15.2929C11.4327 15.153 11.6109 15.0578 11.8049 15.0192C11.9989 14.9806 12.2 15.0004 12.3827 15.0761C12.5654 15.1518 12.7216 15.28 12.8315 15.4444C12.9414 15.6089 13 15.8022 13 16C13 16.2652 12.8946 16.5196 12.7071 16.7071C12.5196 16.8946 12.2652 17 12 17ZM18 21C17.8022 21 17.6089 20.9414 17.4444 20.8315C17.28 20.7216 17.1518 20.5654 17.0761 20.3827C17.0004 20.2 16.9806 19.9989 17.0192 19.8049C17.0578 19.6109 17.153 19.4327 17.2929 19.2929C17.4327 19.153 17.6109 19.0578 17.8049 19.0192C17.9989 18.9806 18.2 19.0004 18.3827 19.0761C18.5654 19.1518 18.7216 19.28 18.8315 19.4444C18.9414 19.6089 19 19.8022 19 20C19 20.2652 18.8946 20.5196 18.7071 20.7071C18.5196 20.8946 18.2652 21 18 21ZM18 17C17.8022 17 17.6089 16.9414 17.4444 16.8315C17.28 16.7216 17.1518 16.5654 17.0761 16.3827C17.0004 16.2 16.9806 15.9989 17.0192 15.8049C17.0578 15.6109 17.153 15.4327 17.2929 15.2929C17.4327 15.153 17.6109 15.0578 17.8049 15.0192C17.9989 14.9806 18.2 15.0004 18.3827 15.0761C18.5654 15.1518 18.7216 15.28 18.8315 15.4444C18.9414 15.6089 19 15.8022 19 16C19 16.2652 18.8946 16.5196 18.7071 16.7071C18.5196 16.8946 18.2652 17 18 17Z" fill="#2A2A2A"/>
<path d="M24 7.78989V9.99989H0V7.78989C0.0302183 7.02291 0.362653 6.29904 0.924724 5.77631C1.4868 5.25358 2.23285 4.97446 3 4.99989H4C4.00237 5.79481 4.31921 6.55649 4.8813 7.11858C5.4434 7.68068 6.20508 7.99751 7 7.99989C7.26522 7.99989 7.51957 7.89453 7.70711 7.70699C7.89464 7.51946 8 7.2651 8 6.99989C8 6.73467 7.89464 6.48032 7.70711 6.29278C7.51957 6.10524 7.26522 5.99989 7 5.99989C6.73478 5.99989 6.48043 5.89453 6.29289 5.70699C6.10536 5.51946 6 5.2651 6 4.99989H14C14.0024 5.79481 14.3192 6.55649 14.8813 7.11858C15.4434 7.68068 16.2051 7.99751 17 7.99989C17.2652 7.99989 17.5196 7.89453 17.7071 7.70699C17.8946 7.51946 18 7.2651 18 6.99989C18 6.73467 17.8946 6.48032 17.7071 6.29278C17.5196 6.10524 17.2652 5.99989 17 5.99989C16.7348 5.99989 16.4804 5.89453 16.2929 5.70699C16.1054 5.51946 16 5.2651 16 4.99989H21C21.7672 4.97446 22.5132 5.25358 23.0753 5.77631C23.6373 6.29904 23.9698 7.02291 24 7.78989Z" fill="#2A2A2A"/>
</g>
<defs>
<clipPath id="clip0_48_2">
<rect width="24" height="24" fill="white"/>
</clipPath>
</defs>
</svg>
