<svg width="206" height="171" viewBox="0 0 206 171" fill="none" xmlns="http://www.w3.org/2000/svg">
<path d="M189.186 102.555V10.8211C189.186 8.93973 187.579 8.7239 185.621 8.64764L23.2547 0.927343C20.7841 0.830938 18.7561 2.48781 18.7561 4.61015V105.991L189.186 102.555Z" fill="#97A6B7"/>
<path d="M18.7561 105.99V126.237C18.7561 128.359 20.7841 130.012 23.2547 129.911L184.896 121.896C186.854 121.816 189.186 121.563 189.186 119.682V101.967L18.7561 105.99Z" fill="#97A6B7"/>
<path d="M131.735 143.552C128.809 142.61 126.622 140.199 126.006 137.237L121.746 116.779L85.3152 118.034L80.8314 139.347C80.2036 142.332 82.7172 145.326 85.6124 146.425L100.855 152.214C103.69 153.29 106.737 153.719 109.766 153.468L141.978 150.793C142.919 150.715 143.675 149.997 143.784 149.075C143.894 148.154 144.554 147.118 143.656 146.83L131.735 143.552Z" fill="#97A6B7"/>
<path d="M132.096 142.308C129.172 141.378 126.988 138.998 126.372 136.073L122.117 115.872L86.574 117.113L82.0955 138.158C81.4684 141.105 83.128 144.061 86.0196 145.146L101.246 150.862C104.078 151.925 107.123 152.348 110.148 152.1L142.328 149.459C143.269 149.382 144.023 148.672 144.133 147.762C144.243 146.852 143.676 145.993 142.779 145.707L132.096 142.308Z" fill="url(#paint0_linear_1334_94)"/>
<path d="M190.372 10.8206V102.556L89.8403 104.58L19.7561 105.991V4.60821C19.7561 2.48802 21.8264 0.829714 24.2984 0.926119L38.0158 1.46066L186.757 7.26294C188.715 7.33848 190.372 8.93995 190.372 10.8206Z" fill="url(#paint1_linear_1334_94)"/>
<path d="M24.8655 18.7185V97.9108C24.8655 99.8871 26.7482 101.453 29.0424 101.389L183.148 97.1352C184.987 97.0841 186.488 95.6006 186.488 93.8373V23.2071L24.8655 18.7185Z" fill="url(#paint2_linear_1334_94)"/>
<path d="M186.488 23.2078V15.1018C186.488 13.3752 185.018 11.909 183.217 11.8435L28.9571 6.25776C26.7097 6.17646 24.8655 7.69376 24.8655 9.62977V18.7177L186.488 23.2078Z" fill="url(#paint3_linear_1334_94)"/>
<path d="M36.1419 12.5528C36.1419 13.2334 35.503 13.765 34.7136 13.7413C33.9234 13.7168 33.2815 13.1441 33.2815 12.4621C33.2815 11.7801 33.9234 11.2477 34.7136 11.2736C35.503 11.2995 36.1419 11.8722 36.1419 12.5528Z" fill="white"/>
<path d="M42.2985 12.7492C42.2985 13.4255 41.667 13.955 40.8872 13.9305C40.1059 13.9068 39.4714 13.337 39.4714 12.6586C39.4714 11.9801 40.1059 11.4513 40.8872 11.4772C41.667 11.5031 42.2985 12.0722 42.2985 12.7492Z" fill="white"/>
<path d="M48.3833 12.9427C48.3833 13.6154 47.7592 14.1413 46.9883 14.1176C46.2159 14.0938 45.5896 13.5276 45.5896 12.8535C45.5896 12.1794 46.2167 11.6528 46.9883 11.6787C47.7592 11.7046 48.3833 12.27 48.3833 12.9427Z" fill="white"/>
<path d="M190.372 101.967V119.682C190.372 121.562 188.726 123.166 186.767 123.247L180.856 123.489L24.3103 129.909C21.8382 130.011 19.7561 128.358 19.7561 126.235V105.99L89.6306 104.342L190.372 101.967Z" fill="url(#paint4_linear_1334_94)"/>
<path opacity="0.1" d="M180.83 123.489L24.2977 129.909C21.8257 130.011 19.7554 128.357 19.7554 126.235V4.60821C19.7554 2.48802 21.8257 0.829714 24.2977 0.926119L38.0151 1.46066C40.1187 2.82975 42.0029 4.51971 43.5077 6.52767C43.5751 6.61616 43.6448 6.70465 43.7071 6.79387C44.876 8.40541 45.7091 10.0875 46.2918 11.8191C46.5497 12.5753 46.758 13.3393 46.927 14.1142C47.3058 15.8271 47.4918 17.5775 47.5697 19.3509C47.7364 23.0985 47.4333 26.9453 47.4488 30.7339C47.4814 38.4139 47.9759 46.0889 53.2261 52.2717C57.1139 56.851 63.447 58.5906 68.7024 61.2532C74.8362 64.3619 80.2183 68.485 83.3352 74.6082C87.1615 82.1241 83.5687 90.2862 86.0141 98.0503C86.2023 98.6504 86.4254 99.2345 86.6804 99.8C87.4194 101.451 88.4238 102.963 89.6254 104.343C89.6928 104.423 89.7625 104.502 89.8352 104.58C94.5131 109.798 102.001 113.058 108.493 114.636C121.814 117.869 135.63 112.265 148.855 111.824C158.383 111.508 171.559 113.595 178.566 120.55C179.412 121.39 180.172 122.389 180.83 123.489Z" fill="white"/>
<path d="M7.20557 127.408L51.8593 125.524L103.308 127.273L52.5523 138.041L7.20557 127.408Z" fill="url(#paint5_linear_1334_94)"/>
<path d="M43.1836 169.172L7.01329 159.724C3.37083 158.772 0.540039 155.269 0.540039 151.872V151.834C0.540039 148.437 3.37009 146.158 7.01329 146.782L45.8075 152.944L43.1836 169.172Z" fill="url(#paint6_linear_1334_94)"/>
<path d="M103.369 162.076L44.9258 168.411C41.2655 168.807 38.2561 166.33 38.2561 162.871V160.525C38.2561 157.067 41.2655 154.03 44.9258 153.747L103.369 149.232C100.783 153.905 100.186 158.277 103.369 162.076Z" fill="url(#paint7_linear_1334_94)"/>
<path d="M103.878 162.705L45.4152 169.139C40.6408 169.664 36.6841 166.419 36.6841 161.894V161.844C36.6841 157.319 40.6408 153.339 45.4152 152.977L103.878 148.552C104.23 148.525 104.514 148.809 104.514 149.187C104.514 149.564 104.23 149.893 103.878 149.92L45.4152 154.539C41.574 154.843 38.4023 158.05 38.4023 161.684V161.734C38.4023 165.368 41.574 167.987 45.4152 167.576L103.878 161.337C104.23 161.299 104.514 161.575 104.514 161.952C104.514 162.33 104.23 162.667 103.878 162.705Z" fill="url(#paint8_linear_1334_94)"/>
<path d="M44.7031 152.981L7.01329 146.781C3.37084 146.157 0.540039 141.523 0.540039 136.422V136.366C0.540039 131.265 3.37009 127.217 7.01329 127.348L46.995 128.79L44.7031 152.981Z" fill="url(#paint9_linear_1334_94)"/>
<path d="M103.369 147.561L48.2008 151.6C42.7601 151.999 38.2556 148.118 38.2556 142.925V139.402C38.2556 134.209 42.7601 129.88 48.2008 129.736L103.369 128.276C100.775 135.278 100.195 141.835 103.369 147.561Z" fill="url(#paint10_linear_1334_94)"/>
<path d="M103.878 148.551L45.4152 152.977C40.6408 153.338 36.6841 148.11 36.6841 141.316V141.241C36.6841 134.447 40.6408 128.824 45.4152 128.709L103.878 127.299C104.23 127.291 104.514 127.743 104.514 128.309C104.514 128.875 104.23 129.343 103.878 129.353L45.4152 131.055C41.574 131.166 38.4023 135.698 38.4023 141.155V141.229C38.4023 146.686 41.574 150.901 45.4152 150.629L103.878 146.495C104.23 146.47 104.514 146.91 104.514 147.476C104.514 148.044 104.23 148.525 103.878 148.551Z" fill="url(#paint11_linear_1334_94)"/>
<path opacity="0.5" d="M33.015 147.869L24.9585 146.503C23.0772 141.52 23.2188 136.941 24.9585 131.47L33.015 132.026C31.3635 137.783 31.6141 142.999 33.015 147.869Z" fill="white"/>
<path d="M204.96 157.8L116.951 163.905L117.405 170.074L205.415 163.97C206.205 161.848 206.054 159.792 204.96 157.8Z" fill="url(#paint12_linear_1334_94)"/>
<path d="M205.877 162.03C205.956 161.247 205.902 160.474 205.715 159.709L117.095 165.855L117.265 168.175L205.877 162.03Z" fill="url(#paint13_linear_1334_94)"/>
<path d="M116.951 163.905C118.325 165.853 118.49 167.908 117.405 170.074L97.2701 168.572C97.0381 168.546 97.0152 168.228 97.2405 168.17L116.951 163.905Z" fill="url(#paint14_linear_1334_94)"/>
<path d="M97.2701 168.572L105.097 169.156C105.259 168.254 105.195 167.373 104.906 166.512L97.2405 168.171C97.0152 168.228 97.0381 168.546 97.2701 168.572Z" fill="url(#paint15_linear_1334_94)"/>
<path d="M160.206 6.22754V6.13401C160.206 4.78002 161.317 3.69007 162.67 3.71525L163.595 3.66992L168.022 5.33255V6.67215L160.206 6.22754Z" fill="url(#paint16_linear_1334_94)"/>
<path d="M184.029 34.7347L174.173 27.3791L164.215 34.2864V11.0752C164.215 9.26508 163.349 7.52547 161.867 6.35926L161.791 6.29883L180.583 6.9938C182.488 7.0643 184.029 8.62333 184.029 10.4766V34.7347Z" fill="#D8DEE8"/>
<path d="M185.832 33.7679L175.976 25.9821L166.018 33.293V8.72492C166.018 6.80905 165.152 4.96801 163.671 3.73273L163.594 3.6687L182.386 4.40397C184.291 4.47879 185.832 6.12919 185.832 8.09038V33.7679Z" fill="url(#paint17_linear_1334_94)"/>
<path d="M135.022 49.4839V76.5456C135.022 79.4557 133.157 82.15 129.984 84.3508C129.224 84.8774 128.388 85.3781 127.482 85.8451C122.544 88.4005 115.588 89.9912 107.885 89.9912C100.182 89.9912 93.2253 88.4005 88.2872 85.8451C83.6144 83.4299 80.748 80.155 80.748 76.5456V49.4839H135.022Z" fill="url(#paint18_linear_1334_94)"/>
<path opacity="0.3" d="M129.984 84.3508C129.224 84.8774 128.388 85.3782 127.482 85.8451C122.544 88.4005 115.588 89.9912 107.885 89.9912C100.182 89.9912 93.2253 88.4005 88.2872 85.8451C83.6144 83.4299 80.748 80.155 80.748 76.5456V62.5676C84.5232 64.2 89.9535 67.3972 90.9527 72.5635C92.5167 80.6478 103.962 83.386 115.344 81.5608C120.357 80.7543 125.605 82.0191 129.984 84.3508Z" fill="url(#paint19_linear_1334_94)"/>
<path d="M149.225 52.092L108.517 32.5793L67.809 52.092H66.2375V52.7502L108.556 73.0456L150.874 52.7502V52.092H149.225Z" fill="url(#paint20_linear_1334_94)"/>
<path d="M108.518 31.6729L66.1777 51.9682L108.518 72.2628L150.858 51.9682L108.518 31.6729Z" fill="url(#paint21_linear_1334_94)"/>
<path d="M150.606 80.145C150.296 80.145 150.069 79.9004 150.069 79.599V52.9963C150.069 52.3948 149.619 51.8315 148.999 51.8315H108.518C108.208 51.8315 107.956 51.6114 107.956 51.3099C107.956 51.0085 108.208 50.7883 108.518 50.7883H148.999C150.24 50.7883 151.144 51.7927 151.144 52.9963V79.599C151.144 79.9004 150.917 80.145 150.606 80.145Z" fill="url(#paint22_linear_1334_94)"/>
<path d="M152.031 75.3105L151.552 74.4845C151.369 74.1709 151.027 73.9802 150.655 73.986C150.284 73.9917 149.948 74.1939 149.775 74.5126L149.372 75.3723C149.26 75.5802 149.263 75.8112 149.263 76.0457V83.2825C149.263 83.4379 149.888 83.5638 150.741 83.5638C151.595 83.5638 152.219 83.4379 152.219 83.2825V76.0248C152.219 75.7745 152.159 75.5284 152.031 75.3105Z" fill="url(#paint23_linear_1334_94)"/>
<defs>
<linearGradient id="paint0_linear_1334_94" x1="112.521" y1="124.056" x2="113.042" y2="144.213" gradientUnits="userSpaceOnUse">
<stop stop-color="#444B8C"/>
<stop offset="0.9964" stop-color="#26264F"/>
</linearGradient>
<linearGradient id="paint1_linear_1334_94" x1="79.0669" y1="45.0361" x2="187.769" y2="99.5284" gradientUnits="userSpaceOnUse">
<stop stop-color="#444B8C"/>
<stop offset="0.6447" stop-color="#313365"/>
<stop offset="0.9964" stop-color="#26264F"/>
</linearGradient>
<linearGradient id="paint2_linear_1334_94" x1="24.8657" y1="60.055" x2="186.489" y2="60.055" gradientUnits="userSpaceOnUse">
<stop stop-color="white"/>
<stop offset="0.9964" stop-color="#EBEFF2"/>
</linearGradient>
<linearGradient id="paint3_linear_1334_94" x1="71.8544" y1="-101.691" x2="122.409" y2="86.1473" gradientUnits="userSpaceOnUse">
<stop stop-color="#AA80F9"/>
<stop offset="0.9964" stop-color="#6165D7"/>
</linearGradient>
<linearGradient id="paint4_linear_1334_94" x1="55.5749" y1="91.8126" x2="164.296" y2="146.314" gradientUnits="userSpaceOnUse">
<stop stop-color="#444B8C"/>
<stop offset="0.9964" stop-color="#26264F"/>
</linearGradient>
<linearGradient id="paint5_linear_1334_94" x1="7.20552" y1="131.782" x2="103.308" y2="131.782" gradientUnits="userSpaceOnUse">
<stop stop-color="#FFC444"/>
<stop offset="0.9964" stop-color="#F36F56"/>
</linearGradient>
<linearGradient id="paint6_linear_1334_94" x1="17.8463" y1="168.763" x2="25.2962" y2="151.304" gradientUnits="userSpaceOnUse">
<stop stop-color="#AA80F9"/>
<stop offset="0.9964" stop-color="#6165D7"/>
</linearGradient>
<linearGradient id="paint7_linear_1334_94" x1="39.2423" y1="151.549" x2="129.784" y2="172.065" gradientUnits="userSpaceOnUse">
<stop stop-color="#F4F7FA"/>
<stop offset="0.9964" stop-color="#D8DEE8"/>
</linearGradient>
<linearGradient id="paint8_linear_1334_94" x1="36.6845" y1="158.872" x2="104.514" y2="158.872" gradientUnits="userSpaceOnUse">
<stop stop-color="#AA80F9"/>
<stop offset="0.9964" stop-color="#6165D7"/>
</linearGradient>
<linearGradient id="paint9_linear_1334_94" x1="29.2188" y1="122.13" x2="16.2197" y2="167.244" gradientUnits="userSpaceOnUse">
<stop stop-color="#FFC444"/>
<stop offset="0.9964" stop-color="#F36F56"/>
</linearGradient>
<linearGradient id="paint10_linear_1334_94" x1="43.3928" y1="133.233" x2="133.935" y2="153.75" gradientUnits="userSpaceOnUse">
<stop stop-color="#F4F7FA"/>
<stop offset="0.9964" stop-color="#D8DEE8"/>
</linearGradient>
<linearGradient id="paint11_linear_1334_94" x1="36.6845" y1="140.147" x2="104.514" y2="140.147" gradientUnits="userSpaceOnUse">
<stop stop-color="#FFC444"/>
<stop offset="0.9964" stop-color="#F36F56"/>
</linearGradient>
<linearGradient id="paint12_linear_1334_94" x1="156.928" y1="161.137" x2="177.512" y2="175.517" gradientUnits="userSpaceOnUse">
<stop stop-color="#AB316D"/>
<stop offset="1" stop-color="#792D3D"/>
</linearGradient>
<linearGradient id="paint13_linear_1334_94" x1="159.591" y1="155.486" x2="161.739" y2="165.637" gradientUnits="userSpaceOnUse">
<stop stop-color="#AB316D"/>
<stop offset="1" stop-color="#792D3D"/>
</linearGradient>
<linearGradient id="paint14_linear_1334_94" x1="96.9655" y1="166.429" x2="149.212" y2="167.967" gradientUnits="userSpaceOnUse">
<stop stop-color="#FFC444"/>
<stop offset="0.9964" stop-color="#F36F56"/>
</linearGradient>
<linearGradient id="paint15_linear_1334_94" x1="92.5544" y1="168.415" x2="111.271" y2="167.487" gradientUnits="userSpaceOnUse">
<stop stop-color="#AB316D"/>
<stop offset="1" stop-color="#792D3D"/>
</linearGradient>
<linearGradient id="paint16_linear_1334_94" x1="160.206" y1="5.17047" x2="168.022" y2="5.17047" gradientUnits="userSpaceOnUse">
<stop stop-color="#AB316D"/>
<stop offset="1" stop-color="#792D3D"/>
</linearGradient>
<linearGradient id="paint17_linear_1334_94" x1="187.821" y1="-3.82985" x2="159.909" y2="47.1385" gradientUnits="userSpaceOnUse">
<stop stop-color="#FF9085"/>
<stop offset="1" stop-color="#FB6FBB"/>
</linearGradient>
<linearGradient id="paint18_linear_1334_94" x1="94.8959" y1="413.366" x2="107.602" y2="49.6331" gradientUnits="userSpaceOnUse">
<stop stop-color="#AA80F9"/>
<stop offset="0.9964" stop-color="#6165D7"/>
</linearGradient>
<linearGradient id="paint19_linear_1334_94" x1="104.756" y1="89.9161" x2="105.681" y2="63.4385" gradientUnits="userSpaceOnUse">
<stop stop-color="#AA80F9"/>
<stop offset="0.9964" stop-color="#6165D7"/>
</linearGradient>
<linearGradient id="paint20_linear_1334_94" x1="112.568" y1="23.3667" x2="107.264" y2="64.1349" gradientUnits="userSpaceOnUse">
<stop stop-color="#AA80F9"/>
<stop offset="0.9964" stop-color="#6165D7"/>
</linearGradient>
<linearGradient id="paint21_linear_1334_94" x1="111.772" y1="11.8362" x2="104.851" y2="102.447" gradientUnits="userSpaceOnUse">
<stop stop-color="#AA80F9"/>
<stop offset="0.9964" stop-color="#6165D7"/>
</linearGradient>
<linearGradient id="paint22_linear_1334_94" x1="153.964" y1="24.2485" x2="106.734" y2="108.885" gradientUnits="userSpaceOnUse">
<stop stop-color="#FFC444"/>
<stop offset="0.9964" stop-color="#F36F56"/>
</linearGradient>
<linearGradient id="paint23_linear_1334_94" x1="148.574" y1="99.2073" x2="151.619" y2="69.8798" gradientUnits="userSpaceOnUse">
<stop stop-color="#FFC444"/>
<stop offset="0.9964" stop-color="#F36F56"/>
</linearGradient>
</defs>
</svg>
