<svg width="16" height="8" viewBox="0 0 16 8" fill="none" xmlns="http://www.w3.org/2000/svg">
<path d="M15.3281 3.21805C15.328 3.21787 15.3278 3.21767 15.3276 3.21749L12.266 0.170623C12.0366 -0.0576288 11.6656 -0.0567794 11.4373 0.172615C11.209 0.40198 11.2099 0.772965 11.4393 1.00125L13.4949 3.04687L1.08594 3.04687C0.762324 3.04687 0.5 3.30919 0.5 3.6328C0.5 3.95642 0.762324 4.21874 1.08594 4.21874L13.4948 4.21874L11.4393 6.26436C11.2099 6.49264 11.2091 6.86363 11.4373 7.09299C11.6656 7.32242 12.0367 7.32321 12.266 7.09499L15.3276 4.04812C15.3278 4.04794 15.328 4.04774 15.3282 4.04756C15.5576 3.81852 15.5569 3.44633 15.3281 3.21805Z" fill="white"/>
</svg>
