<!-- icon666.com - MILLIONS vector ICONS FREE --><svg fill="none" viewBox="0 0 24 24" xmlns="http://www.w3.org/2000/svg"><g fill="rgb(0,0,0)"><path d="m9.33512 4.80232c.40911-.0648.68828-.44898.62344-.85809-.0648-.40912-.44898-.68824-.85809-.62344-2.46039.38968-4.39003 2.31933-4.77971 4.77971-.0648.40911.21432.79329.62344.85809.40911.0648.79329-.21433.85809-.62344.28803-1.81854 1.71429-3.2448 3.53283-3.53283z"></path><path clip-rule="evenodd" d="m11 .25c-5.38478 0-9.75 4.36522-9.75 9.75 0 5.3848 4.36522 9.75 9.75 9.75 5.3848 0 9.75-4.3652 9.75-9.75 0-5.38478-4.3652-9.75-9.75-9.75zm-8.25 9.75c0-4.55635 3.69365-8.25 8.25-8.25 4.5563 0 8.25 3.69365 8.25 8.25 0 4.5563-3.6937 8.25-8.25 8.25-4.55635 0-8.25-3.6937-8.25-8.25z" fill-rule="evenodd"></path><path d="m19.5304 17.4698c-.2929-.2929-.7678-.2929-1.0607 0-.2929.2928-.2929.7677 0 1.0606l3.9999 4c.2929.2929.7678.2929 1.0607 0s.2929-.7678 0-1.0607z"></path></g></svg>