<svg width="24" height="24" viewBox="0 0 24 24" fill="none" xmlns="http://www.w3.org/2000/svg">
<path d="M11.0461 4C7.16099 4 4 7.16099 4 11.0461C4 14.9315 7.16099 18.0922 11.0461 18.0922C14.9315 18.0922 18.0922 14.9315 18.0922 11.0461C18.0922 7.16099 14.9315 4 11.0461 4ZM11.0461 16.7914C7.87819 16.7914 5.30082 14.2141 5.30082 11.0461C5.30082 7.87822 7.87819 5.30082 11.0461 5.30082C14.214 5.30082 16.7914 7.87819 16.7914 11.0461C16.7914 14.214 14.214 16.7914 11.0461 16.7914Z" fill="black"/>
<path d="M19.81 18.8893L16.081 15.1603C15.8269 14.9062 15.4154 14.9062 15.1613 15.1603C14.9072 15.4142 14.9072 15.8261 15.1613 16.08L18.8903 19.809C19.0173 19.9361 19.1836 19.9996 19.3501 19.9996C19.5164 19.9996 19.6829 19.9361 19.81 19.809C20.0641 19.5552 20.0641 19.1432 19.81 18.8893Z" fill="black"/>
</svg>
