<svg width="21" height="20" viewBox="0 0 21 20" fill="none" xmlns="http://www.w3.org/2000/svg">
<path d="M18.5983 20H13.453V13.1167H16.9744V9.63335H13.453V7.93336V7.60001V7.56669C13.4701 7.21669 13.7778 6.91667 14.1538 6.91667H14.2223H15.5043H17.3504V3.43333H14.2223V3.45002H14.1197C11.7778 3.45002 9.88031 5.30002 9.88031 7.56669V8.58334V9.63335H7.05984V13.1167H9.88031V20H1.93163C0.854712 20 0 19.1667 0 18.1333V1.86666C0 0.833328 0.854712 0 1.93163 0H18.5983C19.6581 0 20.5128 0.833328 20.5128 1.86666V18.1333C20.5128 19.1667 19.6581 20 18.5983 20Z" fill="#FBF2E7"/>
</svg>
