<svg width="21" height="20" viewBox="0 0 21 20" fill="none" xmlns="http://www.w3.org/2000/svg">
<path d="M14.8546 0H5.65823C2.53002 0 0 2.46666 0 5.51667V14.4667C0 17.5167 2.53002 20 5.65823 20H14.8546C17.9657 20 20.5129 17.5167 20.5129 14.4667V5.51667C20.5129 2.46666 17.9657 0 14.8546 0ZM18.1881 14.2167C18.1881 16.1501 16.5642 17.7333 14.5813 17.7333H5.93159C3.93158 17.7333 2.32477 16.1501 2.32477 14.2167V5.78336C2.32477 3.83335 3.93158 2.25001 5.93159 2.25001H14.5813C16.5642 2.25001 18.1881 3.83335 18.1881 5.78336V14.2167ZM10.2564 5.35C7.62395 5.35 5.48712 7.43334 5.48712 10C5.48712 12.55 7.62395 14.6334 10.2564 14.6334C12.8889 14.6334 15.0257 12.55 15.0257 10C15.0257 7.43334 12.8889 5.35 10.2564 5.35ZM10.2564 12.7334C8.70087 12.7334 7.45299 11.5 7.45299 10C7.45299 8.48334 8.70087 7.25003 10.2564 7.25003C11.812 7.25003 13.0599 8.48334 13.0599 10C13.0599 11.5 11.812 12.7334 10.2564 12.7334ZM15.5213 3.5667C15.1624 3.5667 14.6154 3.7167 14.3419 3.98337C14.0684 4.25004 13.9146 4.61665 13.9146 4.98332C13.9146 5.36665 14.0684 5.73336 14.3419 6.00002C14.6154 6.26669 14.9915 6.41669 15.3846 6.41669C15.7778 6.41669 16.1539 6.26669 16.4274 6.00002C16.7009 5.73336 16.8547 5.36665 16.8547 4.98332C16.8547 4.61665 16.7009 4.25004 16.4274 3.98337C16.1539 3.7167 15.8632 3.5667 15.5213 3.5667Z" fill="#FFD0D9"/>
</svg>
