<svg width="35" height="20" viewBox="0 0 35 20" fill="none" xmlns="http://www.w3.org/2000/svg">
<path d="M31.1388 14.0196C31.1388 14.0196 33.9672 16.813 34.6668 18.1057C34.6805 18.1242 34.691 18.1448 34.6983 18.1669C34.9834 18.6444 35.0534 19.0187 34.9135 19.2951C34.6773 19.7516 33.878 19.9808 33.6068 20H28.6077C28.2597 20 27.5355 19.909 26.6539 19.3003C25.9805 18.8298 25.3106 18.0549 24.6616 17.2975C23.6926 16.1728 22.8547 15.1968 22.0064 15.1968C21.8992 15.1964 21.7928 15.2143 21.6915 15.2493C21.0496 15.4522 20.2345 16.367 20.2345 18.8036C20.2345 19.5662 19.6328 20 19.2112 20H16.9216C16.1414 20 12.0799 19.7271 8.47835 15.9297C4.06521 11.2804 0.101609 1.95382 0.0631274 1.8716C-0.183505 1.26814 0.334248 0.939301 0.89398 0.939301H5.94206C6.61899 0.939301 6.83938 1.3486 6.99331 1.71593C7.17173 2.13748 7.83291 3.82367 8.91739 5.71801C10.6735 8.80004 11.7528 10.0543 12.6151 10.0543C12.7771 10.0546 12.9364 10.0125 13.0769 9.93175C14.2034 9.31254 13.9935 5.28947 13.941 4.46037C13.941 4.29944 13.9392 2.66398 13.362 1.87335C12.9492 1.30662 12.246 1.08623 11.821 1.00577C11.9347 0.841348 12.1761 0.589468 12.4857 0.440789C13.2571 0.055973 14.6511 0 16.0347 0H16.8026C18.3034 0.02099 18.6917 0.117194 19.2375 0.255378C20.3359 0.517752 20.3569 1.22966 20.2607 3.654C20.2327 4.34667 20.203 5.1268 20.203 6.04511C20.203 6.24101 20.1943 6.45966 20.1943 6.6818C20.161 7.92546 20.1173 9.32654 20.9954 9.90201C21.1092 9.97296 21.2408 10.0105 21.3749 10.0105C21.6793 10.0105 22.5906 10.0105 25.0622 5.76874C26.1467 3.89539 26.9863 1.68619 27.044 1.52002C27.093 1.42732 27.2399 1.16669 27.4183 1.06174C27.5451 0.994207 27.6873 0.960483 27.8311 0.963789H33.7695C34.4167 0.963789 34.8557 1.06174 34.9415 1.30663C35.0849 1.70369 34.9135 2.91586 32.2023 6.5821C31.7457 7.19256 31.3452 7.72081 30.9936 8.18259C28.536 11.4081 28.536 11.5708 31.1388 14.0196Z" fill="#FBB028"/>
</svg>
