<svg width="18" height="20" viewBox="0 0 18 20" fill="none" xmlns="http://www.w3.org/2000/svg">
<path d="M8.9425 8.91137C9.7327 8.91137 10.3733 8.27078 10.3733 7.48059C10.3733 6.69039 9.7327 6.0498 8.9425 6.0498C8.1523 6.0498 7.51172 6.69039 7.51172 7.48059C7.51172 8.27078 8.1523 8.91137 8.9425 8.91137Z" fill="white"/>
<path d="M17.5379 7.67517L16.8118 7.00555V8.41701L17.6305 7.78032C17.602 7.74332 17.571 7.7082 17.5379 7.67517Z" fill="white"/>
<path d="M9.42592 0.188598C9.1531 -0.0628661 8.73297 -0.0628661 8.46015 0.188598L7.53516 1.04206H10.3495L9.42592 0.188598Z" fill="white"/>
<path d="M9.16072 14.3681L16.0964 8.97364V2.1152C16.0964 1.91766 15.9363 1.75751 15.7388 1.75751H2.14627C1.94873 1.75751 1.78857 1.91766 1.78857 2.1152V8.97368L8.72216 14.3663C8.84985 14.4697 9.03221 14.4704 9.16072 14.3681ZM4.65014 7.48063C4.65014 5.11004 6.57188 3.18826 8.94251 3.18826C11.3131 3.18826 13.2349 5.11004 13.2349 7.48063V8.19602C13.2373 8.84803 12.7971 9.41858 12.1658 9.58169C11.5346 9.74483 10.8731 9.45896 10.5593 8.88742C9.98819 9.54577 9.07565 9.79333 8.25009 9.51393C7.42456 9.23454 6.84996 8.48363 6.79604 7.61374C6.74212 6.74385 7.21965 5.92778 8.00441 5.5486C8.78913 5.16941 9.72526 5.30245 10.3733 5.88526V5.69212C10.3733 5.49458 10.5334 5.33443 10.731 5.33443C10.9285 5.33443 11.0887 5.49458 11.0887 5.69212V8.19599C11.0887 8.59107 11.409 8.91138 11.8041 8.91138C12.1992 8.91138 12.5195 8.59107 12.5195 8.19599V7.4806C12.5195 5.50509 10.918 3.90365 8.94251 3.90365C6.96701 3.90365 5.36556 5.50512 5.36556 7.4806C5.36556 9.45607 6.96701 11.0575 8.94251 11.0575C9.70811 11.0606 10.4541 10.8155 11.0687 10.359C11.2273 10.2412 11.4513 10.2744 11.5691 10.433C11.6868 10.5917 11.6537 10.8157 11.4951 10.9334C10.7573 11.4817 9.86175 11.7762 8.94254 11.773C6.57297 11.7704 4.6527 9.85017 4.65014 7.48063Z" fill="white"/>
<path d="M9.6023 14.9314C9.2148 15.2391 8.66633 15.2391 8.27883 14.9314L7.24688 14.1255L0.729248 19.8766C0.894328 19.957 1.07538 19.9992 1.25899 20H16.6257C16.8093 19.9992 16.9903 19.957 17.1554 19.8766L10.6378 14.1259L9.6023 14.9314Z" fill="white"/>
<path d="M11.2124 13.6788L17.6903 19.3944C17.8168 19.1907 17.8842 18.9557 17.8849 18.7159V8.48895L11.2124 13.6788Z" fill="white"/>
<path d="M1.07316 7.00562L0.346332 7.6756C0.313441 7.70849 0.282718 7.74348 0.254395 7.78041L1.07316 8.41711V7.00562Z" fill="white"/>
<path d="M0 8.48895V18.7159C0.000427158 18.9561 0.0678195 19.1914 0.194587 19.3955L6.67246 13.6799L0 8.48895Z" fill="white"/>
</svg>
