<svg width="19" height="20" viewBox="0 0 19 20" fill="none" xmlns="http://www.w3.org/2000/svg">
<path d="M7.57562 17.7278C7.5756 17.5945 7.54689 17.4629 7.49156 17.3422C7.43622 17.2215 7.3556 17.1147 7.2554 17.0295C7.15522 16.9442 7.03789 16.8825 6.91176 16.8487C6.78564 16.8149 6.6538 16.8099 6.52556 16.8341C5.3618 17.0524 3.89244 17.0853 3.50175 15.9634C3.16109 15.0945 2.59682 14.3361 1.86873 13.7685C1.81679 13.7396 1.76728 13.7064 1.72072 13.6691C1.657 13.4973 1.54382 13.3492 1.39611 13.2445C1.2484 13.1398 1.07311 13.0833 0.893351 13.0825H0.889013C0.65396 13.0824 0.428447 13.1775 0.261833 13.347C0.0952198 13.5165 0.00107761 13.7466 1.24646e-05 13.9869C-0.00346353 14.728 0.720993 15.2028 1.01489 15.3635C1.36147 15.7194 1.64 16.1384 1.83618 16.5989C2.16 17.5291 3.10109 18.9402 5.80629 18.7584C5.80718 18.7904 5.80804 18.8204 5.80847 18.848L5.81236 19.0911C5.81236 19.3322 5.90604 19.5633 6.07275 19.7338C6.23947 19.9042 6.4656 20 6.70136 20C6.93715 20 7.16327 19.9042 7.32998 19.7338C7.49671 19.5633 7.59036 19.3322 7.59036 19.0911L7.58604 18.8018C7.58169 18.6296 7.57562 18.3802 7.57562 17.7278ZM17.0586 3.98062C17.0868 3.86702 17.1146 3.74098 17.1389 3.59898C17.2827 2.58615 17.1573 1.55243 16.776 0.606153C16.7279 0.482789 16.6539 0.371678 16.5594 0.280607C16.4648 0.189536 16.3519 0.120713 16.2286 0.0789587C15.9121 -0.0302119 14.7436 -0.245 12.509 1.21502C10.6514 0.768131 8.7178 0.768131 6.86025 1.21502C4.63471 -0.223614 3.47224 -0.028394 3.15882 0.07456C3.03247 0.114622 2.91647 0.183082 2.81936 0.274922C2.72224 0.366762 2.64645 0.479655 2.59756 0.605326C2.20844 1.56977 2.08445 2.62458 2.239 3.65582C2.26071 3.77207 2.28415 3.87947 2.30845 3.97798C1.57199 4.98085 1.17971 6.20409 1.19244 7.45806C1.19004 7.73782 1.20265 8.01753 1.2302 8.29589C1.52713 12.4789 4.19413 13.7348 6.05242 14.1661C6.01378 14.2797 5.97864 14.4013 5.94736 14.53C5.89167 14.7639 5.92895 15.0107 6.05104 15.2165C6.17311 15.4223 6.37004 15.5702 6.59864 15.6278C6.82722 15.6853 7.0688 15.6479 7.27042 15.5236C7.47204 15.3994 7.61724 15.1985 7.67415 14.9649C7.73071 14.6621 7.87571 14.3839 8.09 14.167C8.21958 14.051 8.3134 13.8991 8.36004 13.7296C8.40669 13.5601 8.40415 13.3804 8.35273 13.2124C8.30131 13.0443 8.20324 12.8952 8.07044 12.7831C7.93764 12.671 7.77582 12.6008 7.60471 12.581C4.534 12.2224 3.20093 10.9435 3.00038 8.12904C2.97818 7.90613 2.96818 7.68213 2.97044 7.45806C2.95618 6.56435 3.24498 5.69315 3.78782 4.99246C3.84236 4.91942 3.90045 4.8492 3.96187 4.78211C4.07073 4.6576 4.14391 4.50484 4.17338 4.3406C4.20287 4.17636 4.18751 4.00698 4.12902 3.85107C4.06904 3.68705 4.02285 3.51811 3.99098 3.34605C3.91855 2.85684 3.94231 2.35776 4.06085 1.87805C4.83351 2.10115 5.56069 2.46429 6.20778 2.9502C6.3148 3.02307 6.43587 3.07156 6.56284 3.09238C6.68978 3.11322 6.81962 3.10589 6.94356 3.07091C8.74033 2.57242 10.6346 2.57273 12.4312 3.07182C12.5558 3.10676 12.6864 3.11367 12.8138 3.09205C12.9413 3.07045 13.0627 3.02085 13.1696 2.94669C13.8137 2.45876 14.5378 2.09236 15.3079 1.86476C15.4259 2.33296 15.4523 2.82038 15.3856 3.29904C15.3534 3.48765 15.3031 3.67256 15.2354 3.85109C15.1769 4.007 15.1615 4.17638 15.191 4.34062C15.2205 4.50485 15.2937 4.65762 15.4025 4.78213C15.4711 4.86111 15.5397 4.94633 15.6013 5.0262C16.1403 5.71504 16.4243 6.57622 16.4031 7.45806C16.4047 7.694 16.3936 7.92985 16.3697 8.16453C16.1739 10.9417 14.8356 12.2215 11.7506 12.5809C11.5795 12.6009 11.4176 12.6712 11.2848 12.7834C11.1521 12.8956 11.054 13.0449 11.0026 13.213C10.9513 13.3811 10.9488 13.5609 10.9955 13.7304C11.0422 13.8999 11.1361 14.0519 11.2657 14.1679C11.4868 14.3906 11.6321 14.6799 11.6803 14.9933C11.7404 15.2366 11.768 15.4871 11.7623 15.738V17.8592C11.7536 18.4476 11.7536 18.8887 11.7536 19.0911C11.7536 19.3322 11.8473 19.5633 12.014 19.7338C12.1807 19.9042 12.4069 20 12.6426 20C12.8784 20 13.1045 19.9042 13.2713 19.7338C13.438 19.5633 13.5316 19.3322 13.5316 19.0911C13.5316 18.894 13.5316 18.4618 13.5403 17.8734V15.738C13.5475 15.3361 13.5012 14.9351 13.4027 14.546C13.3746 14.4183 13.3401 14.2921 13.2994 14.1679C14.6518 13.9382 15.8806 13.2254 16.7671 12.1563C17.6535 11.0872 18.1401 9.73116 18.1403 8.32962C18.1696 8.04009 18.1833 7.74913 18.1811 7.45806C18.2009 6.20273 17.8053 4.97736 17.0586 3.98062Z" fill="white"/>
</svg>
