<svg width="22" height="20" viewBox="0 0 22 20" fill="none" xmlns="http://www.w3.org/2000/svg">
<path d="M19.8595 0.00191074C19.6251 0.0100511 19.3986 0.0792494 19.1915 0.164728C18.9884 0.250208 17.8205 0.771224 16.0939 1.54054C14.3673 2.30985 12.1212 3.31118 9.89858 4.30437C5.44545 6.29074 1.07436 8.24456 1.07436 8.24456L1.10561 8.23235C1.10561 8.23235 0.839986 8.32597 0.574361 8.51728C0.441548 8.61497 0.297017 8.74115 0.175924 8.92432C0.058736 9.10749 -0.027202 9.368 0.00795501 9.64072C0.121236 10.6013 1.07827 10.8781 1.07827 10.8781H1.08217L5.35561 12.4005C5.46499 12.779 6.65249 16.9105 6.9103 17.7857C7.05483 18.266 7.19155 18.5468 7.33217 18.7382C7.40249 18.8318 7.4767 18.905 7.55874 18.958C7.58999 18.9824 7.62514 18.9946 7.65639 19.0109C7.6603 19.0109 7.6603 19.0109 7.6603 19.0109C7.6642 19.0109 7.66811 19.0149 7.67202 19.0149L7.6603 19.0109C7.66811 19.0149 7.67592 19.019 7.68374 19.0231C7.69936 19.0272 7.70717 19.0272 7.7267 19.0353C8.21889 19.2103 8.62124 18.8806 8.62124 18.8806L8.64077 18.8684L11.2658 16.3285L15.5236 19.7924L15.5783 19.8168C16.3244 20.1628 16.9962 19.9674 17.3712 19.654C17.7462 19.3365 17.8908 18.9295 17.8908 18.9295L17.9064 18.8847L21.0392 1.88246C21.1173 1.5039 21.129 1.1742 21.0548 0.877056C20.9767 0.579914 20.7931 0.323476 20.5665 0.18101C20.3361 0.0344743 20.0939 -0.0103009 19.8595 0.00191074ZM19.8869 1.01545C19.9806 1.01138 20.0509 1.02359 20.0744 1.0358C20.0939 1.05208 20.1056 1.04801 20.1251 1.13349C20.1486 1.21897 20.1603 1.394 20.1017 1.67079L20.0978 1.67486L16.9845 18.5794C16.9806 18.5957 16.9142 18.7504 16.7658 18.8766C16.6134 19.0068 16.4455 19.1045 16.0001 18.9091L11.3439 15.1236L11.2111 15.0178L11.2072 15.0218L9.81655 13.931L17.6447 4.33286C17.7658 4.18226 17.7931 3.97059 17.7111 3.79149C17.629 3.61646 17.4572 3.50249 17.2658 3.50656C17.1759 3.51063 17.0861 3.53913 17.0119 3.59204L5.68374 11.4643L1.40249 9.93379C1.40249 9.93379 0.980611 9.68957 0.957174 9.51861C0.957174 9.5064 0.953267 9.51454 0.972798 9.48197C0.996236 9.44941 1.05092 9.38835 1.12124 9.33951C1.26186 9.23775 1.41811 9.17669 1.41811 9.17669L1.43764 9.17262L1.45327 9.16448C1.45327 9.16448 5.82436 7.21067 10.2775 5.22429C12.5001 4.2311 14.7462 3.22977 16.4728 2.46046C18.1994 1.69114 19.4455 1.13756 19.5509 1.09279C19.672 1.04394 19.7892 1.02359 19.8869 1.01545ZM14.6915 6.40472L8.75405 13.6867C8.74233 13.699 8.73452 13.7112 8.7267 13.7234C8.71889 13.7356 8.70717 13.7519 8.69936 13.7641C8.66811 13.8251 8.64467 13.8903 8.63686 13.9595C8.63686 13.9595 8.63686 13.9595 8.63686 13.9635L7.86342 17.5862C7.85171 17.5455 7.84389 17.5333 7.82827 17.4885V17.4845C7.58217 16.6622 6.46499 12.7709 6.30874 12.2295L14.6915 6.40472ZM9.42592 14.8794L10.4923 15.7138L8.92592 17.228L9.42592 14.8794Z" fill="white"/>
</svg>
