<svg width="31" height="20" viewBox="0 0 31 20" fill="none" xmlns="http://www.w3.org/2000/svg">
<path d="M30.1282 3.12501C29.7692 1.90001 28.7433 0.924974 27.41 0.599974C24.9998 -2.55994e-05 15.3846 0 15.3846 0C15.3846 0 5.76938 -2.55994e-05 3.35913 0.599974C2.05143 0.924974 1 1.90001 0.641025 3.12501C0 5.35001 0 10 0 10C0 10 0 14.65 0.641025 16.875C1 18.1 2.05143 19.075 3.35913 19.4C5.76938 20 15.3846 20 15.3846 20C15.3846 20 24.9998 20 27.41 19.4C28.7433 19.075 29.7692 18.1 30.1282 16.875C30.7692 14.65 30.7692 10 30.7692 10C30.7692 10 30.7692 5.35001 30.1282 3.12501ZM12.8205 15V5.00001L20.5128 10L12.8205 15Z" fill="white"/>
</svg>
